SplineFontDB: 3.0
FontName: Laksaman-BoldItalic
FullName: Laksaman Bold Italic
FamilyName: Laksaman
Weight: Bold
Copyright: Laksaman, based on TH Sarabun New.\n\nCopyright (c) 2014 Theppitak Karoonboonyanan.\n\nTH Sarabun New:\n\nCopyright (c) 2010-2011 by Software Industry Promotion Agency (Public Organization) (SIPA). All rights reserved.\nCreated by : Suppakit CHALERMLARP.
Version: 3.0: 2014-04-30
ItalicAngle: -12
UnderlinePosition: -20
UnderlineWidth: 30
Ascent: 800
Descent: 200
LayerCount: 2
Layer: 0 0 "Back"  1
Layer: 1 0 "Fore"  0
XUID: [1021 373 914837695 15431195]
FSType: 0
OS2Version: 3
OS2_WeightWidthSlopeOnly: 0
OS2_UseTypoMetrics: 1
CreationTime: 1308745585
ModificationTime: 1398927649
PfmFamily: 33
TTFWeight: 700
TTFWidth: 5
LineGap: 30
VLineGap: 0
Panose: 2 11 5 0 4 2 0 2 0 3
OS2TypoAscent: 1279
OS2TypoAOffset: 0
OS2TypoDescent: -376
OS2TypoDOffset: 0
OS2TypoLinegap: 60
OS2WinAscent: 1270
OS2WinAOffset: 0
OS2WinDescent: 687
OS2WinDOffset: 0
HheadAscent: 1270
HheadAOffset: 0
HheadDescent: -687
HheadDOffset: 0
OS2SubXSize: 700
OS2SubYSize: 650
OS2SubXOff: 0
OS2SubYOff: 140
OS2SupXSize: 700
OS2SupYSize: 650
OS2SupXOff: 0
OS2SupYOff: 477
OS2StrikeYSize: 30
OS2StrikeYPos: 250
OS2FamilyClass: 2053
OS2Vendor: 'psk '
OS2CodePages: 60010183.80000000
OS2UnicodeRanges: a100006f.5000205a.00000000.00000000
Lookup: 4 0 0 "'frac' Diagonal Fractions in Latin lookup 0"  {"'frac' Diagonal Fractions in Latin lookup 0 subtable"  } ['frac' ('latn' <'dflt' > ) ]
Lookup: 4 0 1 "'rlig' Required Ligatures in Latin lookup 1"  {"'rlig' Required Ligatures in Latin lookup 1 subtable"  } ['rlig' ('latn' <'dflt' > ) ]
Lookup: 4 0 1 "'rlig' Required Ligatures in Latin lookup 2"  {"'rlig' Required Ligatures in Latin lookup 2 subtable"  } ['rlig' ('latn' <'dflt' > ) ]
Lookup: 6 0 0 "'rlig' Required Ligatures in Latin lookup 3"  {"'rlig' Required Ligatures in Latin lookup 3 subtable"  } ['rlig' ('latn' <'dflt' > ) ]

StartChar: .notdef
Encoding: 65536 -1 0
Width: 1049
VWidth: 1504
Flags: HW
LayerCount: 2
Fore
SplineSet
970 0 m 1
 80 0 l 1
 80 1217 l 1
 970 1217 l 1
 970 0 l 1
916 47 m 1
 916 1170 l 1
 134 1170 l 1
 134 47 l 1
 916 47 l 1
EndSplineSet
EndChar

StartChar: exclam
Encoding: 33 33 2
Width: 252
VWidth: 1504
Flags: HW
LayerCount: 2
Fore
SplineSet
144 209 m 1
 60 209 l 1
 158 716 l 1
 266 716 l 1
 144 209 l 1
144 59 m 256
 140 39 129.5 21.8333 112.5 7.5 c 128
 95.5 -6.83333 77 -14 57 -14 c 256
 37 -14 21.6667 -6.83333 11 7.5 c 128
 0.333333 21.8333 -3.33333 39 0 59 c 0
 4 79 14.5 96 31.5 110 c 128
 48.5 124 67 131 87 131 c 256
 107 131 122.5 124 133.5 110 c 128
 144.5 96 148 79 144 59 c 256
EndSplineSet
EndChar

StartChar: quotedbl
Encoding: 34 34 3
Width: 437
VWidth: 1504
Flags: HW
LayerCount: 2
Fore
SplineSet
384 501 m 1
 314 501 l 1
 356 791 l 1
 463 791 l 1
 384 501 l 1
200 501 m 1
 132 501 l 1
 174 791 l 1
 281 791 l 1
 200 501 l 1
EndSplineSet
EndChar

StartChar: numbersign
Encoding: 35 35 4
Width: 694
VWidth: 1504
Flags: HW
LayerCount: 2
Fore
SplineSet
418 0 m 1
 329 0 l 1
 405 214 l 1
 211 214 l 1
 140 0 l 1
 51 0 l 1
 122 214 l 1
 29 214 l 1
 45 293 l 1
 149 293 l 1
 196 427 l 1
 93 427 l 1
 110 508 l 1
 221 508 l 1
 293 714 l 1
 379 714 l 1
 310 508 l 1
 501 508 l 1
 570 714 l 1
 659 714 l 1
 590 508 l 1
 684 508 l 1
 668 427 l 1
 561 427 l 1
 516 293 l 1
 617 293 l 1
 600 214 l 1
 492 214 l 1
 418 0 l 1
429 293 m 1
 475 427 l 1
 283 427 l 1
 238 293 l 1
 429 293 l 1
EndSplineSet
EndChar

StartChar: dollar
Encoding: 36 36 5
Width: 552
VWidth: 1504
Flags: HW
LayerCount: 2
Fore
SplineSet
465 208 m 0
 455.667 166 432.167 127.833 394.5 93.5 c 128
 356.833 59.1667 311.666 36.6667 259 26 c 1
 236 -83 l 1
 147 -83 l 1
 170 23 l 1
 104.667 29 53 49.3333 15 84 c 1
 72 156 l 1
 108 120.667 156.667 103.333 218 104 c 0
 258 104 292.167 113.167 320.5 131.5 c 128
 348.833 149.833 366 174.333 372 205 c 0
 382 252.333 350.333 292.667 277 326 c 0
 161 380 110.667 443.667 126 517 c 0
 135.333 560.333 157.5 597.5 192.5 628.5 c 128
 227.5 659.5 271 680 323 690 c 1
 347 802 l 1
 435 802 l 1
 411 692 l 1
 457 686 501.667 669.333 545 642 c 1
 484 569 l 1
 456 598.333 412.333 612.667 353 612 c 0
 319.667 612 290.333 604.333 265 589 c 128
 239.667 573.664 224.667 552.331 220 525 c 0
 212 487 247.333 448.333 326 409 c 0
 386 379.667 426.5 350.167 447.5 320.5 c 128
 468.5 290.833 474.333 253.333 465 208 c 0
EndSplineSet
EndChar

StartChar: percent
Encoding: 37 37 6
Width: 1034
VWidth: 1504
Flags: HW
LayerCount: 2
Fore
SplineSet
257 -14 m 1
 165 -14 l 1
 779 716 l 1
 871 716 l 1
 257 -14 l 1
456 508 m 0
 424.667 361.333 349.333 288.333 230 289 c 0
 112 289 68.3333 362 99 508 c 0
 131 655.333 206.333 729.333 325 730 c 0
 444.333 729.333 488 655.333 456 508 c 0
367 508 m 0
 387 602 367 649.333 307 650 c 0
 249 650 210 602.667 190 508 c 0
 170.667 416 190 370 248 370 c 0
 308 370 347.667 416 367 508 c 0
954 209 m 0
 922.667 61.6667 847 -12 727 -12 c 0
 607.666 -12 563.332 61.6667 594 209 c 0
 625.333 355.667 700.667 429 820 429 c 0
 940.667 429 985.334 355.667 954 209 c 0
863 209 m 0
 883 303 863 350 803 350 c 0
 743.667 350 704 303 684 209 c 0
 664 115.667 683.667 69 743 69 c 0
 803 69 843 115.667 863 209 c 0
EndSplineSet
EndChar

StartChar: ampersand
Encoding: 38 38 7
Width: 731
VWidth: 1504
Flags: HW
LayerCount: 2
Fore
SplineSet
561 -21 m 1
 478 72 l 1
 386.667 14.6667 300.667 -14 220 -14 c 0
 152 -14 99.8333 7.16667 63.5 49.5 c 128
 27.1667 91.8333 15.6667 142.667 29 202 c 0
 48.3333 291.333 111 362 217 414 c 1
 189.667 462 181 508.667 191 554 c 0
 202.333 606 230 650 274 686 c 128
 318 722 368.667 740 426 740 c 0
 475.333 740 512.667 725.167 538 695.5 c 128
 563.333 665.833 571 628 561 582 c 0
 543.667 502.667 472.333 436.667 347 384 c 1
 381 334 430.667 269.333 496 190 c 1
 559.333 254 602.667 324 626 400 c 1
 705 400 l 1
 667.667 292 615.333 203.333 548 134 c 1
 586 90.6667 620 53 650 21 c 1
 561 -21 l 1
472 578 m 0
 484 635.333 461.667 663.667 405 663 c 0
 375 663 348.833 653 326.5 633 c 128
 304.167 613 290 588.667 284 560 c 0
 276.667 530.667 287.333 493.333 316 448 c 1
 410.667 491.333 462.667 534.667 472 578 c 0
430 128 m 1
 259 350 l 1
 181.667 310.667 137 263.333 125 208 c 0
 115.667 166.667 122.833 133 146.5 107 c 128
 170.167 81 204 68 248 68 c 0
 314 68 374.667 88 430 128 c 1
EndSplineSet
EndChar

StartChar: quotesingle
Encoding: 39 39 8
Width: 254
VWidth: 1504
Flags: HW
LayerCount: 2
Fore
SplineSet
200 501 m 1
 132 501 l 1
 174 791 l 1
 281 791 l 1
 200 501 l 1
EndSplineSet
EndChar

StartChar: parenleft
Encoding: 40 40 9
Width: 367
VWidth: 1504
Flags: HW
LayerCount: 2
Fore
SplineSet
159 -83 m 1
 67 39.6667 38.6667 185 74 353 c 1
 108 510.333 197 658.333 341 797 c 1
 453 797 l 1
 296.333 657.667 201 509.667 167 353 c 1
 135.667 204.333 168.333 59 265 -83 c 1
 159 -83 l 1
EndSplineSet
EndChar

StartChar: parenright
Encoding: 41 41 10
Width: 367
VWidth: 1504
Flags: HW
LayerCount: 2
Fore
SplineSet
308 358 m 0
 272.667 193.333 182.667 46.3333 38 -83 c 1
 -65 -83 l 1
 90.3333 66.3333 183.667 213.333 215 358 c 0
 246.333 503.333 214.333 649.667 119 797 c 1
 223 797 l 1
 315 669.666 343.333 523.333 308 358 c 0
EndSplineSet
EndChar

StartChar: asterisk
Encoding: 42 42 11
Width: 515
VWidth: 1504
Flags: HW
LayerCount: 2
Fore
SplineSet
421 417 m 1
 335 372 l 1
 296 501 l 1
 203 372 l 1
 135 417 l 1
 254 532 l 1
 102 519 l 1
 119 597 l 1
 265 585 l 1
 197 701 l 1
 283 746 l 1
 322 617 l 1
 415 746 l 1
 483 701 l 1
 364 585 l 1
 516 597 l 1
 499 520 l 1
 353 532 l 1
 421 417 l 1
EndSplineSet
EndChar

StartChar: plus
Encoding: 43 43 12
Width: 627
VWidth: 1504
Flags: HW
LayerCount: 2
Fore
SplineSet
295 0 m 1
 200 0 l 1
 250 236 l 1
 27 236 l 1
 45 319 l 1
 268 319 l 1
 316 546 l 1
 411 546 l 1
 363 319 l 1
 585 319 l 1
 567 236 l 1
 344 236 l 1
 295 0 l 1
EndSplineSet
EndChar

StartChar: comma
Encoding: 44 44 13
Width: 258
VWidth: 1504
Flags: HW
LayerCount: 2
Fore
SplineSet
150 56 m 0
 128.667 -43.3333 68.6667 -115.667 -30 -161 c 1
 -53 -117 l 1
 6.33333 -85 44 -50 60 -12 c 1
 12.6667 -8.66667 -6.33333 16.3333 3 63 c 0
 8.33333 84.3334 19.6667 102.167 37 116.5 c 128
 54.3333 130.833 73 138 93 138 c 0
 114.333 138 130.5 130.333 141.5 115 c 128
 152.5 99.6667 155.333 80 150 56 c 0
EndSplineSet
EndChar

StartChar: hyphen
Encoding: 45 45 14
AltUni2: 0000ad.ffffffff.0
Width: 339
VWidth: 1504
Flags: HW
LayerCount: 2
Fore
SplineSet
287 236 m 1
 -11 236 l 1
 21 317 l 1
 320 317 l 1
 287 236 l 1
EndSplineSet
EndChar

StartChar: period
Encoding: 46 46 15
Width: 258
VWidth: 1504
Flags: HW
LayerCount: 2
Fore
SplineSet
147 59 m 256
 143 39 132.5 21.8333 115.5 7.5 c 128
 98.5 -6.83333 80 -14 60 -14 c 256
 40 -14 24.6667 -6.83333 14 7.5 c 128
 3.33333 21.8333 -0.333333 39 3 59 c 0
 7 79 17.5 96 34.5 110 c 128
 51.5 124 70 131 90 131 c 256
 110 131 125.5 124 136.5 110 c 128
 147.5 96 151 79 147 59 c 256
EndSplineSet
EndChar

StartChar: slash
Encoding: 47 47 16
Width: 415
VWidth: 1504
Flags: HW
LayerCount: 2
Fore
SplineSet
-23 -42 m 1
 -119 -42 l 1
 447 740 l 1
 543 740 l 1
 -23 -42 l 1
EndSplineSet
EndChar

StartChar: zero
Encoding: 48 48 17
Width: 568
VWidth: 1504
Flags: HW
LayerCount: 2
Fore
SplineSet
532 353 m 0
 510.667 251.667 471.5 165.167 414.5 93.5 c 128
 357.5 21.8333 290 -14 212 -14 c 0
 136.667 -14 85.5 22 58.5 94 c 128
 31.5 166 28.6667 252.333 50 353 c 0
 72 454.333 111.5 541 168.5 613 c 128
 225.5 685 291.667 721 367 721 c 0
 445 721 497.5 685 524.5 613 c 128
 551.5 541 554 454.333 532 353 c 0
436 353 m 0
 454 437 456.833 505.5 444.5 558.5 c 128
 432.167 611.5 401.667 638 353 638 c 0
 303.667 638 261.333 611.667 226 559 c 128
 190.667 506.333 164 437.666 146 353 c 0
 128.667 269 126.333 200.667 139 148 c 128
 151.667 95.3333 182 69 230 69 c 0
 279.334 69 321.667 95.3334 357 148 c 128
 392.334 200.667 418.667 269 436 353 c 0
EndSplineSet
EndChar

StartChar: one
Encoding: 49 49 18
Width: 568
VWidth: 1504
Flags: HW
LayerCount: 2
Fore
SplineSet
396 0 m 1
 78 0 l 1
 93 77 l 1
 205 77 l 1
 311 576 l 1
 200 496 l 1
 156 558 l 1
 382 719 l 1
 419.333 719 433 695 423 647 c 2
 301 77 l 1
 411 77 l 1
 396 0 l 1
EndSplineSet
EndChar

StartChar: two
Encoding: 50 50 19
Width: 568
VWidth: 1504
Flags: HW
LayerCount: 2
Fore
SplineSet
457 0 m 1
 -30 0 l 1
 -12 44 4 80 18 108 c 1
 51.3333 140 147.667 218.333 307 343 c 0
 405 420.333 459.667 483.333 471 532 c 0
 485 598 453 631.333 375 632 c 0
 297.667 632 242 587.333 208 498 c 1
 123 520 l 1
 144.333 584 180 633.667 230 669 c 0
 277.333 702.333 332 719 394 719 c 0
 455.333 719 502.333 701 535 665 c 128
 567.667 629 578 583.333 566 528 c 0
 556 478.667 518.333 423 453 361 c 0
 413 323.667 348.333 272 259 206 c 0
 179 146.667 128.667 106 108 84 c 1
 492 84 l 1
 457 0 l 1
EndSplineSet
EndChar

StartChar: three
Encoding: 51 51 20
Width: 568
VWidth: 1504
Flags: HW
LayerCount: 2
Fore
SplineSet
505 248 m 0
 487.667 170 446.333 107.167 381 59.5 c 128
 315.667 11.8333 237.667 -12 147 -12 c 0
 79 -12 25 9 -15 51 c 1
 42 128 l 1
 80 96 126.667 80 182 80 c 0
 234 80 282.667 96.5 328 129.5 c 128
 373.333 162.5 400.333 201 409 245 c 0
 416.333 277 412 304.167 396 326.5 c 128
 380 348.833 356.333 360 325 360 c 0
 287.667 360 249 345.333 209 316 c 1
 182 382 l 1
 237.333 410 288 441.667 334 477 c 0
 388 519 417.667 553 423 579 c 0
 432.333 618.333 409 638 353 638 c 0
 317 638 281.333 626.5 246 603.5 c 128
 210.667 580.5 182.667 553.333 162 522 c 1
 102 557 l 1
 132 607 171.333 646.5 220 675.5 c 128
 268.667 704.5 320.333 719 375 719 c 0
 423 719 460.167 706.5 486.5 681.5 c 128
 512.833 656.5 522 623 514 581 c 1
 504.667 539.667 463.667 492.333 391 439 c 1
 436.334 429.667 469.167 408 489.5 374 c 128
 509.833 340 515 298 505 248 c 0
EndSplineSet
EndChar

StartChar: four
Encoding: 52 52 21
Width: 568
VWidth: 1504
Flags: HW
LayerCount: 2
Fore
SplineSet
329 241 m 1
 406 608 l 1
 352 576.666 298.167 525.833 244.5 455.5 c 128
 190.833 385.167 150 313.667 122 241 c 1
 329 241 l 1
375 0 m 1
 278 0 l 1
 311 159 l 1
 9 159 l 1
 36.3333 284.333 102.833 409.5 208.5 534.5 c 128
 314.167 659.5 421 726.667 529 736 c 1
 426 241 l 1
 522 241 l 1
 493 159 l 1
 408 159 l 1
 375 0 l 1
EndSplineSet
EndChar

StartChar: five
Encoding: 53 53 22
Width: 568
VWidth: 1504
Flags: HW
LayerCount: 2
Fore
SplineSet
507 253 m 0
 491 175 450.167 111.333 384.5 62 c 128
 318.833 12.6667 242.333 -12 155 -12 c 0
 81 -12 24.3333 9.66667 -15 53 c 1
 39 122 l 1
 87 86.6666 134.667 69 182 69 c 0
 234 69 282.333 86.3334 327 121 c 128
 371.667 155.667 399.667 199 411 251 c 0
 420.333 294.333 413.333 327.833 390 351.5 c 128
 366.667 375.167 331.333 387 284 387 c 256
 236.667 387 202.667 370.333 182 337 c 1
 122 334 l 1
 229 716 l 1
 587 716 l 1
 552 635 l 1
 302 635 l 1
 256 460 l 1
 275.333 468 297.333 472 322 472 c 0
 388 472 438.833 451.5 474.5 410.5 c 128
 510.167 369.5 521 317 507 253 c 0
EndSplineSet
EndChar

StartChar: six
Encoding: 54 54 23
Width: 568
VWidth: 1504
Flags: HW
LayerCount: 2
Fore
SplineSet
493 226 m 0
 479 158.667 447 102.167 397 56.5 c 128
 347 10.8333 290.333 -12 227 -12 c 0
 157 -12 104.5 12.5 69.5 61.5 c 128
 34.5 110.5 25.3333 175.667 42 257 c 0
 66 372.334 125.667 474.167 221 562.5 c 128
 316.333 650.833 427.667 707 555 731 c 1
 548 656 l 1
 482 638.667 415.5 607.667 348.5 563 c 128
 281.5 518.333 229.667 468.667 193 414 c 1
 231 445.334 277 460.668 331 460 c 0
 391 460 436.5 437.5 467.5 392.5 c 128
 498.5 347.5 507 292 493 226 c 0
406 226 m 0
 415.33 266 410.164 301.5 390.5 332.5 c 128
 370.833 363.5 343 379 307 379 c 0
 269 379 233.667 364.167 201 334.5 c 128
 168.333 304.833 147 268.667 137 226 c 0
 127.667 184 133.333 147.833 154 117.5 c 128
 174.667 87.1667 204 72 242 72 c 0
 278 72 312.333 87.6667 345 119 c 128
 377.667 150.333 398 186 406 226 c 0
EndSplineSet
EndChar

StartChar: seven
Encoding: 55 55 24
Width: 568
VWidth: 1504
Flags: HW
LayerCount: 2
Fore
SplineSet
230 0 m 1
 132 0 l 1
 199.333 280 314.667 491.667 478 635 c 1
 110 635 l 1
 150 716 l 1
 618 716 l 1
 587 635 l 1
 489.667 539 415 446.667 363 358 c 0
 303.667 256.667 259.333 137.333 230 0 c 1
EndSplineSet
EndChar

StartChar: eight
Encoding: 56 56 25
Width: 568
VWidth: 1504
Flags: HW
LayerCount: 2
Fore
SplineSet
405 197 m 0
 413 234.333 407.667 268 389 298 c 128
 370.333 328 338 344.333 292 347 c 1
 244 343.667 204.167 327.167 172.5 297.5 c 128
 140.833 267.833 121 234.333 113 197 c 0
 105 157.667 112 126.5 134 103.5 c 128
 156 80.5 188.667 69 232 69 c 256
 275.333 69 313 80.5 345 103.5 c 128
 377 126.5 397 157.667 405 197 c 0
456 534 m 0
 462 564 455.667 589 437 609 c 128
 418.333 629 390.333 639 353 639 c 256
 315.667 639 283.333 629 256 609 c 128
 228.667 589 212 564 206 534 c 0
 196 484.667 229.667 448.667 307 426 c 1
 396.333 448.667 446 484.667 456 534 c 0
498 202 m 0
 484 136 451.333 83.8333 400 45.5 c 128
 348.667 7.16667 286.667 -12 214 -12 c 0
 142 -12 88.6667 7 54 45 c 128
 19.3333 83 9 135.333 23 202 c 0
 31 242 50 279 80 313 c 128
 110 347 144 372 182 388 c 1
 124.667 423.333 102 470.333 114 529 c 0
 126 584.333 156.167 630.167 204.5 666.5 c 128
 252.833 702.833 308 721 370 721 c 256
 432 721 479.667 702.833 513 666.5 c 128
 546.333 630.166 557 584.333 545 529 c 0
 533 469.667 490.333 422.667 417 388 c 1
 449 372 472.5 347 487.5 313 c 128
 502.5 279 506 242 498 202 c 0
EndSplineSet
EndChar

StartChar: nine
Encoding: 57 57 26
Width: 568
VWidth: 1504
Flags: HW
LayerCount: 2
Fore
SplineSet
542 450 m 0
 518 334.667 458.333 232.833 363 144.5 c 128
 267.667 56.1667 156.333 0 29 -24 c 1
 36 51 l 1
 100 67 167.667 99.1667 239 147.5 c 128
 310.333 195.833 363 245 397 295 c 1
 361 263 313 247 253 247 c 256
 193 247 147.167 269.5 115.5 314.5 c 128
 83.8333 359.5 75.3333 415 90 481 c 1
 104 548.333 136.167 604.833 186.5 650.5 c 128
 236.833 696.167 293.333 719 356 719 c 0
 426 719 478.833 694.5 514.5 645.5 c 128
 550.171 596.5 559.338 531.333 542 450 c 0
447 481 m 1
 455 523 449 559.167 429 589.5 c 128
 409 619.833 379.667 635 341 635 c 0
 305 635 270.833 619.5 238.5 588.5 c 128
 206.167 557.5 185.667 521.667 177 481 c 0
 167.667 441 173 405.5 193 374.5 c 128
 213 343.5 241 328 277 328 c 0
 315 328 350.333 342.667 383 372 c 128
 415.667 401.334 437 437.667 447 481 c 1
EndSplineSet
EndChar

StartChar: colon
Encoding: 58 58 27
Width: 258
VWidth: 1504
Flags: HW
LayerCount: 2
Fore
SplineSet
147 59 m 256
 143 39 132.5 21.8333 115.5 7.5 c 128
 98.5 -6.83333 80 -14 60 -14 c 256
 40 -14 24.6667 -6.83333 14 7.5 c 128
 3.33333 21.8333 -0.333333 39 3 59 c 0
 7 79 17.5 96 34.5 110 c 128
 51.5 124 70 131 90 131 c 256
 110 131 125.5 124 136.5 110 c 128
 147.5 96 151 79 147 59 c 256
226 429 m 256
 222 409 211.333 391.833 194 377.5 c 128
 176.667 363.167 158 356 138 356 c 256
 118 356 102.5 363.167 91.5 377.5 c 128
 80.5 391.833 77 409 81 429 c 256
 85 449 95.5 466 112.5 480 c 128
 129.5 494 148 501 168 501 c 256
 188 501 203.667 494 215 480 c 128
 226.333 466 230 449 226 429 c 256
EndSplineSet
EndChar

StartChar: semicolon
Encoding: 59 59 28
Width: 258
VWidth: 1504
Flags: HW
LayerCount: 2
Fore
SplineSet
226 429 m 256
 222 409 211.333 391.833 194 377.5 c 128
 176.667 363.167 158 356 138 356 c 256
 118 356 102.5 363.167 91.5 377.5 c 128
 80.5 391.833 77 409 81 429 c 256
 85 449 95.5 466 112.5 480 c 128
 129.5 494 148 501 168 501 c 256
 188 501 203.667 494 215 480 c 128
 226.333 466 230 449 226 429 c 256
150 56 m 0
 128.667 -43.3333 68.6667 -115.667 -30 -161 c 1
 -53 -117 l 1
 6.33333 -85 44 -50 60 -12 c 1
 12.6667 -8.66667 -6.33333 16.3333 3 63 c 0
 8.33333 84.3334 19.6667 102.167 37 116.5 c 128
 54.3333 130.833 73 138 93 138 c 0
 114.333 138 130.5 130.333 141.5 115 c 128
 152.5 99.6667 155.333 80 150 56 c 0
EndSplineSet
EndChar

StartChar: less
Encoding: 60 60 29
Width: 627
VWidth: 1504
Flags: HW
LayerCount: 2
Fore
SplineSet
502 -15 m 1
 42 256 l 1
 54 317 l 1
 630 587 l 1
 611 492 l 1
 168 286 l 1
 523 80 l 1
 502 -15 l 1
EndSplineSet
EndChar

StartChar: equal
Encoding: 61 61 30
Width: 627
VWidth: 1504
Flags: HW
LayerCount: 2
Fore
SplineSet
563 335 m 1
 74 335 l 1
 90 414 l 1
 579 414 l 1
 563 335 l 1
522 146 m 1
 33 146 l 1
 50 226 l 1
 539 226 l 1
 522 146 l 1
EndSplineSet
EndChar

StartChar: greater
Encoding: 62 62 31
Width: 627
VWidth: 1504
Flags: HW
LayerCount: 2
Fore
SplineSet
561 256 m 1
 -15 -15 l 1
 5 80 l 1
 448 287 l 1
 92 492 l 1
 111 587 l 1
 573 317 l 1
 561 256 l 1
EndSplineSet
EndChar

StartChar: question
Encoding: 63 63 32
Width: 434
VWidth: 1504
Flags: HW
LayerCount: 2
Fore
SplineSet
450 558 m 0
 438.667 504 393 443.333 313 376 c 0
 257.667 330.667 224.667 285 214 239 c 0
 210.667 223.667 209.667 202.667 211 176 c 1
 125 176 l 1
 121.667 206 121.667 228.667 125 244 c 0
 135 293.333 174 349.5 242 412.5 c 128
 310 475.5 347.667 523 355 555 c 0
 367 612.333 338 641 268 641 c 0
 224.667 641 180 626.333 134 597 c 1
 111 671 l 1
 178.333 708.333 240 727 296 727 c 0
 353.334 727 396.167 711.667 424.5 681 c 128
 452.833 650.333 461.333 609.333 450 558 c 0
221 59 m 256
 217 39 206.5 21.8333 189.5 7.5 c 128
 172.5 -6.83333 154 -14 134 -14 c 256
 114 -14 98.5 -6.83333 87.5 7.5 c 128
 76.5 21.8333 73 39 77 59 c 256
 81 79 91.5 96 108.5 110 c 128
 125.5 124 144 131 164 131 c 256
 184 131 199.5 124 210.5 110 c 128
 221.5 96 225 79 221 59 c 256
EndSplineSet
EndChar

StartChar: at
Encoding: 64 64 33
Width: 860
VWidth: 1504
Flags: HW
LayerCount: 2
Fore
SplineSet
802 266 m 0
 784.667 186 742 122 674 74 c 0
 614 32 548.667 11 478 11 c 1
 481 65 l 1
 425 23 367 2 307 2 c 0
 263.667 2 229.167 14.1667 203.5 38.5 c 128
 177.833 62.8333 169 93.6667 177 131 c 0
 200.333 240.333 312.333 297.333 513 302 c 1
 529 378 501 416.333 429 417 c 0
 389.667 417 351.333 406.333 314 385 c 1
 299 438 l 1
 353 466 408.667 480 466 480 c 0
 519.333 480 556.5 462.5 577.5 427.5 c 128
 598.5 392.5 603 344.667 591 284 c 2
 558 128 l 2
 552.667 104.667 549.667 88.6667 549 80 c 1
 567 80 l 1
 604.333 90 638.833 112.833 670.5 148.5 c 128
 702.169 184.167 722.336 222.333 731 263 c 0
 747 340.333 734.5 404.833 693.5 456.5 c 128
 652.5 508.167 588.333 534 501 534 c 0
 403 534 316.333 502.667 241 440 c 128
 165.667 377.333 118 299 98 205 c 0
 80.6667 123 93.6667 54.8333 137 0.5 c 128
 180.333 -53.8333 242 -81 322 -81 c 0
 383.333 -81 448 -65 516 -33 c 1
 531 -93 l 1
 453.667 -126.333 378 -143 304 -143 c 0
 206 -143 129.667 -111 75 -47 c 0
 19 18.3333 1 100.667 21 200 c 1
 45 313.333 104.667 407.667 200 483 c 128
 295.333 558.333 402.667 596 522 596 c 0
 624 596 701.5 565 754.5 503 c 128
 807.5 441 823.333 362 802 266 c 0
487 161 m 2
 505 245 l 1
 351.667 239 268 203.333 254 138 c 0
 244 90.6667 266.667 67.3333 322 68 c 0
 359.333 68 393.333 76 424 92 c 0
 460 110 481 133 487 161 c 2
EndSplineSet
EndChar

StartChar: A
Encoding: 65 65 34
Width: 678
VWidth: 1504
Flags: HW
LayerCount: 2
Fore
SplineSet
614 0 m 1
 510 0 l 1
 465 239 l 1
 177 239 l 1
 35 0 l 1
 -68 0 l 1
 387 727 l 1
 468 727 l 1
 614 0 l 1
447 320 m 1
 405 618 l 1
 230 320 l 1
 447 320 l 1
EndSplineSet
EndChar

StartChar: B
Encoding: 66 66 35
Width: 595
VWidth: 1504
Flags: HW
LayerCount: 2
Fore
SplineSet
528 208 m 0
 496.667 63.3333 374.667 -9 162 -9 c 0
 116.667 -9 66.3333 -2.33333 11 11 c 1
 158 702 l 1
 223.333 717.333 282 725 334 725 c 0
 517.333 725 595.667 661.667 569 535 c 0
 555.667 471 515 420.667 447 384 c 1
 518.333 346.667 545.333 288 528 208 c 0
474 534 m 0
 489.333 606 436.666 642 316 642 c 0
 294.667 642 269 640.667 239 638 c 1
 193 418 l 1
 299 418 l 2
 343 418 381.167 428.333 413.5 449 c 128
 445.833 469.667 466 498 474 534 c 0
435 206 m 1
 445 254 429.333 289.667 388 313 c 0
 356 330.335 314 338.668 262 338 c 2
 174 338 l 1
 119 77 l 1
 136.333 73.6667 161.333 72 194 72 c 0
 259.333 72 313.333 83.5 356 106.5 c 128
 398.667 129.5 425 162.667 435 206 c 1
EndSplineSet
EndChar

StartChar: C
Encoding: 67 67 36
Width: 649
VWidth: 1504
Flags: HW
LayerCount: 2
Fore
SplineSet
558 38 m 1
 478 6 387.333 -10.3333 286 -11 c 0
 190.667 -11 121.5 23 78.5 91 c 128
 35.5 159 25.3333 247.333 48 356 c 0
 71.3333 464 118 551.334 188 618 c 0
 265.333 690 359.667 726.333 471 727 c 0
 556.333 727 631 712.333 695 683 c 1
 648 608 l 1
 594 633.333 530.333 645.667 457 645 c 0
 365 645 290 611 232 543 c 0
 190 493 160.333 429.667 143 353 c 1
 129 283 134 222 158 170 c 1
 187.333 104 242 71 322 71 c 0
 405.333 71 481 86 549 116 c 1
 558 38 l 1
EndSplineSet
EndChar

StartChar: D
Encoding: 68 68 37
Width: 690
VWidth: 1504
Flags: HW
LayerCount: 2
Fore
SplineSet
663 373 m 0
 639.667 265 595 178.333 529 113 c 0
 449 33.6667 342.333 -6 209 -6 c 0
 167.667 -6 101.667 -1 11 9 c 1
 158 704 l 1
 275.333 717.333 354 724 394 724 c 0
 516.667 724 599.334 687.333 642 614 c 1
 678 554.667 685 474.333 663 373 c 0
567 373 m 0
 605 552.333 540 642 372 642 c 0
 344 642 299.333 639 238 633 c 1
 120 80 l 1
 152 76.6667 193.333 75 244 75 c 0
 341.333 75 419.333 109.667 478 179 c 0
 521.333 230.333 551 295 567 373 c 0
EndSplineSet
EndChar

StartChar: E
Encoding: 69 69 38
Width: 538
VWidth: 1504
Flags: HW
LayerCount: 2
Fore
SplineSet
435 0 m 1
 9 0 l 1
 161 716 l 1
 587 716 l 1
 569 635 l 1
 238 635 l 1
 193 418 l 1
 487 418 l 1
 469 337 l 1
 174 337 l 1
 120 81 l 1
 451 81 l 1
 435 0 l 1
EndSplineSet
EndChar

StartChar: F
Encoding: 70 70 39
Width: 538
VWidth: 1504
Flags: HW
LayerCount: 2
Fore
SplineSet
104 0 m 1
 9 0 l 1
 161 716 l 1
 602 716 l 1
 584 635 l 1
 238 635 l 1
 190 409 l 1
 514 409 l 1
 498 329 l 1
 173 329 l 1
 104 0 l 1
EndSplineSet
EndChar

StartChar: G
Encoding: 71 71 40
Width: 682
VWidth: 1504
Flags: HW
LayerCount: 2
Fore
SplineSet
560 17 m 1
 514 29 l 1
 450 3 374 -10.3333 286 -11 c 0
 190.667 -11 121.5 23 78.5 91 c 128
 35.5 159 25.3333 247.333 48 356 c 0
 71.3333 464 118 551.334 188 618 c 0
 265.333 690 359.667 726.333 471 727 c 0
 556.333 727 631 712.333 695 683 c 1
 648 608 l 1
 594 633.333 530.333 645.667 457 645 c 0
 365 645 290 611 232 543 c 0
 190 493 160.333 429.667 143 353 c 1
 129 283 134 222 158 170 c 1
 187.333 104 242 71 322 71 c 0
 381.333 71 434.333 79 481 95 c 1
 525 298 l 1
 344 298 l 1
 361 378 l 1
 636 378 l 1
 560 17 l 1
EndSplineSet
EndChar

StartChar: H
Encoding: 72 72 41
Width: 709
VWidth: 1504
Flags: HW
LayerCount: 2
Fore
SplineSet
569 0 m 1
 474 0 l 1
 546 340 l 1
 176 340 l 1
 104 0 l 1
 9 0 l 1
 161 716 l 1
 256 716 l 1
 193 421 l 1
 563 421 l 1
 626 716 l 1
 721 716 l 1
 569 0 l 1
EndSplineSet
EndChar

StartChar: I
Encoding: 73 73 42
Width: 245
VWidth: 1504
Flags: HW
LayerCount: 2
Fore
SplineSet
104 0 m 1
 9 0 l 1
 161 716 l 1
 256 716 l 1
 104 0 l 1
EndSplineSet
EndChar

StartChar: J
Encoding: 74 74 43
Width: 424
VWidth: 1504
Flags: HW
LayerCount: 2
Fore
SplineSet
334 241 m 2
 298 71.6667 203.333 -13.3333 50 -14 c 0
 12 -14 -28.3333 -4.33333 -71 15 c 1
 -29 93 l 1
 -5 75.6667 26.6667 67.3333 66 68 c 0
 113.333 68 150.833 82 178.5 110 c 128
 206.167 138 227.334 186.667 242 256 c 2
 340 716 l 1
 435 716 l 1
 334 241 l 2
EndSplineSet
EndChar

StartChar: K
Encoding: 75 75 44
Width: 618
VWidth: 1504
Flags: HW
LayerCount: 2
Fore
SplineSet
567 23 m 1
 469 -11 l 1
 235 344 l 1
 164 287 l 1
 104 0 l 1
 9 0 l 1
 161 716 l 1
 256 716 l 1
 188 400 l 1
 599 728 l 1
 686 704 l 1
 313 408 l 1
 567 23 l 1
EndSplineSet
EndChar

StartChar: L
Encoding: 76 76 45
Width: 540
VWidth: 1504
Flags: HW
LayerCount: 2
Fore
SplineSet
454 0 m 1
 9 0 l 1
 161 716 l 1
 256 716 l 1
 120 81 l 1
 471 81 l 1
 454 0 l 1
EndSplineSet
EndChar

StartChar: M
Encoding: 77 77 46
Width: 863
VWidth: 1504
Flags: HW
LayerCount: 2
Fore
SplineSet
754 0 m 1
 662 0 l 1
 740 555 l 1
 397 0 l 1
 334 0 l 1
 226 555 l 1
 69 0 l 1
 -23 0 l 1
 181 716 l 1
 280 716 l 1
 391 120 l 1
 755 716 l 1
 854 716 l 1
 754 0 l 1
EndSplineSet
EndChar

StartChar: N
Encoding: 78 78 47
Width: 709
VWidth: 1504
Flags: HW
LayerCount: 2
Fore
SplineSet
569 0 m 1
 478 0 l 1
 227 581 l 1
 104 0 l 1
 9 0 l 1
 161 716 l 1
 256 716 l 1
 505 150 l 1
 626 716 l 1
 721 716 l 1
 569 0 l 1
EndSplineSet
EndChar

StartChar: O
Encoding: 79 79 48
Width: 779
VWidth: 1504
Flags: HW
LayerCount: 2
Fore
SplineSet
656 358 m 0
 674 440 665.167 508.833 629.5 564.5 c 128
 593.833 620.167 537.333 648 460 648 c 256
 382.667 648 314.667 620.167 256 564.5 c 128
 197.333 508.833 159 440 141 358 c 0
 123.667 276 132.667 207.167 168 151.5 c 128
 203.333 95.8333 259.667 68 337 68 c 256
 414.333 68 482.5 95.8334 541.5 151.5 c 128
 600.5 207.167 638.667 276 656 358 c 0
749 356 m 256
 727 250.667 675.667 162.5 595 91.5 c 128
 514.333 20.5 422.333 -15 319 -15 c 256
 215.667 -15 139.167 20.6667 89.5 92 c 128
 39.8333 163.333 26 251.333 48 356 c 256
 70 461.333 121.333 550 202 622 c 128
 282.667 694 374.667 730 478 730 c 256
 581.333 730 657.833 694 707.5 622 c 128
 757.167 550 771 461.333 749 356 c 256
EndSplineSet
EndChar

StartChar: P
Encoding: 80 80 49
Width: 586
VWidth: 1504
Flags: HW
LayerCount: 2
Fore
SplineSet
591 510 m 0
 575.666 440.667 535.832 384.667 471.5 342 c 128
 407.167 299.333 329.333 278 238 278 c 0
 214.666 278 189.333 279.667 162 283 c 1
 104 0 l 1
 9 0 l 1
 158 705 l 1
 233.333 717 298.333 723.333 353 724 c 0
 441 724 506 704.167 548 664.5 c 128
 590 624.833 604.333 573.333 591 510 c 0
495 505 m 0
 514.333 596.333 460.667 642 334 642 c 0
 300 642 268.333 640.667 239 638 c 1
 182 369 l 1
 214 363 241.667 360 265 360 c 0
 397 359.333 473.667 407.667 495 505 c 0
EndSplineSet
EndChar

StartChar: Q
Encoding: 81 81 50
Width: 779
VWidth: 1504
Flags: HW
LayerCount: 2
Fore
SplineSet
656 358 m 0
 674 440 665.167 508.833 629.5 564.5 c 128
 593.833 620.167 537.333 648 460 648 c 256
 382.667 648 314.667 620.167 256 564.5 c 128
 197.333 508.833 159 440 141 358 c 0
 123.667 276 132.667 207.167 168 151.5 c 128
 203.333 95.8333 259.667 68 337 68 c 256
 414.333 68 482.5 95.8334 541.5 151.5 c 128
 600.5 207.167 638.667 276 656 358 c 0
749 356 m 0
 731.667 276 698 206.667 648 148 c 128
 598 89.3333 537.333 48.6667 466 26 c 1
 465 20 l 1
 541 0 610.667 -15.3333 674 -26 c 1
 626 -107 l 1
 554.667 -87 465.333 -58.3333 358 -21 c 0
 352.667 -19 339.667 -17 319 -15 c 1
 215.667 -15 139.167 20.6667 89.5 92 c 128
 39.8333 163.333 26 251.333 48 356 c 256
 70 461.333 121.333 550 202 622 c 128
 282.667 694 374.667 730 478 730 c 256
 581.333 730 657.833 694 707.5 622 c 128
 757.167 550 771 461.333 749 356 c 0
EndSplineSet
EndChar

StartChar: R
Encoding: 82 82 51
Width: 594
VWidth: 1504
Flags: HW
LayerCount: 2
Fore
SplineSet
505 0 m 1
 411 0 l 1
 427 207.333 386.333 311 289 311 c 2
 168 311 l 1
 104 0 l 1
 9 0 l 1
 158 704 l 1
 233.333 717.333 299.333 724 356 724 c 0
 441.334 724 505.167 705.833 547.5 669.5 c 128
 589.833 633.167 604.333 584 591 522 c 0
 573.667 440 522 380.667 436 344 c 1
 468 318.667 489 282 499 234 c 128
 509 186 511 108 505 0 c 1
498 516 m 1
 516 599.333 462.667 641 338 641 c 0
 298 641 264.667 639.333 238 636 c 1
 187 390 l 1
 302 390 l 2
 415.333 390 480.667 432 498 516 c 1
EndSplineSet
EndChar

StartChar: S
Encoding: 83 83 52
Width: 549
VWidth: 1504
Flags: HW
LayerCount: 2
Fore
SplineSet
484 196 m 0
 470.667 134 435.333 83.5 378 44.5 c 128
 320.667 5.5 255 -14 181 -14 c 0
 101.667 -14 32.6667 7.66667 -26 51 c 1
 32 137 l 1
 80 93.6666 137.667 72 205 72 c 0
 254.333 72 295.167 82.8333 327.5 104.5 c 128
 359.834 126.167 379.667 155 387 191 c 0
 400.333 251 362 296.667 272 328 c 0
 139.333 373.333 83.3333 442.333 104 535 c 0
 116 591 148.333 637.5 201 674.5 c 128
 253.667 711.5 315.667 730 387 730 c 256
 458.334 730 516.334 713.667 561 681 c 1
 504 606 l 1
 458.667 631.333 412.667 644 366 644 c 0
 322.667 644 285.667 634.167 255 614.5 c 128
 224.333 594.833 206 571 200 543 c 0
 188.667 487.667 227.667 444.667 317 414 c 0
 390.333 388.667 439.5 359.5 464.5 326.5 c 128
 489.5 293.5 496 250 484 196 c 0
EndSplineSet
EndChar

StartChar: T
Encoding: 84 84 53
Width: 633
VWidth: 1504
Flags: HW
LayerCount: 2
Fore
SplineSet
299 0 m 1
 205 0 l 1
 338 635 l 1
 74 635 l 1
 92 716 l 1
 713 716 l 1
 695 635 l 1
 433 635 l 1
 299 0 l 1
EndSplineSet
EndChar

StartChar: U
Encoding: 85 85 54
Width: 725
VWidth: 1504
Flags: HW
LayerCount: 2
Fore
SplineSet
648 305 m 2
 602.666 92.3333 484.333 -14 293 -14 c 256
 101.667 -14 28.6667 92.3333 74 305 c 2
 161 716 l 1
 257 716 l 1
 170 305 l 2
 136 146.333 182.667 67.3333 310 68 c 256
 437.333 68 518 147 552 305 c 2
 639 716 l 1
 736 716 l 1
 648 305 l 2
EndSplineSet
EndChar

StartChar: V
Encoding: 86 86 55
Width: 634
VWidth: 1504
Flags: HW
LayerCount: 2
Fore
SplineSet
295 0 m 1
 208 0 l 1
 84 716 l 1
 187 716 l 1
 278 129 l 1
 620 716 l 1
 722 716 l 1
 295 0 l 1
EndSplineSet
EndChar

StartChar: W
Encoding: 87 87 56
Width: 920
VWidth: 1504
Flags: HW
LayerCount: 2
Fore
SplineSet
662 0 m 1
 575 0 l 1
 517 585 l 1
 214 0 l 1
 126 0 l 1
 80 716 l 1
 184 716 l 1
 202 144 l 1
 501 716 l 1
 591 716 l 1
 647 144 l 1
 909 716 l 1
 1012 716 l 1
 662 0 l 1
EndSplineSet
EndChar

StartChar: X
Encoding: 88 88 57
Width: 640
VWidth: 1504
Flags: HW
LayerCount: 2
Fore
SplineSet
578 0 m 1
 465 0 l 1
 319 290 l 1
 47 0 l 1
 -68 0 l 1
 275 367 l 1
 95 716 l 1
 211 716 l 1
 349 436 l 1
 603 716 l 1
 721 716 l 1
 390 367 l 1
 578 0 l 1
EndSplineSet
EndChar

StartChar: Y
Encoding: 89 89 58
Width: 595
VWidth: 1504
Flags: HW
LayerCount: 2
Fore
SplineSet
280 0 m 1
 187 0 l 1
 253 313 l 1
 77 716 l 1
 187 716 l 1
 316 394 l 1
 582 716 l 1
 690 716 l 1
 346 314 l 1
 280 0 l 1
EndSplineSet
EndChar

StartChar: Z
Encoding: 90 90 59
Width: 678
VWidth: 1504
Flags: HW
LayerCount: 2
Fore
SplineSet
575 0 m 1
 -26 0 l 1
 -12 60 l 1
 573 635 l 1
 132 635 l 1
 167 716 l 1
 722 716 l 1
 708 654 l 1
 122 81 l 1
 609 81 l 1
 575 0 l 1
EndSplineSet
EndChar

StartChar: bracketleft
Encoding: 91 91 60
Width: 351
VWidth: 1504
Flags: HW
LayerCount: 2
Fore
SplineSet
215 -116 m 1
 -21 -116 l 1
 171 794 l 1
 409 794 l 1
 393 716 l 1
 244 716 l 1
 83 -39 l 1
 232 -39 l 1
 215 -116 l 1
EndSplineSet
EndChar

StartChar: backslash
Encoding: 92 92 61
Width: 403
VWidth: 1504
Flags: HW
LayerCount: 2
Fore
SplineSet
379 -41 m 1
 283 -41 l 1
 54 727 l 1
 152 727 l 1
 379 -41 l 1
EndSplineSet
EndChar

StartChar: bracketright
Encoding: 93 93 62
Width: 351
VWidth: 1504
Flags: HW
LayerCount: 2
Fore
SplineSet
191 -116 m 1
 -45 -116 l 1
 -29 -39 l 1
 119 -39 l 1
 280 716 l 1
 131 716 l 1
 147 794 l 1
 385 794 l 1
 191 -116 l 1
EndSplineSet
EndChar

StartChar: asciicircum
Encoding: 94 94 63
Width: 628
VWidth: 1504
Flags: HW
LayerCount: 2
Fore
SplineSet
575 229 m 1
 477 229 l 1
 384 609 l 1
 128 229 l 1
 30 229 l 1
 370 722 l 1
 447 722 l 1
 575 229 l 1
EndSplineSet
EndChar

StartChar: underscore
Encoding: 95 95 64
Width: 565
VWidth: 1504
Flags: HW
LayerCount: 2
Fore
SplineSet
442 -263 m 1
 -122 -263 l 1
 -104 -184 l 1
 460 -184 l 1
 442 -263 l 1
EndSplineSet
EndChar

StartChar: grave
Encoding: 96 96 65
Width: 315
VWidth: 1504
Flags: HW
LayerCount: 2
Fore
SplineSet
302 564 m 1
 230 564 l 1
 135 710 l 1
 227 737 l 1
 302 564 l 1
EndSplineSet
EndChar

StartChar: a
Encoding: 97 97 66
Width: 648
VWidth: 1504
Flags: HW
LayerCount: 2
Fore
SplineSet
551 6 m 1
 456 -12 l 1
 444 4 436.333 33 433 75 c 1
 383.667 15.6667 318.667 -14 238 -14 c 0
 174.667 -14 122.667 5.16667 82 43.5 c 128
 41.3333 81.8333 21 132.667 21 196 c 0
 21 286 51.8333 364.333 113.5 431 c 128
 175.167 497.667 251 531 341 531 c 0
 452.333 531 537.667 499.333 597 436 c 1
 534 137 l 1
 526 89 531.667 45.3333 551 6 c 1
457 214 m 2
 495 394 l 1
 455.667 433.333 401.333 453 332 453 c 0
 272.667 453 221.333 428.667 178 380 c 128
 134.667 331.333 113 274.333 113 209 c 0
 113 115.667 161 69 257 69 c 0
 304.333 69 347.5 83.3333 386.5 112 c 128
 425.5 140.667 449 174.667 457 214 c 2
EndSplineSet
Substitution2: "Single Substitution lookup 58 subtable" uni0E38
EndChar

StartChar: b
Encoding: 98 98 67
Width: 654
VWidth: 1504
Flags: HW
LayerCount: 2
Fore
SplineSet
611 323 m 0
 611 233 579.333 154.667 516 88 c 128
 452.667 21.3333 377.333 -12 290 -12 c 0
 132.667 -12 54 44 54 156 c 0
 54 172 56 189.667 60 209 c 2
 171 734 l 1
 266 734 l 1
 211 471 l 1
 264.333 512.333 325.333 532.667 394 532 c 0
 458 532 510.167 512.667 550.5 474 c 128
 590.833 435.333 611 385 611 323 c 0
519 310 m 0
 519 403.333 471 450 375 450 c 0
 329.667 450 286.5 436.667 245.5 410 c 128
 204.5 383.333 180.667 348.333 174 305 c 1
 149 196 l 2
 145.667 182.667 144 170 144 158 c 0
 144 132 157.667 110.167 185 92.5 c 128
 212.333 74.8333 250.333 66 299 66 c 0
 358.333 66 409.833 90.6667 453.5 140 c 128
 497.167 189.333 519 246 519 310 c 0
EndSplineSet
Substitution2: "Single Substitution lookup 58 subtable" uni0E39
EndChar

StartChar: c
Encoding: 99 99 68
Width: 521
VWidth: 1504
Flags: HW
LayerCount: 2
Fore
SplineSet
424 32 m 1
 370 2 308.333 -13.3333 239 -14 c 0
 157.667 -14 97.8333 11.3333 59.5 62 c 128
 21.1667 112.667 10.3333 178.333 27 259 c 0
 44.3333 340.333 83 406 143 456 c 128
 203 506 273.667 531 355 531 c 0
 423 531 478 516 520 486 c 1
 471 408 l 1
 429.667 437.335 384 451.668 334 451 c 0
 282.667 451 237.667 433.167 199 397.5 c 128
 160.333 361.833 135 315.666 123 259 c 0
 111 201 116.833 154.333 140.5 119 c 128
 164.167 83.6666 201.667 66 253 66 c 0
 303 66 354.667 80.6667 408 110 c 1
 424 32 l 1
EndSplineSet
Substitution2: "Single Substitution lookup 58 subtable" uni0E3A
EndChar

StartChar: d
Encoding: 100 100 69
Width: 654
VWidth: 1504
Flags: HW
LayerCount: 2
Fore
SplineSet
535 137 m 1
 529.671 91 535.337 47.3333 552 6 c 1
 457 -12 l 1
 445 4 437.667 33 435 75 c 1
 375 15.6667 307.667 -14 233 -14 c 256
 159 -14 102.167 12.3333 62.5 65 c 128
 22.8333 117.667 11.6667 184.667 29 266 c 0
 45 341.333 82.8333 404.333 142.5 455 c 128
 202.167 505.667 268.333 531 341 531 c 0
 416.333 531 472.667 507.333 510 460 c 1
 573 758 l 1
 668 758 l 1
 535 137 l 1
453 194 m 2
 477 311 l 1
 486.333 349 475.166 382.167 443.5 410.5 c 128
 411.833 438.833 374.666 453 332 453 c 0
 280 453 235 435.333 197 400 c 128
 159 364.667 134 320 122 266 c 0
 108.667 204.667 113.833 156.5 137.5 121.5 c 128
 161.167 86.5 201 69 257 69 c 0
 307 69 350.167 80.3333 386.5 103 c 128
 422.833 125.667 445 156 453 194 c 2
EndSplineSet
EndChar

StartChar: e
Encoding: 101 101 70
Width: 588
VWidth: 1504
Flags: HW
LayerCount: 2
Fore
SplineSet
545 370 m 0
 545 318.667 518.333 279.667 465 253 c 0
 419.667 229.667 363.333 218 296 218 c 0
 234.667 218 174.667 222 116 230 c 1
 114.667 224 114 218 114 212 c 0
 114 166.667 128.667 131.833 158 107.5 c 128
 187.333 83.1667 225.333 71 272 71 c 0
 326 71 393.333 84 474 110 c 1
 466 27 l 1
 388 -0.333334 316 -14 250 -14 c 0
 180.667 -14 124.667 3.83333 82 39.5 c 128
 39.3333 75.1667 18 123.667 18 185 c 0
 18 281 52.1667 362.667 120.5 430 c 128
 188.833 497.333 268.667 531 360 531 c 0
 483.333 531 545 477.333 545 370 c 0
463 372 m 0
 463 426 424 453 346 453 c 0
 304.667 453 262.667 438 220 408 c 128
 177.333 378 148 341.333 132 298 c 1
 160 290.667 208.333 287 277 287 c 0
 401 287.667 463 316 463 372 c 0
EndSplineSet
EndChar

StartChar: f
Encoding: 102 102 71
Width: 382
VWidth: 1504
Flags: HW
LayerCount: 2
Fore
SplineSet
146 32 m 2
 108.667 -139.333 23.3333 -225.333 -110 -226 c 0
 -152 -226 -185 -215 -209 -193 c 1
 -167 -122 l 1
 -135.667 -137.333 -110 -144.666 -90 -144 c 0
 -20.6667 -144 26.3333 -85.3333 51 32 c 2
 137 433 l 1
 51 433 l 1
 68 511 l 1
 155 511 l 1
 191 682.333 275.667 768.333 409 769 c 0
 451 769 484 758 508 736 c 1
 466 665 l 1
 434.667 680.333 409.333 687.667 390 687 c 0
 320.667 687 273.333 628.333 248 511 c 1
 394 511 l 1
 378 433 l 1
 232 433 l 1
 146 32 l 2
EndSplineSet
EndChar

StartChar: g
Encoding: 103 103 72
Width: 499
VWidth: 1504
Flags: HW
LayerCount: 2
Fore
SplineSet
358 -68 m 0
 348 -115.333 323 -153.5 283 -182.5 c 128
 243 -211.5 190.333 -226 125 -226 c 0
 71 -226 19.3333 -208.667 -30 -174 c 1
 17 -99 l 1
 64.3333 -130.333 107.667 -146 147 -146 c 0
 178.333 -146 205.833 -138.667 229.5 -124 c 128
 253.167 -109.333 267 -92 271 -72 c 0
 278.333 -42 256.333 -15.3333 205 8 c 0
 165.667 25.3333 128.667 44.3333 94 65 c 128
 59.3333 85.6667 45.6667 113 53 147 c 0
 57 163 66 183.667 80 209 c 1
 52 248.333 43 290 53 334 c 1
 64.3333 389.333 92.1667 434.5 136.5 469.5 c 128
 180.833 504.5 229 522 281 522 c 2
 498 522 l 1
 484 457 l 1
 409 457 l 1
 440.333 433.667 451.333 396 442 344 c 1
 430 284.667 404 237.833 364 203.5 c 128
 324 169.167 273.333 152 212 152 c 0
 190 152 169 155.333 149 162 c 1
 143 156.666 139.333 150.333 138 143 c 0
 134.667 127.667 167 110 235 90 c 0
 333 60.6667 374 8 358 -68 c 0
361 337 m 256
 367 367 361.5 392.5 344.5 413.5 c 128
 327.5 434.5 304 445 274 445 c 256
 244 445 215.833 434.5 189.5 413.5 c 128
 163.167 392.5 147 367 141 337 c 256
 135 307 140.667 281.667 158 261 c 128
 175.333 240.333 199 230 229 230 c 0
 265 230 294.5 240.333 317.5 261 c 128
 340.5 281.667 355 307 361 337 c 256
EndSplineSet
EndChar

StartChar: h
Encoding: 104 104 73
Width: 636
VWidth: 1504
Flags: HW
LayerCount: 2
Fore
SplineSet
555 289 m 2
 520 119 l 2
 516 99 514 84 514 74 c 0
 514 56.6667 519.667 35.6667 531 11 c 1
 441 -23 l 1
 425 0.333334 417 27 417 57 c 0
 417 74.3334 420.333 99.3334 427 132 c 2
 460 287 l 2
 463.333 301 465 315.667 465 331 c 0
 465 365 455.5 392.333 436.5 413 c 128
 417.5 433.667 390.667 444 356 444 c 0
 316 444 276.5 429.167 237.5 399.5 c 128
 198.5 369.833 175 336.333 167 299 c 2
 104 0 l 1
 9 0 l 1
 170 758 l 1
 265 758 l 1
 200 456 l 1
 255.333 502 318 525 388 525 c 0
 504 525 562.333 469.333 563 358 c 0
 563 337.333 560.333 314.333 555 289 c 2
EndSplineSet
EndChar

StartChar: i
Encoding: 105 105 74
Width: 245
VWidth: 1504
Flags: HW
LayerCount: 2
Fore
SplineSet
104 0 m 1
 9 0 l 1
 117 511 l 1
 212 511 l 1
 104 0 l 1
266 662 m 256
 262 642 251.5 625 234.5 611 c 128
 217.5 597 199 590 179 590 c 256
 159 590 143.5 597 132.5 611 c 128
 121.5 625 118 642 122 662 c 256
 126 682 136.5 699 153.5 713 c 128
 170.5 727 189 734 209 734 c 256
 229 734 244.5 727 255.5 713 c 128
 266.5 699 270 682 266 662 c 256
EndSplineSet
EndChar

StartChar: j
Encoding: 106 106 75
Width: 257
VWidth: 1504
Flags: HW
LayerCount: 2
Fore
SplineSet
120 27 m 2
 86.6667 -128.333 -10.3333 -208 -171 -212 c 1
 -167 -135 l 1
 -97.6667 -129.667 -51 -114.667 -27 -90 c 128
 -3 -65.3333 17.6667 -13.3333 35 66 c 2
 129 511 l 1
 224 511 l 1
 120 27 l 2
280 662 m 256
 276 642 265.5 625 248.5 611 c 128
 231.5 597 213 590 193 590 c 256
 173 590 157.333 597 146 611 c 128
 134.667 625 131 642 135 662 c 256
 139 682 149.667 699 167 713 c 128
 184.333 727 203 734 223 734 c 256
 243 734 258.5 727 269.5 713 c 128
 280.5 699 284 682 280 662 c 256
EndSplineSet
EndChar

StartChar: k
Encoding: 107 107 76
Width: 511
VWidth: 1504
Flags: HW
LayerCount: 2
Fore
SplineSet
474 9 m 1
 370 -15 l 1
 191 247 l 1
 149 217 l 1
 104 0 l 1
 9 0 l 1
 170 758 l 1
 265 758 l 1
 173 326 l 1
 442 522 l 1
 543 504 l 1
 269 301 l 1
 474 9 l 1
EndSplineSet
EndChar

StartChar: l
Encoding: 108 108 77
Width: 320
VWidth: 1504
Flags: HW
LayerCount: 2
Fore
SplineSet
230 -12 m 1
 82.6667 -4 27.6667 87.6667 65 263 c 2
 170 758 l 1
 265 758 l 1
 164 284 l 2
 146.667 206.667 147 152 165 120 c 0
 180.333 92.6667 211.667 77.3333 259 74 c 1
 230 -12 l 1
EndSplineSet
EndChar

StartChar: m
Encoding: 109 109 78
Width: 956
VWidth: 1504
Flags: HW
LayerCount: 2
Fore
SplineSet
839 114 m 1
 835 88.6667 834 68.3333 836 53 c 128
 838 37.6667 843 23.6667 851 11 c 1
 761 -23 l 1
 751.661 -9.66667 745.328 10.8333 742 38.5 c 128
 738.667 66.1667 740.667 97.3333 748 132 c 2
 779 283 l 2
 789 329 787 367 773 397 c 1
 755.667 430.333 727.667 447 689 447 c 0
 655.667 447 622 434 588 408 c 128
 554 382 533.333 353.667 526 323 c 2
 459 0 l 1
 364 0 l 1
 429 308 l 2
 449 400 420.333 446.333 343 447 c 0
 309 447 273.167 431.667 235.5 401 c 128
 197.833 370.333 175.333 338.333 168 305 c 2
 104 0 l 1
 9 0 l 1
 89 376 l 2
 94.3333 401.333 98.3333 423.333 101 442 c 0
 104.333 463.333 101.333 485.333 92 508 c 1
 174 525 l 1
 187.333 501 191.667 472.333 187 439 c 1
 209 469 237.5 491 272.5 505 c 128
 307.5 519 340.667 526 372 526 c 0
 438 526 485 498 513 442 c 1
 578.333 498 648.667 526 724 526 c 0
 783.333 526 827.167 503.833 855.5 459.5 c 128
 883.833 415.167 890.333 356.667 875 284 c 2
 839 114 l 1
EndSplineSet
EndChar

StartChar: n
Encoding: 110 110 79
Width: 636
VWidth: 1504
Flags: HW
LayerCount: 2
Fore
SplineSet
519 114 m 1
 515.667 88.6667 515 68.3333 517 53 c 128
 519 37.6667 524 23.6667 532 11 c 1
 442 -23 l 1
 432.667 -9.66667 426.333 10.8333 423 38.5 c 128
 419.667 66.1667 421.667 97.3333 429 132 c 2
 462 290 l 2
 484 394 447.333 446.333 352 447 c 0
 316.667 447 278.667 431.167 238 399.5 c 128
 197.333 367.833 174 336.333 168 305 c 2
 104 0 l 1
 9 0 l 1
 89 376 l 2
 94.3333 401.333 98.3333 423.333 101 442 c 0
 104.333 463.333 101.333 485.333 92 508 c 1
 174 525 l 1
 187.333 501 191.667 472.333 187 439 c 1
 249 497 314 526 382 526 c 256
 450 526 499.833 505 531.5 463 c 128
 563.167 421 571.667 363.333 557 290 c 2
 519 114 l 1
EndSplineSet
EndChar

StartChar: o
Encoding: 111 111 80
Width: 619
VWidth: 1504
Flags: HW
LayerCount: 2
Fore
SplineSet
569 259 m 256
 553 183 513.833 118.833 451.5 66.5 c 128
 389.167 14.1667 319 -12 241 -12 c 256
 163 -12 103.833 14 63.5 66 c 128
 23.1667 118 11 182.333 27 259 c 256
 43 335 82.3333 399.333 145 452 c 128
 207.667 504.667 278 531 356 531 c 256
 434 531 493 504.667 533 452 c 128
 573 399.333 585 335 569 259 c 256
475 259 m 0
 487 313 480.333 358.333 455 395 c 128
 429.667 431.667 390.667 450 338 450 c 256
 286 450 239.667 431.667 199 395 c 128
 158.333 358.333 132 313 120 259 c 0
 108.667 205 115.667 159.667 141 123 c 128
 166.333 86.3333 205 68 257 68 c 256
 309 68 355.5 86.3334 396.5 123 c 128
 437.5 159.667 463.667 205 475 259 c 0
EndSplineSet
EndChar

StartChar: p
Encoding: 112 112 81
Width: 648
VWidth: 1504
Flags: HW
LayerCount: 2
Fore
SplineSet
507 268 m 0
 518.333 320 511.333 363.833 486 399.5 c 128
 460.667 435.167 423 453 373 453 c 0
 333 453 290.667 436.833 246 404.5 c 128
 201.333 372.167 175 336.667 167 298 c 2
 149 214 l 2
 139.667 174.667 148.333 140.667 175 112 c 128
 201.667 83.3333 238.667 69 286 69 c 0
 342 69 389.5 86.8334 428.5 122.5 c 128
 467.5 158.167 493.667 206.667 507 268 c 0
600 269 m 1
 582 185.667 542 117.667 480 65 c 128
 418 12.3333 348.667 -14 272 -14 c 0
 202 -14 149 6.66667 113 48 c 1
 57 -215 l 1
 -36 -215 l 1
 101 438 l 1
 104.333 462 101.333 485.333 92 508 c 1
 174 525 l 1
 187.333 501 191.667 472.333 187 439 c 1
 248.333 500.333 319.333 531 400 531 c 0
 474 531 529.667 505.833 567 455.5 c 128
 604.333 405.167 615.333 343 600 269 c 1
EndSplineSet
EndChar

StartChar: q
Encoding: 113 113 82
Width: 648
VWidth: 1504
Flags: HW
LayerCount: 2
Fore
SplineSet
460 -215 m 1
 366 -215 l 1
 421 48 l 1
 367.667 6.66667 306.667 -14 238 -14 c 0
 174.667 -14 122.667 5.16667 82 43.5 c 128
 41.3333 81.8333 21 132.667 21 196 c 0
 21 286 51.8333 364.333 113.5 431 c 128
 175.167 497.667 251 531 341 531 c 0
 452.333 531 537.667 499.333 597 436 c 1
 460 -215 l 1
457 214 m 2
 495 394 l 1
 455.667 433.333 401.333 453 332 453 c 0
 272.667 453 221.333 428.667 178 380 c 128
 134.667 331.333 113 274.333 113 209 c 0
 113 115.667 161 69 257 69 c 0
 304.333 69 347.5 83.3333 386.5 112 c 128
 425.5 140.667 449 174.667 457 214 c 2
EndSplineSet
EndChar

StartChar: r
Encoding: 114 114 83
Width: 370
VWidth: 1504
Flags: HW
LayerCount: 2
Fore
SplineSet
375 441 m 1
 367 443 355.333 444 340 444 c 0
 244.667 444 185 386.667 161 272 c 2
 104 0 l 1
 9 0 l 1
 80 338 l 2
 88 374 94 408.667 98 442 c 0
 101.333 463.333 98.3333 485.333 89 508 c 1
 171 525 l 1
 184.333 501 186 469.333 176 430 c 1
 196 460 222 483.5 254 500.5 c 128
 286 517.5 316 526 344 526 c 0
 364 526 379.667 524.667 391 522 c 1
 375 441 l 1
EndSplineSet
EndChar

StartChar: s
Encoding: 115 115 84
Width: 445
VWidth: 1504
Flags: HW
LayerCount: 2
Fore
SplineSet
372 146 m 0
 362 98.6666 335.667 60.1666 293 30.5 c 128
 250.333 0.833334 197.667 -14 135 -14 c 0
 83.6667 -14 32.6667 2.66667 -18 36 c 1
 33 111 l 1
 68.3333 83 109.333 69 156 69 c 0
 226 69 266.333 93 277 141 c 0
 285 178.333 257.333 207.667 194 229 c 0
 100 260.333 60 308 74 372 c 0
 83.3333 415.334 108 451.667 148 481 c 128
 188 510.333 236.333 525 293 525 c 0
 351 525 397.333 510.333 432 481 c 1
 382 412 l 1
 352 438 315 451 271 451 c 0
 245 451 221.833 444.333 201.5 431 c 128
 181.167 417.667 168.667 400.333 164 379 c 0
 158.667 353 189.667 327.333 257 302 c 0
 349 268 387.333 216 372 146 c 0
EndSplineSet
EndChar

StartChar: t
Encoding: 116 116 85
Width: 388
VWidth: 1504
Flags: HW
LayerCount: 2
Fore
SplineSet
299 8 m 1
 263 -6 228.667 -13.3333 196 -14 c 0
 150 -14 116.833 1.66667 96.5 33 c 128
 76.1667 64.3333 71.6667 107 83 161 c 2
 141 433 l 1
 39 433 l 1
 56 511 l 1
 158 511 l 1
 188 651 l 1
 290 692 l 1
 253 511 l 1
 417 511 l 1
 400 433 l 1
 236 433 l 1
 177 162 l 2
 163.667 100.667 177 70.3333 217 71 c 0
 242.333 71 271.667 76.3333 305 87 c 1
 299 8 l 1
EndSplineSet
EndChar

StartChar: u
Encoding: 117 117 86
Width: 628
VWidth: 1504
Flags: HW
LayerCount: 2
Fore
SplineSet
532 6 m 1
 438 -12 l 1
 426 4 418.333 33 415 75 c 1
 341.667 15.6667 276 -14 218 -14 c 0
 104 -14 47 38.6667 47 144 c 0
 47 170 50.3333 199.333 57 232 c 2
 93 399 l 2
 96.3333 413 98 427.333 98 442 c 0
 98 464 95 486 89 508 c 1
 179 526 l 1
 188.333 498.667 193 471.667 193 445 c 0
 193 425.667 191 406.667 187 388 c 2
 155 241 l 2
 149 213 146 190.333 146 173 c 0
 146 105 179.667 71 247 71 c 0
 284.334 71 323.167 85.1667 363.5 113.5 c 128
 403.833 141.833 428 173.667 436 209 c 2
 501 511 l 1
 596 511 l 1
 516 137 l 2
 514 127.667 513 117 513 105 c 0
 512.333 75 518.667 42 532 6 c 1
EndSplineSet
EndChar

StartChar: v
Encoding: 118 118 87
Width: 538
VWidth: 1504
Flags: HW
LayerCount: 2
Fore
SplineSet
241 0 m 1
 165 0 l 1
 36 511 l 1
 135 511 l 1
 227 117 l 1
 487 511 l 1
 587 511 l 1
 241 0 l 1
EndSplineSet
EndChar

StartChar: w
Encoding: 119 119 88
Width: 722
VWidth: 1504
Flags: HW
LayerCount: 2
Fore
SplineSet
534 0 m 1
 454 0 l 1
 382 411 l 1
 135 0 l 1
 56 0 l 1
 36 511 l 1
 134 511 l 1
 128 125 l 1
 364 511 l 1
 442 511 l 1
 513 125 l 1
 672 511 l 1
 770 511 l 1
 534 0 l 1
EndSplineSet
EndChar

StartChar: x
Encoding: 120 120 89
Width: 524
VWidth: 1504
Flags: HW
LayerCount: 2
Fore
SplineSet
475 0 m 1
 360 0 l 1
 236 197 l 1
 33 0 l 1
 -83 0 l 1
 194 262 l 1
 39 511 l 1
 153 511 l 1
 266 331 l 1
 456 511 l 1
 570 511 l 1
 307 262 l 1
 475 0 l 1
EndSplineSet
EndChar

StartChar: y
Encoding: 121 121 90
Width: 543
VWidth: 1504
Flags: HW
LayerCount: 2
Fore
SplineSet
248 11 m 2
 156.667 -122.333 52 -201.667 -66 -227 c 1
 -74 -149 l 1
 19.3333 -129 98 -66.6667 162 38 c 1
 36 511 l 1
 140 511 l 1
 236 132 l 1
 486 511 l 1
 590 511 l 1
 248 11 l 2
EndSplineSet
EndChar

StartChar: z
Encoding: 122 122 91
Width: 538
VWidth: 1504
Flags: HW
LayerCount: 2
Fore
SplineSet
430 0 m 1
 -36 0 l 1
 -23 57 l 1
 396 432 l 1
 71 432 l 1
 105 511 l 1
 542 511 l 1
 528 450 l 1
 111 80 l 1
 460 80 l 1
 430 0 l 1
EndSplineSet
EndChar

StartChar: braceleft
Encoding: 123 123 92
Width: 383
VWidth: 1504
Flags: HW
LayerCount: 2
Fore
SplineSet
238 -132 m 1
 203 -132 l 2
 82.3333 -132 32.6667 -81 54 21 c 0
 59.3333 41 70.1667 73.3333 86.5 118 c 128
 102.833 162.667 112.667 194 116 212 c 0
 124 248 97.3333 267 36 269 c 1
 53 347 l 1
 115 349 149.333 367.667 156 403 c 0
 161.333 424.333 165.167 457.333 167.5 502 c 128
 169.833 546.667 173 578 177 596 c 0
 198.333 698 269.333 749 390 749 c 2
 424 749 l 1
 408 671 l 1
 369 671 l 2
 313.667 671 279 645 265 593 c 1
 261 507.667 255 446 247 408 c 0
 241.666 386 230.833 365.167 214.5 345.5 c 128
 198.167 325.833 180.667 313.333 162 308 c 1
 200 290.667 214.333 257.333 205 208 c 0
 197 170.667 176.667 109.333 144 24 c 1
 134.667 -29.3333 158.333 -56 215 -56 c 2
 254 -56 l 1
 238 -132 l 1
EndSplineSet
EndChar

StartChar: bar
Encoding: 124 124 93
Width: 266
VWidth: 1504
Flags: HW
LayerCount: 2
Fore
SplineSet
56 -250 m 1
 -29 -250 l 1
 191 791 l 1
 277 791 l 1
 56 -250 l 1
EndSplineSet
EndChar

StartChar: braceright
Encoding: 125 125 94
Width: 383
VWidth: 1504
Flags: HW
LayerCount: 2
Fore
SplineSet
334 269 m 1
 270.667 267 235 248 227 212 c 0
 223.666 194 220.832 162.667 218.5 118 c 128
 216.167 73.3333 212.667 41 208 21 c 0
 186.667 -81 116.333 -132 -3 -132 c 2
 -38 -132 l 1
 -21 -56 l 1
 17 -56 l 2
 75 -56 109 -31.3333 119 18 c 0
 124.333 41.3333 127.833 73.6667 129.5 115 c 128
 131.167 156.333 134 187.333 138 208 c 0
 148 258 176.333 291.333 223 308 c 1
 207 313.333 194.667 325.833 186 345.5 c 128
 177.333 365.167 175.667 386 181 408 c 256
 186.333 430 196.833 462 212.5 504 c 128
 228.167 546 238 577.667 242 599 c 0
 252 647 228 671 170 671 c 2
 131 671 l 1
 147 749 l 1
 182 749 l 2
 302.667 749 352.333 698 331 596 c 0
 327 578 316.667 546.667 300 502 c 128
 283.332 457.333 272.666 424.333 268 403 c 0
 260.667 367.667 288 349 350 347 c 1
 334 269 l 1
EndSplineSet
EndChar

StartChar: asciitilde
Encoding: 126 126 95
Width: 634
VWidth: 1504
Flags: HW
LayerCount: 2
Fore
SplineSet
624 366 m 1
 614 320 593.667 283.667 563 257 c 128
 532.333 230.333 497 217 457 217 c 0
 433 217 383.5 232.5 308.5 263.5 c 128
 233.5 294.5 187.333 310 170 310 c 0
 134.667 310 109.667 279 95 217 c 1
 12 217 l 1
 18 245 l 2
 27.3333 289 48.1667 324.167 80.5 350.5 c 128
 112.833 376.833 148.667 390 188 390 c 0
 215.333 390 265.833 375.167 339.5 345.5 c 128
 413.167 315.833 459.333 301 478 301 c 0
 509.333 301 533 330.667 549 390 c 1
 630 390 l 1
 624 366 l 1
EndSplineSet
EndChar

StartChar: uni0E33.alt1
Encoding: 65537 -1 96
Width: 515
VWidth: 1504
Flags: HW
LayerCount: 2
Fore
SplineSet
-126 826 m 0
 -133.333 790.667 -152 760.667 -182 736 c 128
 -212 711.333 -244.667 699 -280 699 c 0
 -316 699 -343.5 711.333 -362.5 736 c 128
 -381.5 760.667 -387.667 790.667 -381 826 c 0
 -373 861.333 -353.833 891.5 -323.5 916.5 c 128
 -293.167 941.5 -260.667 954 -226 954 c 256
 -190.667 954 -163.167 941.667 -143.5 917 c 128
 -123.833 892.333 -118 862 -126 826 c 0
-193 826 m 0
 -189 843.333 -191.5 857.833 -200.5 869.5 c 128
 -209.5 881.167 -222.333 887 -239 887 c 256
 -256.333 887 -272.167 881 -286.5 869 c 128
 -300.833 857 -310 842.667 -314 826 c 0
 -317.333 808.664 -314.167 794.33 -304.5 783 c 128
 -294.833 771.667 -281.667 766 -265 766 c 256
 -247.667 766 -232.167 771.667 -218.5 783 c 128
 -204.833 794.333 -196.333 808.667 -193 826 c 0
388 71 m 2
 376 13.6667 352.333 -23.6667 317 -41 c 1
 244 0 l 1
 273.334 17.3333 292.667 52.3333 302 105 c 1
 372 438 l 2
 378 466 373.333 488.667 358 506 c 128
 342.667 523.333 318.667 532 286 532 c 256
 252.667 532 223 521 197 499 c 128
 171 477 154 449 146 415 c 1
 56 415 l 1
 72 475 102 522.834 146 558.5 c 128
 190 594.167 242 612 302 612 c 0
 358 612 402.333 597.667 435 569 c 128
 467.667 540.333 478 497 466 439 c 2
 388 71 l 2
EndSplineSet
EndChar

StartChar: uni0E4E.alt1
Encoding: 65540 -1 99
Width: 0
VWidth: 1504
Flags: HW
LayerCount: 2
Fore
SplineSet
-184 999 m 1
 -197 961 l 1
 -214.333 966.333 -233 969 -253 969 c 0
 -299 969 -322 953.333 -322 922 c 0
 -322 888.667 -297 869 -247 863 c 1
 -260 829 l 1
 -272 833 -284 835 -296 835 c 0
 -324 835 -346.833 828.667 -364.5 816 c 128
 -382.167 803.333 -391 789.667 -391 775 c 0
 -391 747.667 -368.333 734 -323 734 c 0
 -309.667 734 -293.667 738 -275 746 c 1
 -274 708 l 1
 -293.333 700 -316.333 696 -343 696 c 0
 -368.333 696 -390 703.333 -408 718 c 128
 -426 732.667 -435 752 -435 776 c 0
 -435 801.333 -425 822.5 -405 839.5 c 128
 -385 856.5 -362.333 865 -337 865 c 1
 -357 878.333 -367 897.333 -367 922 c 0
 -367 980 -328.333 1009 -251 1009 c 0
 -224.333 1009.66 -202 1006.33 -184 999 c 1
EndSplineSet
EndChar

StartChar: exclamdown
Encoding: 161 161 100
Width: 252
VWidth: 1504
Flags: HW
LayerCount: 2
Fore
SplineSet
69 -212 m 1
 -38 -212 l 1
 78 295 l 1
 162 295 l 1
 69 -212 l 1
226 445 m 0
 222 425 211.333 408 194 394 c 128
 176.667 380 158 373 138 373 c 256
 118 373 102.5 380 91.5 394 c 128
 80.5 408 77 425 81 445 c 0
 86.3333 465 97.5 482 114.5 496 c 128
 131.5 510 150 517 170 517 c 256
 190 517 205.667 510 217 496 c 128
 228.333 482 231.333 465 226 445 c 0
EndSplineSet
EndChar

StartChar: cent
Encoding: 162 162 101
Width: 722
VWidth: 1504
Flags: HW
LayerCount: 2
Fore
SplineSet
579 78 m 1
 519 48.6667 449 33.3333 369 32 c 1
 344 -84 l 1
 262 -84 l 1
 287 36 l 1
 211.667 50 157 84.3333 123 139 c 128
 89 193.667 80.6667 262 98 344 c 0
 116 426 153.5 494.5 210.5 549.5 c 128
 267.5 604.5 336.667 639 418 653 c 1
 444 773 l 1
 526 773 l 1
 501 657 l 1
 581 655 644.667 639.667 692 611 c 1
 645 539 l 1
 621.667 550.333 597 558.833 571 564.5 c 128
 545 570.167 517.667 573 489 573 c 0
 409.667 573 343.5 553 290.5 513 c 128
 237.5 473 203.333 416.667 188 344 c 256
 172.667 272 183.167 216 219.5 176 c 128
 255.833 136 313.667 116 393 116 c 0
 422.333 116 450.833 119 478.5 125 c 128
 506.167 131 534.333 139.333 563 150 c 1
 579 78 l 1
EndSplineSet
EndChar

StartChar: sterling
Encoding: 163 163 102
Width: 722
VWidth: 1504
Flags: HW
LayerCount: 2
Fore
SplineSet
522 0 m 1
 68 0 l 1
 78 56 l 1
 171.333 107.333 226 169.333 242 242 c 0
 243.333 250 245 260.5 247 273.5 c 128
 249 286.5 250.333 300 251 314 c 1
 135 314 l 1
 150 384 l 1
 257 384 l 1
 259 405.334 261.333 424.667 264 442 c 128
 266.667 459.333 269.333 476.333 272 493 c 0
 302 633.667 382.667 704 514 704 c 0
 554 704 597.333 692.333 644 669 c 1
 603 606 l 1
 563 624 527.333 633 496 633 c 0
 416 633 366 586.333 346 493 c 0
 338 455 334 418.667 334 384 c 1
 501 384 l 1
 486 314 l 1
 331 314 l 1
 329.667 306 328 296.333 326 285 c 128
 324 273.667 322 263 320 253 c 0
 304.667 179.667 270.667 119 218 71 c 1
 535 71 l 1
 522 0 l 1
EndSplineSet
EndChar

StartChar: currency
Encoding: 164 164 103
Width: 722
VWidth: 1504
Flags: HW
LayerCount: 2
Fore
SplineSet
648 340 m 0
 634.665 280.667 606.332 227.667 563 181 c 1
 606 122 l 1
 526 53 l 1
 481 114 l 1
 429 78.6666 370.333 61.3333 305 62 c 0
 241.667 62 192 79.3334 156 114 c 1
 84 53 l 1
 35 122 l 1
 102 181 l 1
 78 228.333 72.6667 281.333 86 340 c 0
 98 399.333 126 452.333 170 499 c 1
 126 558 l 1
 206 627 l 1
 251 566 l 1
 303 601.333 360.667 618.667 424 618 c 0
 489.333 618 540 600.667 576 566 c 1
 648 627 l 1
 698 558 l 1
 630 499 l 1
 654 452.333 660 399.333 648 340 c 0
555 340 m 1
 565 391.333 555.5 435.5 526.5 472.5 c 128
 497.5 509.5 457.333 528 406 528 c 0
 352.667 528 304 509.5 260 472.5 c 128
 216 435.5 189 391.333 179 340 c 1
 167 286.667 175.333 242 204 206 c 128
 232.667 170 273.333 152 326 152 c 0
 377.333 152 425.333 170 470 206 c 128
 514.667 242 543 286.667 555 340 c 1
EndSplineSet
EndChar

StartChar: yen
Encoding: 165 165 104
Width: 722
VWidth: 1504
Flags: HW
LayerCount: 2
Fore
SplineSet
540 137 m 1
 367 137 l 1
 343 27 l 1
 256 27 l 1
 280 137 l 1
 107 137 l 1
 122 212 l 1
 295 212 l 1
 305 260 l 1
 132 260 l 1
 149 335 l 1
 307 335 l 1
 164 693 l 1
 269 693 l 1
 379 408 l 1
 611 693 l 1
 718 693 l 1
 423 337 l 1
 582 337 l 1
 566 260 l 1
 393 260 l 1
 382 212 l 1
 555 212 l 1
 540 137 l 1
EndSplineSet
EndChar

StartChar: brokenbar
Encoding: 166 166 105
Width: 242
VWidth: 1504
Flags: HW
LayerCount: 2
Fore
SplineSet
159 331 m 1
 87 331 l 1
 170 716 l 1
 242 716 l 1
 159 331 l 1
51 -179 m 1
 -20 -179 l 1
 62 208 l 1
 134 208 l 1
 51 -179 l 1
EndSplineSet
EndChar

StartChar: section
Encoding: 167 167 106
Width: 571
VWidth: 1504
Flags: HW
LayerCount: 2
Fore
SplineSet
418 107 m 0
 406.667 55.6667 379.5 15.5 336.5 -13.5 c 128
 293.5 -42.5 244 -57 188 -57 c 0
 124.667 -57 74 -38 36 0 c 1
 83 63 l 1
 99 43.6667 117.167 30.1667 137.5 22.5 c 128
 157.833 14.8333 180.667 11 206 11 c 0
 242 11 272.5 19.1667 297.5 35.5 c 128
 322.5 51.8333 338 73 344 99 c 0
 351.333 134.333 333.333 164 290 188 c 1
 266.667 198 242.833 208.333 218.5 219 c 128
 194.166 229.667 170.333 240.334 147 251 c 1
 99.6666 277 81.6666 318.333 93 375 c 1
 103 418.333 131 457.333 177 492 c 1
 163.666 515.333 160.333 541.333 167 570 c 0
 177 615.333 202 652 242 680 c 128
 282 708 330.333 722 387 722 c 0
 413 722 438.167 718 462.5 710 c 128
 486.834 702 510.667 691 534 677 c 1
 483 612 l 1
 449 641.333 409.333 656 364 656 c 0
 334.667 656 308.5 648.667 285.5 634 c 128
 262.5 619.333 248.667 601 244 579 c 0
 242 567.667 243.167 557.5 247.5 548.5 c 128
 251.833 539.5 258.667 531 268 523 c 0
 275.334 517.667 287.167 511.333 303.5 504 c 128
 319.834 496.667 339.667 489 363 481 c 0
 410.334 463 445.167 440.333 467.5 413 c 128
 489.833 385.667 497.333 354.333 490 319 c 0
 484.667 295.667 474.833 273.833 460.5 253.5 c 128
 446.167 233.167 428.667 213.333 408 194 c 1
 422 171.333 425.333 142.333 418 107 c 0
411 311 m 1
 415 328.333 409.167 345.833 393.5 363.5 c 128
 377.833 381.167 356 395.333 328 406 c 0
 304 415.333 283 424 265 432 c 128
 247 440 232 447 220 453 c 1
 190.667 431 173 406 167 378 c 0
 163.667 366 165.167 355.167 171.5 345.5 c 128
 177.833 335.833 187 326 199 316 c 1
 208.333 310.667 220.333 304.333 235 297 c 128
 249.667 289.667 269 281.333 293 272 c 0
 310.333 264.667 325 258.333 337 253 c 128
 349 247.667 359 242 367 236 c 1
 381 249.333 391.333 261.833 398 273.5 c 128
 404.667 285.167 409 297.667 411 311 c 1
EndSplineSet
EndChar

StartChar: dieresis
Encoding: 168 168 107
Width: 512
VWidth: 1504
Flags: HW
LayerCount: 2
Fore
SplineSet
280 639 m 0
 276 619.664 266 603.831 250 591.5 c 128
 234 579.167 217.333 573 200 573 c 0
 182 573 168 579.333 158 592 c 128
 148 604.669 145 620.336 149 639 c 0
 153 657 162.833 672.5 178.5 685.5 c 128
 194.167 698.5 211 705 229 705 c 0
 246.333 705 260.167 698.5 270.5 685.5 c 128
 280.833 672.5 284 657 280 639 c 0
502 639 m 0
 498 619.664 488 603.831 472 591.5 c 128
 456 579.167 439.667 573 423 573 c 256
 405.667 573 391.833 579.333 381.5 592 c 128
 371.167 604.669 368 620.336 372 639 c 0
 376 657 386 672.5 402 685.5 c 128
 418 698.5 434.333 705 451 705 c 256
 468.335 705 482.168 698.5 492.5 685.5 c 128
 502.833 672.5 506 657 502 639 c 0
EndSplineSet
EndChar

StartChar: copyright
Encoding: 169 169 108
Width: 812
VWidth: 1504
Flags: HW
LayerCount: 2
Fore
SplineSet
579 176 m 1
 541 146.667 489.333 132 424 132 c 0
 356.667 132 303.5 153.167 264.5 195.5 c 128
 225.5 237.833 206 289.333 206 350 c 0
 206 420 226.5 475.5 267.5 516.5 c 128
 308.5 557.5 363.333 578 432 578 c 0
 493.333 578 540 566 572 542 c 1
 554 487 l 1
 516 509 475.333 520 432 520 c 0
 328 520 275.667 466 275 358 c 0
 275 248.667 327.667 194 433 194 c 0
 482.333 194 524.667 206.667 560 232 c 1
 579 176 l 1
793 361 m 256
 793 261 757.167 175 685.5 103 c 128
 613.833 31 527.667 -5 427 -5 c 256
 327 -5 241.167 31 169.5 103 c 128
 97.8333 175 62 261 62 361 c 256
 62 461 97.8333 547 169.5 619 c 128
 241.167 691 327 727 427 727 c 256
 527 727 613 691 685 619 c 128
 757 547 793 461 793 361 c 256
730 361 m 256
 730 444.333 700.333 515.5 641 574.5 c 128
 581.667 633.5 510.333 663 427 663 c 256
 343.667 663 272.5 633.5 213.5 574.5 c 128
 154.5 515.5 125 444.333 125 361 c 256
 125 277.667 154.5 206.5 213.5 147.5 c 128
 272.5 88.5 343.667 59 427 59 c 256
 510.333 59 581.667 88.5 641 147.5 c 128
 700.333 206.5 730 277.667 730 361 c 256
EndSplineSet
EndChar

StartChar: ordfeminine
Encoding: 170 170 109
Width: 434
VWidth: 1504
Flags: HW
LayerCount: 2
Fore
SplineSet
442 666 m 1
 393 442 l 2
 391 432.667 390 422.667 390 412 c 0
 390 396 392.333 383.667 397 375 c 1
 346 363 l 1
 342 374.333 340 386.333 340 399 c 0
 340 409 340.333 417.333 341 424 c 1
 297.667 382.667 252.333 362.333 205 363 c 0
 165.667 363 134.667 374.5 112 397.5 c 128
 89.3333 420.5 78 450.333 78 487 c 0
 78 546.333 97.6667 599.833 137 647.5 c 128
 176.333 695.167 225.333 719 284 719 c 0
 346 719 398.667 701.333 442 666 c 1
344 519 m 1
 370 638 l 1
 342.667 655.333 314.667 663.667 286 663 c 0
 244.667 663 211 645.833 185 611.5 c 128
 159 577.166 146 539.332 146 498 c 0
 146 444.667 171.667 418 223 418 c 0
 250.333 418 275.5 428.333 298.5 449 c 128
 321.5 469.667 336.667 493 344 519 c 1
EndSplineSet
EndChar

StartChar: guillemotleft
Encoding: 171 171 110
Width: 535
VWidth: 1504
Flags: HW
LayerCount: 2
Fore
SplineSet
438 71 m 1
 347 71 l 1
 220 269 l 1
 433 472 l 1
 522 472 l 1
 310 271 l 1
 438 71 l 1
254 71 m 1
 162 71 l 1
 36 269 l 1
 245 474 l 1
 338 474 l 1
 125 269 l 1
 254 71 l 1
EndSplineSet
EndChar

StartChar: logicalnot
Encoding: 172 172 111
Width: 673
VWidth: 1504
Flags: HW
LayerCount: 2
Fore
SplineSet
606 132 m 1
 534 132 l 1
 534 352 l 1
 51 352 l 1
 51 420 l 1
 606 420 l 1
 606 132 l 1
EndSplineSet
EndChar

StartChar: registered
Encoding: 174 174 112
Width: 812
VWidth: 1504
Flags: HW
LayerCount: 2
Fore
SplineSet
591 134 m 1
 532 134 l 1
 514 265.333 475 331 415 331 c 2
 340 331 l 1
 340 134 l 1
 278 134 l 1
 278 578 l 1
 324 586 365.333 590 402 590 c 0
 455.334 590 497.667 578.667 529 556 c 128
 560.333 533.333 576 502.333 576 463 c 0
 576 411 551.333 374 502 352 c 1
 526 334.667 544.333 311 557 281 c 128
 569.667 251 581 202 591 134 c 1
520 459 m 256
 520 511 480.667 537 402 537 c 0
 376.667 537 356 536 340 534 c 1
 340 381 l 1
 411 381 l 2
 483.667 381 520 407 520 459 c 256
793 361 m 256
 793 261 757.167 175 685.5 103 c 128
 613.833 31 527.667 -5 427 -5 c 256
 327 -5 241.167 31 169.5 103 c 128
 97.8333 175 62 261 62 361 c 256
 62 461 97.8333 547 169.5 619 c 128
 241.167 691 327 727 427 727 c 256
 527 727 613 691 685 619 c 128
 757 547 793 461 793 361 c 256
730 361 m 256
 730 444.333 700.333 515.5 641 574.5 c 128
 581.667 633.5 510.333 663 427 663 c 256
 343.667 663 272.5 633.5 213.5 574.5 c 128
 154.5 515.5 125 444.333 125 361 c 256
 125 277.667 154.5 206.5 213.5 147.5 c 128
 272.5 88.5 343.667 59 427 59 c 256
 510.333 59 581.667 88.5 641 147.5 c 128
 700.333 206.5 730 277.667 730 361 c 256
EndSplineSet
EndChar

StartChar: macron
Encoding: 175 175 113
Width: 565
VWidth: 1504
Flags: HW
LayerCount: 2
Fore
SplineSet
668 794 m 1
 102 794 l 1
 119 874 l 1
 684 874 l 1
 668 794 l 1
EndSplineSet
EndChar

StartChar: degree
Encoding: 176 176 114
Width: 416
VWidth: 1504
Flags: HW
LayerCount: 2
Fore
SplineSet
402 597 m 256
 394 559.667 374.167 528 342.5 502 c 128
 310.833 476 276.333 463 239 463 c 256
 201.667 463 172.833 476.167 152.5 502.5 c 128
 132.167 528.833 126 560.333 134 597 c 256
 142 634.333 161.833 666 193.5 692 c 128
 225.167 718 259.333 731 296 731 c 256
 333.333 731 362.333 718 383 692 c 128
 403.667 666 410 634.333 402 597 c 256
353 597 m 256
 358.331 620.333 354.164 640.5 340.5 657.5 c 128
 326.833 674.5 308.666 683 286 683 c 256
 262.667 683 240.833 674.5 220.5 657.5 c 128
 200.166 640.5 187.333 620.333 182 597 c 256
 176.667 573.667 180.834 553.5 194.5 536.5 c 128
 208.167 519.5 226.667 511 250 511 c 256
 273.333 511 295 519.5 315 536.5 c 128
 335 553.5 347.667 573.667 353 597 c 256
EndSplineSet
EndChar

StartChar: plusminus
Encoding: 177 177 115
Width: 661
VWidth: 1504
Flags: HW
LayerCount: 2
Fore
SplineSet
543 0 m 1
 -12 0 l 1
 5 83 l 1
 560 83 l 1
 543 0 l 1
605 326 m 1
 382 326 l 1
 337 117 l 1
 242 117 l 1
 287 326 l 1
 65 326 l 1
 81 409 l 1
 304 409 l 1
 352 636 l 1
 447 636 l 1
 399 409 l 1
 621 409 l 1
 605 326 l 1
EndSplineSet
EndChar

StartChar: twosuperior
Encoding: 178 178 116
Width: 391
VWidth: 1504
Flags: HW
LayerCount: 2
Fore
SplineSet
320 286 m 1
 35 286 l 1
 41 317.334 58.5 347.167 87.5 375.5 c 128
 116.5 403.833 147 431 179 457 c 128
 211 483 240.833 508.333 268.5 533 c 128
 296.167 557.667 312.333 581.667 317 605 c 0
 321 622.333 319 635.333 311 644 c 128
 303 652.667 291.667 657 277 657 c 0
 257.667 657 239 650 221 636 c 128
 203 622 190.667 601.667 184 575 c 1
 122 587 l 1
 137.333 632.333 159.5 666.667 188.5 690 c 128
 217.5 713.333 250.333 725 287 725 c 0
 325 725 353.667 714.167 373 692.5 c 128
 392.333 670.833 398 641.667 390 605 c 0
 384.667 583.667 373 560.5 355 535.5 c 128
 337 510.5 311 483.333 277 454 c 2
 156 353 l 1
 343 353 l 1
 320 286 l 1
EndSplineSet
EndChar

StartChar: threesuperior
Encoding: 179 179 117
Width: 391
VWidth: 1504
Flags: HW
LayerCount: 2
Fore
SplineSet
370 442 m 0
 360 394 336 355.5 298 326.5 c 128
 260 297.5 213.667 282.333 159 281 c 0
 117.667 281 83.3333 293.667 56 319 c 1
 98 382 l 1
 110 370 122.5 362 135.5 358 c 128
 148.5 354 162 352 176 352 c 0
 208 352 235 360.333 257 377 c 128
 279 393.667 293 415 299 441 c 0
 302.329 458.333 299.662 471.333 291 480 c 128
 282.333 488.667 271 493 257 493 c 0
 245 493 232.5 490.833 219.5 486.5 c 128
 206.5 482.167 195.667 477 187 471 c 1
 171 516 l 1
 214.333 534 248 552.833 272 572.5 c 128
 296 592.167 309.667 610 313 626 c 0
 318.333 648 306.666 659 278 659 c 0
 260.667 659 242.833 653.167 224.5 641.5 c 128
 206.166 629.833 190.333 612.667 177 590 c 1
 128 618 l 1
 174 690 230 726.333 296 727 c 0
 365.333 727 394 697.333 382 638 c 1
 374 604 351 573 313 545 c 1
 362.333 529.667 381.333 495.333 370 442 c 0
EndSplineSet
EndChar

StartChar: acute
Encoding: 180 180 118
Width: 389
VWidth: 1504
Flags: HW
LayerCount: 2
Fore
SplineSet
200 551 m 1
 129 551 l 1
 280 724 l 1
 397 724 l 1
 200 551 l 1
EndSplineSet
EndChar

StartChar: mu
Encoding: 181 181 119
Width: 622
VWidth: 1504
Flags: HW
LayerCount: 2
Fore
SplineSet
514 6 m 1
 420 -12 l 1
 416.667 -0.666667 414.5 10.6667 413.5 22 c 128
 412.5 33.3333 412 46 412 60 c 1
 378.667 38 346 20.1667 314 6.5 c 128
 282 -7.16667 248.667 -14 214 -14 c 0
 190.667 -14 169.5 -9.83333 150.5 -1.5 c 128
 131.5 6.83333 117 19.3333 107 36 c 1
 54 -212 l 1
 -39 -212 l 1
 113 514 l 1
 208 514 l 1
 150 241 l 1
 124.667 127.667 155.333 71 242 71 c 0
 279.333 71 318 83.6667 358 109 c 128
 398 134.333 422.667 167.667 432 209 c 2
 496 514 l 1
 591 514 l 1
 511 137 l 2
 507 119 505.5 99 506.5 77 c 128
 507.5 55 510 31.3333 514 6 c 1
EndSplineSet
EndChar

StartChar: paragraph
Encoding: 182 182 120
Width: 571
VWidth: 1504
Flags: HW
LayerCount: 2
Fore
SplineSet
400 -95 m 1
 349 -95 l 1
 511 666 l 1
 439 666 l 1
 277 -95 l 1
 224 -95 l 1
 302 271 l 1
 296 271 l 2
 236 271 186.167 289.833 146.5 327.5 c 128
 106.833 365.167 94 417 108 483 c 0
 140 637.667 255.333 714.667 454 714 c 0
 507.333 714 546 711.667 570 707 c 1
 400 -95 l 1
EndSplineSet
EndChar

StartChar: periodcentered
Encoding: 183 183 121
Width: 258
VWidth: 1504
Flags: HW
LayerCount: 2
Fore
SplineSet
193 274 m 256
 189 254 178.333 237 161 223 c 128
 143.667 209 125 202 105 202 c 256
 85 202 69.5 209 58.5 223 c 128
 47.5 237 44 254 48 274 c 256
 52 294 62.5 311 79.5 325 c 128
 96.5 339 115 346 135 346 c 256
 155 346 170.667 339 182 325 c 128
 193.333 311 197 294 193 274 c 256
EndSplineSet
EndChar

StartChar: cedilla
Encoding: 184 184 122
Width: 374
VWidth: 1504
Flags: HW
LayerCount: 2
Fore
SplineSet
199 -135 m 0
 193 -167 177.333 -192.333 152 -211 c 128
 126.667 -229.667 95 -239 57 -239 c 0
 43 -239 28.1667 -236.833 12.5 -232.5 c 128
 -3.16667 -228.167 -17.3333 -221.333 -30 -212 c 1
 0 -164 l 1
 12 -171.333 24.8333 -177 38.5 -181 c 128
 52.1667 -185 63 -187 71 -187 c 0
 103 -187 122.333 -171.667 129 -141 c 1
 134.333 -113 106.333 -93.6667 45 -83 c 1
 131 17 l 1
 196 17 l 1
 141 -42 l 1
 166.333 -50 183.667 -61.6667 193 -77 c 128
 202.333 -92.3333 204.333 -111.667 199 -135 c 0
EndSplineSet
EndChar

StartChar: onesuperior
Encoding: 185 185 123
Width: 391
VWidth: 1504
Flags: HW
LayerCount: 2
Fore
SplineSet
311 293 m 1
 110 293 l 1
 122 352 l 1
 187 352 l 1
 244 623 l 1
 171 566 l 1
 146 617 l 1
 293 728 l 1
 308.333 728 319 723.167 325 713.5 c 128
 331 703.833 332.333 691.667 329 677 c 2
 260 352 l 1
 323 352 l 1
 311 293 l 1
EndSplineSet
EndChar

StartChar: ordmasculine
Encoding: 186 186 124
Width: 442
VWidth: 1504
Flags: HW
LayerCount: 2
Fore
SplineSet
460 540 m 0
 448 486 419.5 440.667 374.5 404 c 128
 329.5 367.333 280.333 349 227 349 c 0
 173 349 131.5 367.333 102.5 404 c 128
 73.5 440.667 65 486 77 540 c 0
 88.3333 593.333 116.167 638.833 160.5 676.5 c 128
 204.833 714.167 254 733 308 733 c 0
 361.333 733 402.833 714.167 432.5 676.5 c 128
 462.167 638.833 471.333 593.333 460 540 c 0
394 540 m 256
 401.33 574 395.164 603.5 375.5 628.5 c 128
 355.833 653.5 329 666 295 666 c 256
 261 666 228.833 653.5 198.5 628.5 c 128
 168.167 603.5 149.667 574 143 540 c 256
 135.667 506 141.667 476.667 161 452 c 128
 180.333 427.333 207 415 241 415 c 256
 275 415 307.167 427.333 337.5 452 c 128
 367.834 476.667 386.667 506 394 540 c 256
EndSplineSet
EndChar

StartChar: guillemotright
Encoding: 187 187 125
Width: 535
VWidth: 1504
Flags: HW
LayerCount: 2
Fore
SplineSet
83 71 m 1
 -6 71 l 1
 208 271 l 1
 80 472 l 1
 168 472 l 1
 298 269 l 1
 83 71 l 1
268 71 m 1
 176 71 l 1
 393 269 l 1
 263 474 l 1
 356 474 l 1
 481 269 l 1
 268 71 l 1
EndSplineSet
EndChar

StartChar: onequarter
Encoding: 188 188 126
Width: 815
VWidth: 1504
Flags: HW
LayerCount: 2
Fore
SplineSet
587 162 m 1
 626 340 l 1
 600.667 320 576.167 293.167 552.5 259.5 c 128
 528.833 225.833 511.667 193.333 501 162 c 1
 587 162 l 1
632 0 m 1
 554 0 l 1
 572 90 l 1
 408 90 l 1
 415.334 122 428.167 158.167 446.5 198.5 c 128
 464.833 238.833 487.833 276.833 515.5 312.5 c 128
 543.167 348.167 574.667 378.167 610 402.5 c 128
 645.333 426.834 683.667 439.667 725 441 c 1
 665 162 l 1
 728 162 l 1
 710 90 l 1
 650 90 l 1
 632 0 l 1
260 265 m 1
 59 265 l 1
 71 323 l 1
 135 323 l 1
 191 585 l 1
 123 535 l 1
 93 590 l 1
 244 701 l 1
 274 699 285.333 681.333 278 648 c 2
 209 323 l 1
 272 323 l 1
 260 265 l 1
168 -14 m 1
 93 -14 l 1
 678 713 l 1
 754 713 l 1
 168 -14 l 1
EndSplineSet
Ligature2: "'frac' Diagonal Fractions in Latin lookup 0 subtable" one fraction four
Ligature2: "'frac' Diagonal Fractions in Latin lookup 0 subtable" one slash four
EndChar

StartChar: onehalf
Encoding: 189 189 127
Width: 815
VWidth: 1504
Flags: HW
LayerCount: 2
Fore
SplineSet
716 0 m 1
 430 0 l 1
 441.334 38 461.168 71.5 489.5 100.5 c 128
 517.833 129.5 547.333 155.667 578 179 c 1
 592 191 606.5 202.833 621.5 214.5 c 128
 636.5 226.167 650.167 238 662.5 250 c 128
 674.833 262 685.5 273.667 694.5 285 c 128
 703.5 296.334 709.667 307.668 713 319 c 0
 716.333 333 714.667 345 708 355 c 128
 701.333 365 689.333 370 672 370 c 0
 630.667 370 600.667 343 582 289 c 1
 517 301 l 1
 531 346.334 552.833 380.667 582.5 404 c 128
 612.167 427.333 645.667 439 683 439 c 0
 721 439 749.833 428.5 769.5 407.5 c 128
 789.167 386.5 795 357 787 319 c 0
 781 293.667 768.5 270 749.5 248 c 128
 730.5 226 708.833 204.667 684.5 184 c 128
 660.167 163.333 636 143.5 612 124.5 c 128
 588 105.5 568 87 552 69 c 1
 739 69 l 1
 716 0 l 1
168 -14 m 1
 93 -14 l 1
 678 713 l 1
 754 713 l 1
 168 -14 l 1
260 265 m 1
 59 265 l 1
 71 323 l 1
 135 323 l 1
 191 585 l 1
 123 535 l 1
 93 590 l 1
 244 701 l 1
 274 699 285.333 681.333 278 648 c 2
 209 323 l 1
 272 323 l 1
 260 265 l 1
EndSplineSet
Ligature2: "'frac' Diagonal Fractions in Latin lookup 0 subtable" one fraction two
Ligature2: "'frac' Diagonal Fractions in Latin lookup 0 subtable" one slash two
EndChar

StartChar: threequarters
Encoding: 190 190 128
Width: 815
VWidth: 1504
Flags: HW
LayerCount: 2
Fore
SplineSet
587 162 m 1
 626 340 l 1
 600 314.667 575.333 286.5 552 255.5 c 128
 528.667 224.5 511.667 193.333 501 162 c 1
 587 162 l 1
632 0 m 1
 554 0 l 1
 572 90 l 1
 408 90 l 1
 418 127.333 432.167 166.333 450.5 207 c 128
 468.834 247.667 491.667 285.333 519 320 c 128
 546.333 354.667 577.167 383.167 611.5 405.5 c 128
 645.833 427.834 683.667 439.667 725 441 c 1
 665 162 l 1
 728 162 l 1
 710 90 l 1
 650 90 l 1
 632 0 l 1
168 -14 m 1
 93 -14 l 1
 678 713 l 1
 754 713 l 1
 168 -14 l 1
360 429 m 0
 354.667 403 344.667 379.833 330 359.5 c 128
 315.333 339.167 298.5 322.333 279.5 309 c 128
 260.5 295.667 239.5 285.5 216.5 278.5 c 128
 193.5 271.5 171 268 149 268 c 0
 107.667 268 73 280.333 45 305 c 1
 89 370 l 1
 100.333 358.667 112.333 350.333 125 345 c 128
 137.667 339.667 151 337 165 337 c 0
 197 337 224.167 345.5 246.5 362.5 c 128
 268.833 379.5 283 401 289 427 c 0
 296.333 462.333 283.333 480 250 480 c 0
 224.667 480 199.333 471 174 453 c 1
 161 498 l 1
 210.333 521.333 244.5 542 263.5 560 c 128
 282.5 578 294.333 597 299 617 c 0
 300.324 625 298.658 631.667 294 637 c 128
 289.332 642.333 280.666 645 268 645 c 0
 228 645 193.667 620.667 165 572 c 1
 116 600 l 1
 162 672 218.667 708 286 708 c 0
 321.333 708 345.5 700 358.5 684 c 128
 371.5 668 375.333 649 370 627 c 0
 362.667 593 340.667 562 304 534 c 1
 330 530 347.333 518.5 356 499.5 c 128
 364.667 480.5 366 457 360 429 c 0
EndSplineSet
Ligature2: "'frac' Diagonal Fractions in Latin lookup 0 subtable" three fraction four
Ligature2: "'frac' Diagonal Fractions in Latin lookup 0 subtable" three slash four
EndChar

StartChar: questiondown
Encoding: 191 191 129
Width: 434
VWidth: 1504
Flags: HW
LayerCount: 2
Fore
SplineSet
295 -171 m 1
 227.667 -208.333 166 -227 110 -227 c 0
 52.6667 -227 10.1667 -211.667 -17.5 -181 c 128
 -45.1667 -150.333 -53.3333 -109.667 -42 -59 c 0
 -30.6667 -5.66667 15 55 95 123 c 0
 123 146.333 145 169.833 161 193.5 c 128
 177 217.167 187.667 239.334 193 260 c 0
 197 277.333 198 298.333 196 323 c 1
 281 323 l 1
 283 309 284 296.333 284 285 c 128
 284 273.667 283.667 264 283 256 c 0
 271 200.667 229.333 142.333 158 81 c 0
 96 27 61 -18.6667 53 -56 c 0
 41 -113.333 70 -141.667 140 -141 c 0
 183.333 -141 228 -126.667 274 -98 c 1
 295 -171 l 1
329 441 m 256
 325 421 314.5 404 297.5 390 c 128
 280.5 376 262.667 369 244 369 c 256
 224.667 369 209.5 376 198.5 390 c 128
 187.5 404 184 421 188 441 c 256
 192 461 202.5 478 219.5 492 c 128
 236.5 506 254.667 513 274 513 c 256
 293.333 513 308.333 506 319 492 c 128
 329.667 478 333 461 329 441 c 256
EndSplineSet
EndChar

StartChar: AE
Encoding: 198 198 136
Width: 876
VWidth: 1504
Flags: HW
LayerCount: 2
Fore
SplineSet
769 0 m 1
 424 0 l 1
 444 286 l 1
 233 286 l 1
 21 0 l 1
 -81 0 l 1
 462 727 l 1
 904 727 l 1
 886 644 l 1
 558 644 l 1
 540 423 l 1
 824 423 l 1
 808 340 l 1
 537 340 l 1
 520 83 l 1
 785 83 l 1
 769 0 l 1
448 367 m 1
 472 609 l 1
 290 367 l 1
 448 367 l 1
EndSplineSet
EndChar

StartChar: Eth
Encoding: 208 208 146
Width: 690
VWidth: 1504
Flags: HW
LayerCount: 2
Fore
SplineSet
663 373 m 0
 639.667 265 595 178.333 529 113 c 0
 449 33.6667 342.333 -6 209 -6 c 0
 167.667 -6 101.667 -1 11 9 c 1
 74 310 l 1
 12 310 l 1
 30 391 l 1
 92 391 l 1
 158 704 l 1
 275.333 717.333 354 724 394 724 c 0
 516.667 724 599.334 687.333 642 614 c 1
 678 554.667 685 474.333 663 373 c 0
567 373 m 0
 605 552.333 540 642 372 642 c 0
 344 642 299.333 639 238 633 c 1
 187 391 l 1
 427 391 l 1
 409 310 l 1
 168 310 l 1
 120 80 l 1
 152 76.6667 193.333 75 244 75 c 0
 341.333 75 419.333 109.667 478 179 c 0
 521.333 230.333 551 295 567 373 c 0
EndSplineSet
EndChar

StartChar: multiply
Encoding: 215 215 153
Width: 627
VWidth: 1504
Flags: HW
LayerCount: 2
Fore
SplineSet
531 51 m 1
 457 -8 l 1
 292 215 l 1
 250 179.667 206.667 142.5 162 103.5 c 128
 117.333 64.5 74 27.3333 32 -8 c 1
 -14 51 l 1
 245 274 l 1
 217.667 311.334 190.333 349.167 163 387.5 c 128
 135.667 425.834 108 463.667 80 501 c 1
 153 560 l 1
 319 337 l 1
 361 373 404.5 410.333 449.5 449 c 128
 494.5 487.667 537.667 524.667 579 560 c 1
 626 501 l 1
 363 275 l 1
 531 51 l 1
EndSplineSet
EndChar

StartChar: Oslash
Encoding: 216 216 154
Width: 779
VWidth: 1504
Flags: HW
LayerCount: 2
Fore
SplineSet
749 356 m 256
 727 250.667 675.667 162.5 595 91.5 c 128
 514.333 20.5 422.333 -15 319 -15 c 0
 271.667 -15 230 -8 194 6 c 1
 161 -42 l 1
 65 -42 l 1
 128 47 l 1
 114 60.3333 101 75.3333 89 92 c 0
 39.6667 163.333 26 251.333 48 356 c 256
 70 461.333 121.333 550 202 622 c 128
 282.667 694 374.667 730 478 730 c 0
 527.333 730 570 721.667 606 705 c 1
 632 740 l 1
 728 740 l 1
 671 662 l 1
 684.333 650 696.333 636.333 707 621 c 0
 757 549.667 771 461.333 749 356 c 256
554 630 m 1
 526.667 642 495.333 648 460 648 c 0
 382.667 648 314.667 620.167 256 564.5 c 128
 197.333 508.833 159 440 141 358 c 0
 123.667 276 132.667 206.667 168 150 c 0
 173.333 140.667 179 132.667 185 126 c 1
 554 630 l 1
656 358 m 0
 674 440 665 508.667 629 564 c 0
 625 571.333 620.333 578 615 584 c 1
 250 83 l 1
 275.333 73 304.333 68 337 68 c 0
 414.333 68 482.5 95.8334 541.5 151.5 c 128
 600.5 207.167 638.667 276 656 358 c 0
EndSplineSet
EndChar

StartChar: Thorn
Encoding: 222 222 160
Width: 592
VWidth: 1504
Flags: HW
LayerCount: 2
Fore
SplineSet
549 375 m 0
 533 297.667 495.167 238.667 435.5 198 c 128
 375.833 157.333 300.333 137 209 137 c 0
 177 137 151.333 139 132 143 c 1
 102 0 l 1
 14 0 l 1
 165 716 l 1
 254 716 l 1
 230 606 l 1
 251.333 610 278 612 310 612 c 0
 401.333 612 468.333 591.833 511 551.5 c 128
 553.668 511.167 566.334 452.333 549 375 c 0
462 375 m 0
 485.333 481 430 534 296 534 c 0
 264.667 534 236.667 530 212 522 c 1
 150 227 l 1
 171.333 219 197.667 215 229 215 c 0
 362.333 215.667 440 269 462 375 c 0
EndSplineSet
EndChar

StartChar: germandbls
Encoding: 223 223 161
Width: 639
VWidth: 1504
Flags: HW
LayerCount: 2
Fore
SplineSet
534 164 m 0
 522 108.667 495.5 65.1666 454.5 33.5 c 128
 413.5 1.83333 363.667 -14 305 -14 c 0
 279 -14 254.833 -10.6667 232.5 -4 c 128
 210.167 2.66667 188.667 12 168 24 c 1
 215 105 l 1
 255 81 291 69 323 69 c 256
 355 69 381.833 77.3333 403.5 94 c 128
 425.167 110.667 438.667 131 444 155 c 0
 449.333 177 446.167 196.5 434.5 213.5 c 128
 422.833 230.5 409.5 247.333 394.5 264 c 128
 379.5 280.667 366.333 298 355 316 c 128
 343.667 334 340.667 355 346 379 c 0
 349.333 392.334 357.5 406.667 370.5 422 c 128
 383.5 437.333 398 452.833 414 468.5 c 128
 430 484.167 444.5 499.167 457.5 513.5 c 128
 470.5 527.833 478.333 541.333 481 554 c 0
 495 621.333 466 654.667 394 654 c 0
 310 654 251.333 577 218 423 c 2
 116 -60 l 2
 110 -86 101 -112 89 -138 c 128
 77 -164 61.3333 -189.667 42 -215 c 1
 -38 -193 l 1
 -18.6667 -167.667 -4.16667 -144.167 5.5 -122.5 c 128
 15.1667 -100.833 22 -80 26 -60 c 2
 134 447 l 2
 175.333 642.333 271.667 740 423 740 c 0
 477 740 517.834 723.667 545.5 691 c 128
 573.167 658.333 581 613.667 569 557 c 0
 563.667 533.667 554 512.667 540 494 c 128
 526 475.333 511.667 458.5 497 443.5 c 128
 482.333 428.5 468.833 415.5 456.5 404.5 c 128
 444.167 393.5 437 383.667 435 375 c 0
 433 365 438.167 353.167 450.5 339.5 c 128
 462.833 325.833 475.833 310 489.5 292 c 128
 503.167 274 515.333 254.5 526 233.5 c 128
 536.675 212.5 539.342 189.333 534 164 c 0
EndSplineSet
EndChar

StartChar: ae
Encoding: 230 230 168
Width: 934
VWidth: 1504
Flags: HW
LayerCount: 2
Fore
SplineSet
811 27 m 1
 737.667 -0.333334 665 -14 593 -14 c 0
 495 -14 426.667 21.3333 388 92 c 1
 336.667 22 258 -13.3333 152 -14 c 0
 126.667 -14 103.833 -10.3333 83.5 -3 c 128
 63.1667 4.33333 46 14.5 32 27.5 c 128
 18 40.5 8.33333 56.5 3 75.5 c 128
 -2.33333 94.5 -2.66667 116 2 140 c 1
 30 270.667 158.333 336.667 387 338 c 1
 393 372 387.667 399.833 371 421.5 c 128
 354.333 443.167 327 454 289 454 c 0
 257 454 194.667 441 102 415 c 1
 108 501 l 1
 183.333 522.333 251 532.667 311 532 c 0
 356.333 532 392.333 525.333 419 512 c 128
 445.667 498.667 464 475 474 441 c 1
 535.333 502.333 611.333 532.667 702 532 c 0
 856.667 532 916 435 880 241 c 1
 460 241 l 1
 452.667 185.667 463.167 143.5 491.5 114.5 c 128
 519.833 85.5 561 71 615 71 c 0
 673 71 741.667 84 821 110 c 1
 811 27 l 1
370 256 m 1
 284 254.666 219.833 245.333 177.5 228 c 128
 135.167 210.666 110.667 184.333 104 149 c 0
 98 123 101.667 103.167 115 89.5 c 128
 128.333 75.8333 147 69 171 69 c 0
 219 69 260.333 82.5 295 109.5 c 128
 329.667 136.5 352.333 174.333 363 223 c 2
 370 256 l 1
803 320 m 1
 804.333 357.333 794.667 389 774 415 c 128
 753.333 441 722 454 680 454 c 0
 636 454 597.167 442.333 563.5 419 c 128
 529.833 395.667 504 362.667 486 320 c 1
 803 320 l 1
EndSplineSet
EndChar

StartChar: eth
Encoding: 240 240 178
Width: 568
VWidth: 1504
Flags: HW
LayerCount: 2
Fore
SplineSet
498 245 m 0
 480.667 163.667 444 98.5 388 49.5 c 128
 332 0.5 269 -24 199 -24 c 0
 135.667 -24 88.5 -1.16667 57.5 44.5 c 128
 26.5 90.1666 18.3333 146.667 33 214 c 0
 47 280 79.3333 335.5 130 380.5 c 128
 180.667 425.5 236 448 296 448 c 256
 356 448 397.333 432 420 400 c 1
 406.667 450 374.333 499.333 323 548 c 0
 321.667 549.333 320.667 549.667 320 549 c 2
 152 471 l 1
 125 537 l 1
 259 599 l 1
 227 619 194.333 634 161 644 c 1
 187 719 l 1
 254.333 705 312 680.333 360 645 c 1
 511 716 l 1
 529 647 l 1
 415 594 l 1
 498.333 494 526 377.667 498 245 c 0
390 214 m 0
 399.333 257.334 393.5 293.667 372.5 323 c 128
 351.5 352.333 322 367 284 367 c 0
 248 367 213.667 351.5 181 320.5 c 128
 148.333 289.5 128 254 120 214 c 0
 110.667 174 115.833 138.333 135.5 107 c 128
 155.167 75.6667 183.333 60 220 60 c 0
 258 60 293.5 75.1667 326.5 105.5 c 128
 359.5 135.833 380.667 172 390 214 c 0
EndSplineSet
EndChar

StartChar: divide
Encoding: 247 247 185
Width: 627
VWidth: 1504
Flags: HW
LayerCount: 2
Fore
SplineSet
572 236 m 1
 23 236 l 1
 39 317 l 1
 588 317 l 1
 572 236 l 1
337 84 m 0
 333 64 322.5 47 305.5 33 c 128
 288.5 19 270.333 12 251 12 c 256
 231.667 12 216.667 19 206 33 c 128
 195.333 47 192 64 196 84 c 0
 201.333 104 212.333 121 229 135 c 128
 245.667 149 263.667 156 283 156 c 256
 302.333 156 317.5 149 328.5 135 c 128
 339.5 121 342.333 104 337 84 c 0
420 471 m 256
 416 451 405.5 434 388.5 420 c 128
 371.5 406 353.333 399 334 399 c 256
 314.667 399 299.5 406 288.5 420 c 128
 277.5 434 274 451 278 471 c 256
 282 491 292.5 508 309.5 522 c 128
 326.5 536 344.667 543 364 543 c 256
 383.333 543 398.5 536 409.5 522 c 128
 420.5 508 424 491 420 471 c 256
EndSplineSet
EndChar

StartChar: oslash
Encoding: 248 248 186
Width: 619
VWidth: 1504
Flags: HW
LayerCount: 2
Fore
SplineSet
569 259 m 256
 553 183 513.833 118.833 451.5 66.5 c 128
 389.167 14.1667 319 -12 241 -12 c 0
 207.667 -12 178 -7.33333 152 2 c 1
 120 -42 l 1
 24 -42 l 1
 84 42 l 1
 76 49.3333 69 57.3333 63 66 c 0
 23 118 11 182.333 27 259 c 256
 43 335 82.3333 399.333 145 452 c 128
 207.667 504.667 278 531 356 531 c 0
 384 531 409.667 527.333 433 520 c 1
 469 569 l 1
 566 569 l 1
 504 483 l 1
 514 473.667 523.333 463 532 451 c 0
 572.667 399 585 335 569 259 c 256
475 259 m 0
 487 313 480 358 454 394 c 0
 450.667 398 448.333 401.667 447 405 c 1
 205 75 l 1
 221 69.6667 238.333 67.3333 257 68 c 0
 309 68 355.5 86.3334 396.5 123 c 128
 437.5 159.667 463.667 205 475 259 c 0
378 445 m 1
 366 448.333 352.667 450 338 450 c 0
 286 450 239.667 431.667 199 395 c 128
 158.333 358.333 132 313 120 259 c 0
 108.667 205 115.667 159.333 141 122 c 1
 143 120 l 1
 378 445 l 1
EndSplineSet
EndChar

StartChar: thorn
Encoding: 254 254 192
Width: 658
VWidth: 1504
Flags: HW
LayerCount: 2
Fore
SplineSet
596 269 m 0
 578 185 538.667 116.833 478 64.5 c 128
 417.333 12.1667 347.667 -14 269 -14 c 0
 201.667 -14 150 6.66667 114 48 c 1
 62 -202 l 1
 -26 -202 l 1
 168 716 l 1
 257 716 l 1
 203 462 l 1
 263 509.333 328.667 532.667 400 532 c 0
 473.334 532 528.334 507.167 565 457.5 c 128
 601.667 407.833 612 345 596 269 c 0
507 268 m 0
 519 322 512.667 366.5 488 401.5 c 128
 463.333 436.5 425.666 454 375 454 c 0
 327.667 454 283.667 439.333 243 410 c 128
 202.333 380.667 177 342.333 167 295 c 2
 149 209 l 2
 141 171 151.333 138.167 180 110.5 c 128
 208.667 82.8333 245.333 69 290 69 c 0
 342 69 387.833 86.6667 427.5 122 c 128
 467.167 157.333 493.667 206 507 268 c 0
EndSplineSet
EndChar

StartChar: dotlessi
Encoding: 305 305 194
Width: 245
VWidth: 1504
Flags: HW
LayerCount: 2
Fore
SplineSet
104 0 m 1
 9 0 l 1
 117 511 l 1
 212 511 l 1
 104 0 l 1
EndSplineSet
EndChar

StartChar: Lslash
Encoding: 321 321 195
Width: 540
VWidth: 1504
Flags: HW
LayerCount: 2
Fore
SplineSet
454 0 m 1
 9 0 l 1
 56 224 l 1
 11 214 l 1
 30 307 l 1
 75 317 l 1
 161 716 l 1
 256 716 l 1
 176 340 l 1
 531 420 l 1
 511 326 l 1
 155 247 l 1
 120 81 l 1
 471 81 l 1
 454 0 l 1
EndSplineSet
EndChar

StartChar: lslash
Encoding: 322 322 196
Width: 326
VWidth: 1504
Flags: HW
LayerCount: 2
Fore
SplineSet
260 74 m 1
 232 -12 l 1
 84.6667 -4 29.3333 87.6667 66 263 c 2
 86 355 l 1
 17 337 l 1
 35 418 l 1
 102 436 l 1
 171 758 l 1
 266 758 l 1
 203 465 l 1
 352 507 l 1
 335 426 l 1
 187 384 l 1
 165 284 l 2
 147.667 206.667 148.334 152 167 120 c 0
 181.667 93.3333 212.667 78 260 74 c 1
EndSplineSet
EndChar

StartChar: OE
Encoding: 338 338 197
Width: 1087
VWidth: 1504
Flags: HW
LayerCount: 2
Fore
SplineSet
984 0 m 1
 558 0 l 1
 566 41 l 1
 498 3.66667 425.667 -15 349 -15 c 0
 237.667 -15 154.167 20.6667 98.5 92 c 128
 42.8333 163.333 26 252 48 358 c 0
 70 463.334 124.333 551.834 211 623.5 c 128
 297.667 695.167 396.667 731 508 731 c 0
 584 731 648.333 712 701 674 c 1
 710 716 l 1
 1136 716 l 1
 1118 635 l 1
 787 635 l 1
 742 418 l 1
 1036 418 l 1
 1018 337 l 1
 724 337 l 1
 669 81 l 1
 1000 81 l 1
 984 0 l 1
591 156 m 1
 675 555 l 1
 637 617 575.333 648 490 648 c 0
 414 648 341.167 618.667 271.5 560 c 128
 201.833 501.333 159 434 143 358 c 0
 127 280 141 211.833 185 153.5 c 128
 229 95.1666 289.667 66 367 66 c 0
 452.333 66 527 96 591 156 c 1
EndSplineSet
EndChar

StartChar: oe
Encoding: 339 339 198
Width: 1036
VWidth: 1504
Flags: HW
LayerCount: 2
Fore
SplineSet
922 110 m 1
 915 27 l 1
 837 -0.333334 764.667 -14 698 -14 c 0
 596.666 -14 525.333 23.3333 484 98 c 1
 416 24.6667 335 -12 241 -12 c 0
 163 -12 103.833 14 63.5 66 c 128
 23.1667 118 11 182.333 27 259 c 256
 43 335 82.3333 399.333 145 452 c 128
 207.667 504.667 278 531 356 531 c 0
 453.334 531 519.334 492.333 554 415 c 1
 631.333 492.333 716 531 808 531 c 0
 962.667 531 1020.67 434.333 982 241 c 1
 566 241 l 1
 558 187.667 568 146 596 116 c 128
 624 86 665.667 71 721 71 c 256
 775.667 71 842.667 84 922 110 c 1
475 259 m 0
 487 313 480.333 358.333 455 395 c 128
 429.667 431.667 390.667 450 338 450 c 256
 286 450 239.667 431.667 199 395 c 128
 158.333 358.333 132 313 120 259 c 0
 108.667 205 115.667 159.667 141 123 c 128
 166.333 86.3333 205 68 257 68 c 256
 309 68 355.5 86.3334 396.5 123 c 128
 437.5 159.667 463.667 205 475 259 c 0
588 320 m 1
 906 320 l 1
 909.333 360 899.5 392.167 876.5 416.5 c 128
 853.5 440.833 821.667 453 781 453 c 0
 741 453 702.667 440.667 666 416 c 128
 629.333 391.333 603.333 359.333 588 320 c 1
EndSplineSet
EndChar

StartChar: florin
Encoding: 402 402 204
Width: 607
VWidth: 1504
Flags: HW
LayerCount: 2
Fore
SplineSet
505 382 m 1
 364 382 l 1
 260 140 l 2
 190.667 -22.6667 94 -104 -30 -104 c 0
 -69.3333 -104 -99.3333 -91.3333 -120 -66 c 1
 -68 0 l 1
 -46 -14 -22.6667 -21 2 -21 c 0
 67.3333 -21 123.667 35 171 147 c 2
 272 382 l 1
 191 382 l 1
 224 460 l 1
 308 460 l 1
 317 484 l 1
 354.333 562 397.333 622.167 446 664.5 c 128
 494.667 706.833 549 728 609 728 c 0
 648.333 728 678.333 715.333 699 690 c 1
 647 624 l 1
 625.667 638 602.667 645 578 645 c 0
 512 645 454.667 589 406 477 c 1
 399 460 l 1
 539 460 l 1
 505 382 l 1
EndSplineSet
EndChar

StartChar: circumflex
Encoding: 710 710 205
Width: 327
VWidth: 1504
Flags: HW
LayerCount: 2
Fore
SplineSet
363 579 m 1
 281 579 l 1
 242 686 l 1
 159 579 l 1
 77 579 l 1
 232 752 l 1
 284 752 l 1
 363 579 l 1
EndSplineSet
EndChar

StartChar: caron
Encoding: 711 711 206
Width: 463
VWidth: 1504
Flags: HW
LayerCount: 2
Fore
SplineSet
313 579 m 1
 260 579 l 1
 182 752 l 1
 263 752 l 1
 302 645 l 1
 385 752 l 1
 468 752 l 1
 313 579 l 1
EndSplineSet
EndChar

StartChar: breve
Encoding: 728 728 207
Width: 514
VWidth: 1504
Flags: HW
LayerCount: 2
Fore
SplineSet
525 739 m 1
 503 681.667 474 639.167 438 611.5 c 128
 402 583.833 359.667 570 311 570 c 256
 263 570 227 583.833 203 611.5 c 128
 179 639.167 168 681.667 170 739 c 1
 251 739 l 1
 251 713.667 256.5 691.167 267.5 671.5 c 128
 278.5 651.833 298 642 326 642 c 256
 354 642 378.333 651.833 399 671.5 c 128
 419.667 691.167 435 713.667 445 739 c 1
 525 739 l 1
EndSplineSet
EndChar

StartChar: dotaccent
Encoding: 729 729 208
Width: 290
VWidth: 1504
Flags: HW
LayerCount: 2
Fore
SplineSet
317 820 m 0
 313 800.664 303.333 784.83 288 772.5 c 128
 272.667 760.167 256.333 754 239 754 c 256
 221.667 754 207.667 760.167 197 772.5 c 128
 186.333 784.833 183 800.667 187 820 c 0
 191 838 201.167 853.5 217.5 866.5 c 128
 233.833 879.5 250.667 886 268 886 c 256
 285.333 886 298.833 879.5 308.5 866.5 c 128
 318.167 853.5 321 838 317 820 c 0
EndSplineSet
EndChar

StartChar: ring
Encoding: 730 730 209
Width: 400
VWidth: 1504
Flags: HW
LayerCount: 2
Fore
SplineSet
402 698 m 256
 394.667 664.665 376.667 636.332 348 613 c 128
 319.333 589.667 288.666 578 256 578 c 256
 222.667 578 196.667 589.667 178 613 c 128
 159.333 636.333 153.667 664.667 161 698 c 256
 168.333 731.333 186.167 759.667 214.5 783 c 128
 242.833 806.333 273.667 818 307 818 c 256
 340.333 818 366.333 806.333 385 783 c 128
 403.667 759.664 409.333 731.331 402 698 c 256
338 698 m 0
 342 714 339.5 727.5 330.5 738.5 c 128
 321.5 749.5 309 755 293 755 c 256
 277 755 262.333 749.5 249 738.5 c 128
 235.667 727.5 227 714 223 698 c 0
 219.667 682 222.5 668.167 231.5 656.5 c 128
 240.5 644.833 253 639 269 639 c 256
 285 639 299.667 644.833 313 656.5 c 128
 326.335 668.167 334.668 682 338 698 c 0
EndSplineSet
EndChar

StartChar: ogonek
Encoding: 731 731 210
Width: 383
VWidth: 1504
Flags: HW
LayerCount: 2
Fore
SplineSet
194 -205 m 1
 148.667 -222.333 110 -230.666 78 -230 c 0
 38.6667 -230 12.5 -218.5 -0.5 -195.5 c 128
 -13.5 -172.5 -17 -145.333 -11 -114 c 0
 -7 -94.6667 0.333333 -73.1667 11 -49.5 c 128
 21.6667 -25.8333 34 0.333334 48 29 c 1
 137 29 l 1
 103.667 -24.3333 84 -65 78 -93 c 0
 72 -125 82.6667 -142.667 110 -146 c 1
 121.333 -146 136.167 -143.167 154.5 -137.5 c 128
 172.833 -131.834 192 -125 212 -117 c 1
 194 -205 l 1
EndSplineSet
EndChar

StartChar: tilde
Encoding: 732 732 211
Width: 389
VWidth: 1504
Flags: HW
LayerCount: 2
Fore
SplineSet
418 666 m 1
 408.667 630.664 394.833 602.831 376.5 582.5 c 128
 358.167 562.167 334.333 552 305 552 c 0
 297 552 287.5 554.333 276.5 559 c 128
 265.5 563.667 254.5 568.667 243.5 574 c 128
 232.5 579.333 222 584.333 212 589 c 128
 202 593.667 193.667 596 187 596 c 0
 179 596 172.833 592.167 168.5 584.5 c 128
 164.167 576.833 161.667 568.667 161 560 c 1
 95 560 l 1
 101 590 113.5 615.167 132.5 635.5 c 128
 151.5 655.833 174.667 666 202 666 c 0
 211.333 666 221.167 664 231.5 660 c 128
 241.833 656 252 651.333 262 646 c 128
 272 640.667 281.667 636 291 632 c 128
 300.335 628 308.668 626 316 626 c 0
 335.335 626 347.668 639.333 353 666 c 1
 418 666 l 1
EndSplineSet
EndChar

StartChar: hungarumlaut
Encoding: 733 733 212
Width: 540
VWidth: 1504
Flags: HW
LayerCount: 2
Fore
SplineSet
369 481 m 1
 305 481 l 1
 454 739 l 1
 551 739 l 1
 369 481 l 1
179 481 m 1
 116 481 l 1
 265 739 l 1
 360 739 l 1
 179 481 l 1
EndSplineSet
EndChar

StartChar: uni0E01
Encoding: 3585 3585 214
Width: 588
VWidth: 1504
Flags: HW
LayerCount: 2
Fore
SplineSet
460 71 m 2
 448 13.6667 424.667 -23.6667 390 -41 c 1
 316 0 l 1
 345.333 17.3333 365 52.3333 375 105 c 1
 436 399 l 2
 445.333 440.333 440 472.833 420 496.5 c 128
 400 520.167 369.333 532 328 532 c 0
 268 532 216.667 506.667 174 456 c 1
 219.333 446.667 248 424 260 388 c 1
 202.667 358 169.667 322 161 280 c 2
 102 0 l 1
 9 0 l 1
 69 286 l 2
 78.3333 328 106 361 152 385 c 1
 130.667 402.333 101 408.333 63 403 c 1
 79 465 114 516.334 168 557 c 0
 218 594.333 275.667 612.667 341 612 c 0
 413 612 466 592.667 500 554 c 128
 534 515.333 543.667 463 529 397 c 2
 460 71 l 2
EndSplineSet
EndChar

StartChar: uni0E02
Encoding: 3586 3586 215
Width: 624
VWidth: 1504
Flags: HW
LayerCount: 2
Fore
SplineSet
214 430 m 0
 217.333 443.333 215.333 454.5 208 463.5 c 128
 200.666 472.5 190.333 477 177 477 c 256
 163.667 477 151.667 472.5 141 463.5 c 128
 130.333 454.5 123.333 443.333 120 430 c 0
 118 416.667 120.5 405.667 127.5 397 c 128
 134.5 388.333 144.667 384 158 384 c 256
 171.333 384 183.5 388.333 194.5 397 c 128
 205.5 405.667 212 416.667 214 430 c 0
510 141 m 2
 500 91.6667 477 53.8333 441 27.5 c 128
 405 1.16667 361.667 -12 311 -12 c 256
 261 -12 223.5 1.33333 198.5 28 c 128
 173.5 54.6667 166 92.3333 176 141 c 2
 197 239 l 2
 203 268.333 224.5 307.333 261.5 356 c 128
 298.5 404.667 320 443 326 471 c 0
 331.333 494.333 327.5 513.5 314.5 528.5 c 128
 301.5 543.5 284.333 551 263 551 c 0
 231 551 208.667 544.333 196 531 c 1
 225.333 529.667 247.333 520 262 502 c 128
 276.667 484 281 461 275 433 c 0
 267.667 403 251.667 377.667 227 357 c 128
 202.333 336.333 175.333 326 146 326 c 0
 112 326 87.1667 338.333 71.5 363 c 128
 55.8333 387.667 51.6667 417.667 59 453 c 0
 69 499 95.5 537 138.5 567 c 128
 181.5 597 227 612 275 612 c 0
 325 612 363.333 600 390 576 c 128
 416.667 552 425 517 415 471 c 0
 409 441 387.667 398.833 351 344.5 c 128
 314.333 290.167 293.666 252 289 230 c 2
 266 120 l 2
 262 102.667 266.833 89.6667 280.5 81 c 128
 294.167 72.3333 310 68 328 68 c 0
 347.333 68 365.5 72.6667 382.5 82 c 128
 399.5 91.3333 410 104 414 120 c 2
 502 542 l 2
 514 598 537.667 634.333 573 651 c 1
 656 617 l 1
 622.667 601.667 600 565 588 507 c 2
 510 141 l 2
EndSplineSet
EndChar

StartChar: uni0E03
Encoding: 3587 3587 216
Width: 648
VWidth: 1504
Flags: HW
LayerCount: 2
Fore
SplineSet
206 366 m 256
 209.333 379.333 207.5 390.333 200.5 399 c 128
 193.5 407.667 183.333 412 170 412 c 256
 156.667 412 144.5 407.5 133.5 398.5 c 128
 122.5 389.5 115.667 378.667 113 366 c 256
 109.667 352.667 111.833 341.5 119.5 332.5 c 128
 127.167 323.5 137.333 319 150 319 c 256
 163.333 319 175.167 323.5 185.5 332.5 c 128
 195.833 341.5 202.667 352.667 206 366 c 256
534 141 m 2
 524 91.6667 501 53.8333 465 27.5 c 128
 429 1.16667 385.667 -12 335 -12 c 256
 285 -12 247.5 1.33333 222.5 28 c 128
 197.5 54.6667 190 92.3333 200 141 c 2
 215 209 l 2
 222.333 241 248.333 283.333 293 336 c 128
 337.667 388.667 363.333 430 370 460 c 1
 373.333 498 362.666 524.667 338 540 c 1
 271 483 l 1
 217 543 l 1
 205.667 537 192.5 526.167 177.5 510.5 c 128
 162.5 494.833 153.333 481 150 469 c 1
 165.333 472.333 176 474 182 474 c 0
 212 474 235.5 463.5 252.5 442.5 c 128
 269.5 421.5 274.667 396 268 366 c 0
 262 336 246.5 310.333 221.5 289 c 128
 196.5 267.667 168.333 257 137 257 c 0
 101.667 257 76 271.5 60 300.5 c 128
 44 329.5 39.6667 361.333 47 396 c 0
 59 449.334 83.6667 497.667 121 541 c 128
 158.333 584.333 200.333 608 247 612 c 1
 286 561 l 1
 343 614 l 1
 429 594 463 540.667 445 454 c 0
 437.667 422.667 415 383 377 335 c 128
 339 287 317 249 311 221 c 2
 290 120 l 2
 286 102.667 290.833 89.6667 304.5 81 c 128
 318.167 72.3333 334 68 352 68 c 0
 371.333 68 389.5 72.6667 406.5 82 c 128
 423.5 91.3333 434 104 438 120 c 2
 526 542 l 2
 538 598 561.667 634.333 597 651 c 1
 680 617 l 1
 646.667 601.667 624 565 612 507 c 2
 534 141 l 2
EndSplineSet
EndChar

StartChar: uni0E04
Encoding: 3588 3588 217
Width: 606
VWidth: 1504
Flags: HW
LayerCount: 2
Fore
SplineSet
356 358 m 256
 359.333 371.333 357.5 382.5 350.5 391.5 c 128
 343.5 400.5 333.333 405 320 405 c 256
 306.667 405 294.833 400.5 284.5 391.5 c 128
 274.167 382.5 267.667 371.333 265 358 c 256
 261.667 344.667 263.5 333.833 270.5 325.5 c 128
 277.5 317.167 287.667 313 301 313 c 256
 314.333 313 326 317.167 336 325.5 c 128
 346 333.835 352.667 344.668 356 358 c 256
478 71 m 2
 466 13.6667 442.667 -23.6667 408 -41 c 1
 334 0 l 1
 363.333 17.3333 383 52.3333 393 105 c 1
 457 411 l 2
 464.333 447 455 477 429 501 c 0
 405 522.333 373.667 532.667 335 532 c 0
 289.667 532 250.333 516.833 217 486.5 c 128
 183.667 456.167 162.333 421 153 381 c 0
 151 369.667 149.5 351.167 148.5 325.5 c 128
 147.5 299.833 145 277.667 141 259 c 2
 132 217 l 2
 132 218.333 136 229.167 144 249.5 c 128
 152 269.833 157.667 285.333 161 296 c 1
 180.333 338 203.333 373.333 230 402 c 0
 264 438 298 456 332 456 c 0
 359.333 456 381 446.5 397 427.5 c 128
 413 408.5 418 385.333 412 358 c 0
 406.667 332 391.833 309.167 367.5 289.5 c 128
 343.167 269.833 317.333 260 290 260 c 0
 264.667 260 244.333 269 229 287 c 1
 179.667 195.667 144.333 100 123 0 c 1
 30 0 l 1
 50 96 l 2
 60 143.333 62.6667 194.833 58 250.5 c 128
 53.3333 306.167 54 350 60 382 c 0
 75.3333 451.334 112.333 507.667 171 551 c 0
 227 592.333 290 612.667 360 612 c 0
 423.333 612 472.667 595.667 508 563 c 0
 549.333 525 563 473.333 549 408 c 2
 478 71 l 2
EndSplineSet
EndChar

StartChar: uni0E05
Encoding: 3589 3589 218
Width: 606
VWidth: 1504
Flags: HW
LayerCount: 2
Fore
SplineSet
349 325 m 0
 352.333 338.333 350.333 349.5 343 358.5 c 128
 335.667 367.5 325.667 372 313 372 c 256
 299.667 372 287.833 367.333 277.5 358 c 128
 267.167 348.667 260.333 337.667 257 325 c 0
 255 311.667 257.333 300.833 264 292.5 c 128
 270.667 284.167 280.333 280 293 280 c 256
 306.333 280 318.5 284.167 329.5 292.5 c 128
 340.5 300.835 347 311.668 349 325 c 0
478 71 m 2
 466 13.6667 442.667 -23.6667 408 -41 c 1
 334 0 l 1
 363.333 17.3333 383 52.3333 393 105 c 1
 457 411 l 2
 469 472.334 464 512.334 442 531 c 1
 335 472 l 1
 245 531 l 1
 199.667 503.667 170 458 156 394 c 0
 152 374.667 149 347.833 147 313.5 c 128
 145 279.167 141 245.333 135 212 c 1
 134 199 l 2
 134 201 136.667 208.667 142 222 c 128
 147.333 235.333 152.667 249.667 158 265 c 0
 174 307 195 342 221 370 c 0
 253 406 287.667 424 325 424 c 0
 352.334 424 373.667 414.5 389 395.5 c 128
 404.336 376.5 409.67 353.333 405 326 c 0
 399 298.667 384.167 275.667 360.5 257 c 128
 336.833 238.333 311.333 229 284 229 c 0
 258.667 229 237.667 237.333 221 254 c 1
 173 164.667 140.333 80 123 0 c 1
 30 0 l 1
 50 96 l 1
 61.3333 145.333 64.6667 199.333 60 258 c 128
 55.3333 316.667 56.3333 360.667 63 390 c 0
 74.3333 443.334 97.5 490.167 132.5 530.5 c 128
 167.5 570.833 212 599.667 266 617 c 1
 353 558 l 1
 474 617 l 1
 547.333 583.667 574.333 523 555 435 c 2
 478 71 l 2
EndSplineSet
EndChar

StartChar: uni0E06
Encoding: 3590 3590 219
Width: 681
VWidth: 1504
Flags: HW
LayerCount: 2
Fore
SplineSet
539 0 m 1
 453 0 l 1
 405.667 61.3333 358.333 100.333 311 117 c 1
 308 102 l 2
 300.667 70 282.833 43 254.5 21 c 128
 226.167 -1 195.333 -12 162 -12 c 256
 128.667 -12 102.833 -0.166666 84.5 23.5 c 128
 66.1667 47.1667 60.6667 76 68 110 c 0
 75.3334 143.333 93.1667 171.667 121.5 195 c 128
 149.833 218.333 180.667 230 214 230 c 0
 221.333 230 227.333 229.667 232 229 c 1
 238 257 261.333 295 302 343 c 0
 341.333 388.333 364 426 370 456 c 0
 378 495.333 368 524 340 542 c 1
 275 484 l 1
 223 543 l 1
 211 537.667 197.667 527 183 511 c 128
 168.333 495 159 480.667 155 468 c 1
 163 471.334 173.667 472.668 187 472 c 0
 217 472 240.5 461.5 257.5 440.5 c 128
 274.5 419.5 280 394.667 274 366 c 0
 268 336 252 310.333 226 289 c 128
 200 267.667 171.667 257 141 257 c 0
 105.667 257 80.1667 270 64.5 296 c 128
 48.8333 322 45.3333 356.667 54 400 c 0
 65.3334 452 90.3334 499.833 129 543.5 c 128
 167.667 587.167 208 610 250 612 c 1
 289 561 l 1
 347 614 l 1
 433 592 467.667 541.667 451 463 c 0
 443.667 427.667 420.5 385.333 381.5 336 c 128
 342.5 286.667 320.667 248.333 316 221 c 2
 311 199 l 1
 365 177.667 416.667 144.333 466 99 c 1
 560 542 l 2
 572 598 595.333 634.333 630 651 c 1
 713 617 l 1
 679.667 601.667 657 565 645 507 c 2
 539 0 l 1
238 108 m 0
 241.333 122 239.167 133.833 231.5 143.5 c 128
 223.833 153.167 213 158 199 158 c 0
 185.667 158 173 153.167 161 143.5 c 128
 149 133.833 141.333 122 138 108 c 0
 134.667 94.6667 137.167 83.1667 145.5 73.5 c 128
 153.833 63.8333 164.333 59 177 59 c 0
 191 59 203.833 63.8333 215.5 73.5 c 128
 227.167 83.1667 234.667 94.6667 238 108 c 0
212 366 m 256
 215.333 379.333 213.5 390.333 206.5 399 c 128
 199.5 407.667 189.333 412 176 412 c 256
 162.667 412 150.5 407.5 139.5 398.5 c 128
 128.5 389.5 121.667 378.667 119 366 c 256
 115.667 352.667 117.833 341.5 125.5 332.5 c 128
 133.167 323.5 143.334 319 156 319 c 256
 169.333 319 181.167 323.5 191.5 332.5 c 128
 201.833 341.5 208.667 352.667 212 366 c 256
EndSplineSet
EndChar

StartChar: uni0E07
Encoding: 3591 3591 220
Width: 469
VWidth: 1504
Flags: HW
LayerCount: 2
Fore
SplineSet
326 0 m 1
 235 0 l 1
 60 245 l 2
 36 280.333 25 312.333 27 341 c 1
 87 393 l 1
 91 365.667 100 341.333 114 320 c 2
 259 116 l 1
 314 388 l 1
 310.667 386.667 301.333 386.333 286 387 c 0
 254.667 387 230.5 397.167 213.5 417.5 c 128
 196.5 437.833 191.667 464 199 496 c 0
 205 528 221.5 555.333 248.5 578 c 128
 275.5 600.667 304 612 334 612 c 0
 369.333 612 396 600.833 414 578.5 c 128
 432 556.167 437.333 526.667 430 490 c 2
 326 0 l 1
361 499 m 256
 364.333 513 361.833 525.167 353.5 535.5 c 128
 345.167 545.833 334 551 320 551 c 256
 306 551 293 545.833 281 535.5 c 128
 269 525.167 261.667 513 259 499 c 256
 255.667 485 258 473 266 463 c 128
 274 453 285 448 299 448 c 256
 313 448 326 453 338 463 c 128
 350 473 357.667 485 361 499 c 256
EndSplineSet
EndChar

StartChar: uni0E08
Encoding: 3592 3592 221
Width: 586
VWidth: 1504
Flags: HW
LayerCount: 2
Fore
SplineSet
465 105 m 2
 457.667 67.6667 439.833 38.8333 411.5 18.5 c 128
 383.167 -1.83333 349.667 -12 311 -12 c 0
 237.667 -12 202.333 20.6667 205 86 c 1
 206 205 l 1
 194.667 201 182 199 168 199 c 0
 138.667 199 115.667 209.5 99 230.5 c 128
 82.3333 251.5 77.3333 276.333 84 305 c 0
 90 334.333 105.833 359.5 131.5 380.5 c 128
 157.167 401.5 184.667 412 214 412 c 0
 240 412 261.167 403.833 277.5 387.5 c 128
 293.834 371.167 301.668 350.333 301 325 c 2
 295 95 l 2
 293.667 77 304 68 326 68 c 0
 351.333 68 366 78 370 98 c 2
 442 436 l 2
 449.333 469.333 439.333 494.333 412 511 c 0
 388.667 525 358 532 320 532 c 0
 234 532 177 507.667 149 459 c 1
 59 459 l 1
 94.3333 560.333 184.333 611.333 329 612 c 0
 396.333 612 449 599.667 487 575 c 1
 532.333 543 548 494.667 534 430 c 2
 465 105 l 2
238 305 m 0
 240 318.333 237.5 329.5 230.5 338.5 c 128
 223.5 347.5 213.333 352 200 352 c 256
 186.667 352 174.5 347.5 163.5 338.5 c 128
 152.5 329.5 146 318.333 144 305 c 0
 140.667 291.667 142.667 280.667 150 272 c 128
 157.333 263.333 167.667 259 181 259 c 256
 194.333 259 206.333 263.333 217 272 c 128
 227.667 280.667 234.667 291.667 238 305 c 0
EndSplineSet
EndChar

StartChar: uni0E09
Encoding: 3593 3593 222
Width: 609
VWidth: 1504
Flags: HW
LayerCount: 2
Fore
SplineSet
513 102 m 0
 505.667 70 488.833 43 462.5 21 c 128
 436.167 -1 407 -12 375 -12 c 0
 345.667 -12 322 -2.16667 304 17.5 c 128
 286 37.1667 279 61.3333 283 90 c 1
 245 76.6667 203.667 46.6667 159 0 c 1
 74 0 l 1
 98 117 l 2
 104 145 113 164 125 174 c 1
 115 174 108 174.667 104 176 c 0
 52 188 32 221.667 44 277 c 0
 50 306.333 65.1667 331 89.5 351 c 128
 113.833 371 140.667 381 170 381 c 256
 199.333 381 222 370.833 238 350.5 c 128
 254 330.167 259 305.667 253 277 c 0
 249.667 263 241 244.167 227 220.5 c 128
 213 196.833 204 177.333 200 162 c 1
 188 99 l 1
 207.333 115 241.5 135.333 290.5 160 c 128
 339.5 184.667 375 206.667 397 226 c 1
 417 246 429.667 269.333 435 296 c 2
 465 435 l 2
 472.332 468.334 461.665 493.667 433 511 c 1
 409 525 377.333 532 338 532 c 0
 296 532 258.667 524 226 508 c 0
 186.667 488.667 161.333 460.667 150 424 c 1
 60 424 l 1
 102 549.333 199.667 612 353 612 c 0
 419 612 470.667 599 508 573 c 0
 554 541 570.333 493 557 429 c 2
 526 286 l 2
 518 248 501 220 475 202 c 1
 509.667 179.333 522.333 146 513 102 c 0
193 277 m 0
 195 290.334 192.667 301.167 186 309.5 c 128
 179.333 317.833 169.333 322 156 322 c 256
 142.667 322 130.833 317.667 120.5 309 c 128
 110.167 300.333 104 289.666 102 277 c 0
 98.6667 263.667 100.333 252.833 107 244.5 c 128
 113.667 236.167 123.667 232 137 232 c 256
 150.333 232 162.167 236.167 172.5 244.5 c 128
 182.833 252.833 189.667 263.667 193 277 c 0
447 101 m 256
 450.326 114.333 448.16 125.333 440.5 134 c 128
 432.833 142.667 422.333 147 409 147 c 256
 395.667 147 383.833 142.5 373.5 133.5 c 128
 363.167 124.5 356.333 113.667 353 101 c 256
 349.667 87.6667 351.667 76.5 359 67.5 c 128
 366.335 58.5 376.668 54 390 54 c 256
 403.333 54 415.333 58.5 426 67.5 c 128
 436.667 76.5 443.667 87.6667 447 101 c 256
EndSplineSet
EndChar

StartChar: uni0E0A
Encoding: 3594 3594 223
Width: 624
VWidth: 1504
Flags: HW
LayerCount: 2
Fore
SplineSet
510 141 m 2
 500 93 477.167 55.5 441.5 28.5 c 128
 405.833 1.5 362.333 -12 311 -12 c 0
 217.667 -12 171 26.6667 171 104 c 0
 171 117.333 179.667 162.333 197 239 c 0
 203 266.333 227 308 269 364 c 0
 308.333 416 328 457.667 328 489 c 0
 328 530.333 306.333 551 263 551 c 0
 229.666 551 207.333 544.333 196 531 c 1
 251.333 529 278.667 504 278 456 c 0
 278 422 264.333 391.833 237 365.5 c 128
 209.667 339.167 179.333 326 146 326 c 0
 86 326 56 357.667 56 421 c 0
 56 475 80.3333 521.334 129 560 c 0
 174.333 595.333 223 612.667 275 612 c 0
 370.333 612 418 576 418 504 c 0
 418 466 399 418.333 361 361 c 1
 317.667 299 293.667 255.333 289 230 c 2
 265 111 l 1
 265 81.6667 286 67.3333 328 68 c 0
 348 68 366.5 73 383.5 83 c 128
 400.5 93 410.667 105.333 414 120 c 2
 462 349 l 2
 467.34 373 469.674 390 469 400 c 0
 469 430 457.667 449 435 457 c 1
 450.334 507 479.667 554.667 523 600 c 0
 560.333 638 594.667 662 626 672 c 1
 693 627 l 1
 627.667 601 573 551 529 477 c 1
 552.333 465 564 442.333 564 409 c 0
 564 397.667 561 378 555 350 c 2
 510 141 l 2
214 430 m 0
 217.333 443.333 215.333 454.5 208 463.5 c 128
 200.666 472.5 190.333 477 177 477 c 256
 163.667 477 151.667 472.5 141 463.5 c 128
 130.333 454.5 123.333 443.333 120 430 c 0
 118 416.667 120.5 405.667 127.5 397 c 128
 134.5 388.333 144.667 384 158 384 c 256
 171.333 384 183.5 388.333 194.5 397 c 128
 205.5 405.667 212 416.667 214 430 c 0
EndSplineSet
EndChar

StartChar: uni0E0B
Encoding: 3595 3595 224
Width: 648
VWidth: 1504
Flags: HW
LayerCount: 2
Fore
SplineSet
579 350 m 2
 534 141 l 2
 524 93 501.167 55.5 465.5 28.5 c 128
 429.833 1.5 386.333 -12 335 -12 c 0
 241.667 -12 195.333 26.6667 196 104 c 0
 196 117.333 202.333 152.333 215 209 c 0
 222.333 241 248 283 292 335 c 0
 344 397 370 442.667 370 472 c 0
 370 504 359.333 526.667 338 540 c 1
 271 483 l 1
 217 543 l 1
 205 537 191.667 526 177 510 c 128
 162.333 494 153.333 480.333 150 469 c 1
 165.333 472.333 176 474 182 474 c 0
 208 474 229.333 466 246 450 c 128
 262.667 434 271 414 271 390 c 0
 271 354.667 257.167 323.667 229.5 297 c 128
 201.833 270.333 171 257 137 257 c 0
 107.667 257 84.8333 267.5 68.5 288.5 c 128
 52.1667 309.5 44 335.333 44 366 c 0
 44 421.333 65 475.167 107 527.5 c 128
 149 579.833 195.667 608 247 612 c 1
 286 561 l 1
 343 614 l 1
 414.333 596.666 450 557.333 450 496 c 0
 450 450.667 426 397 378 335 c 0
 338.667 285 316.333 247 311 221 c 2
 289 111 l 1
 289 81.6667 310 67.3333 352 68 c 0
 372 68 390.5 73 407.5 83 c 128
 424.5 93 434.667 105.333 438 120 c 2
 486 349 l 2
 491.341 373 493.674 390 493 400 c 0
 493 430 481.667 449 459 457 c 1
 474.333 507 504 554.667 548 600 c 0
 585.333 638 619.333 662 650 672 c 1
 718 627 l 1
 652.667 601 598 551 554 477 c 1
 577.333 465 588.667 442.333 588 409 c 0
 588 397.667 585 378 579 350 c 2
206 366 m 0
 209.333 379.333 207.5 390.333 200.5 399 c 128
 193.5 407.667 183.333 412 170 412 c 256
 156.667 412 144.5 407.5 133.5 398.5 c 128
 122.5 389.5 115.667 378.667 113 366 c 0
 111 352.667 113.5 341.5 120.5 332.5 c 128
 127.5 323.5 137.333 319 150 319 c 256
 163.333 319 175.5 323.5 186.5 332.5 c 128
 197.5 341.5 204 352.667 206 366 c 0
EndSplineSet
EndChar

StartChar: uni0E0C
Encoding: 3596 3596 225
Width: 849
VWidth: 1504
Flags: HW
LayerCount: 2
Fore
SplineSet
707 0 m 1
 624 0 l 1
 610.667 49.3333 577.667 88.3333 525 117 c 1
 523.667 103 522.667 94.6667 522 92 c 0
 516 60 499.667 34.6667 473 16 c 128
 446.333 -2.66667 418.666 -12 390 -12 c 0
 358.667 -12 334 -1 316 21 c 128
 298 43 292.333 70 299 102 c 0
 309 148 336.667 182.667 382 206 c 1
 423 399 l 2
 431 438.334 425.5 470.167 406.5 494.5 c 128
 387.5 518.833 359.667 531 323 531 c 0
 261.667 531 212.667 506 176 456 c 1
 220 446.667 248 424 260 388 c 1
 202.667 360 169.667 324 161 280 c 2
 147 215 l 1
 179 215 203.833 204 221.5 182 c 128
 239.167 160 244.667 133 238 101 c 0
 230.667 69.6667 213.667 43 187 21 c 128
 160.333 -1 131 -12 99 -12 c 0
 67.6667 -12 43.3333 -1 26 21 c 128
 8.66667 43 3.66667 69.6667 11 101 c 0
 16.3333 127 27.3333 148.333 44 165 c 1
 69 286 l 2
 78.3333 328 106 361 152 385 c 1
 130.667 402.333 101 408.333 63 403 c 1
 79 465 113 516.334 165 557 c 0
 214.333 594.333 271 612.667 335 612 c 0
 402.333 612 452.833 593 486.5 555 c 128
 520.167 517 530 464.333 516 397 c 2
 477 214 l 1
 550.333 188.667 603.333 153.333 636 108 c 1
 728 542 l 2
 740 598 763.667 634.333 799 651 c 1
 881 617 l 1
 847.663 601.667 825.33 565 814 507 c 2
 707 0 l 1
173 101 m 256
 176.333 115 173.833 127 165.5 137 c 128
 157.167 147 146 152 132 152 c 256
 118 152 105 147 93 137 c 128
 81 127 73.6667 115 71 101 c 256
 67.6667 87 70 75 78 65 c 128
 86 55 97 50 111 50 c 256
 125 50 138 55 150 65 c 128
 162 75 169.667 87 173 101 c 256
465 101 m 256
 468.333 115 465.833 127 457.5 137 c 128
 449.167 147 438 152 424 152 c 256
 410 152 397 147 385 137 c 128
 373 127 365.667 115 363 101 c 256
 359.667 87 362 75 370 65 c 128
 378 55 389 50 403 50 c 256
 417 50 430 55 442 65 c 128
 454 75 461.667 87 465 101 c 256
EndSplineSet
EndChar

StartChar: uni0E0D
Encoding: 3597 3597 226
Width: 849
VWidth: 1504
Flags: HW
LayerCount: 2
Fore
SplineSet
702 -60 m 1
 686 -134 657 -193.333 615 -238 c 0
 567.667 -287.333 506 -311.667 430 -311 c 0
 380.667 -311 341 -298.667 311 -274 c 0
 277 -244.667 265 -206.333 275 -159 c 0
 281 -129 296.667 -103.833 322 -83.5 c 128
 347.333 -63.1667 375 -53 405 -53 c 0
 434.333 -53 456.333 -63.5 471 -84.5 c 128
 485.667 -105.5 490 -131 484 -161 c 0
 474.667 -200.333 453.667 -225.333 421 -236 c 1
 435 -238 444.667 -239 450 -239 c 0
 534 -239 591 -179.333 621 -60 c 1
 702 -60 l 1
736 141 m 2
 726 91 698.333 52 653 24 c 0
 613.666 0 568.332 -12 517 -12 c 0
 465 -12 425.667 0 399 24 c 0
 367.667 51.3333 357 90.3333 367 141 c 1
 423 399 l 2
 431 438.334 425.5 470.167 406.5 494.5 c 128
 387.5 518.833 359.667 531 323 531 c 0
 261.667 531 212.667 506 176 456 c 1
 217.333 448 245.333 425.333 260 388 c 1
 202.667 360 169.667 324 161 280 c 2
 146 209 l 1
 154 213 164 215 176 215 c 0
 207.333 215 231.5 204.167 248.5 182.5 c 128
 265.5 160.833 270.333 134 263 102 c 256
 255.666 70 238.833 43 212.5 21 c 128
 186.167 -1 157 -12 125 -12 c 0
 91.6666 -12 66 -0.5 48 22.5 c 128
 30 45.5 24.6667 74.6667 32 110 c 2
 69 286 l 2
 78.3333 328 106 361 152 385 c 1
 130.667 402.333 101 408.333 63 403 c 1
 79 465 113 516.334 165 557 c 0
 214.333 594.333 271 612.667 335 612 c 0
 402.333 612 452.833 593 486.5 555 c 128
 520.167 517 530 464.333 516 397 c 2
 459 128 l 2
 453.667 106.667 459 91.3333 475 82 c 128
 491 72.6667 511 68 535 68 c 0
 558.333 68 580.5 72.6667 601.5 82 c 128
 622.5 91.3334 635.667 106.667 641 128 c 2
 728 542 l 2
 740 598 763.667 634.333 799 651 c 1
 881 617 l 1
 847.663 601.667 825.33 565 814 507 c 2
 736 141 l 2
429 -158 m 256
 432.333 -144.667 430.333 -133.5 423 -124.5 c 128
 415.667 -115.5 405 -111 391 -111 c 256
 377 -111 364.667 -115.5 354 -124.5 c 128
 343.332 -133.5 336.665 -144.667 334 -158 c 256
 330.667 -171.333 332.333 -182.667 339 -192 c 128
 345.667 -201.333 356 -206 370 -206 c 256
 384 -206 396.5 -201.333 407.5 -192 c 128
 418.5 -182.667 425.667 -171.333 429 -158 c 256
203 101 m 256
 206.333 115 204 127 196 137 c 128
 188 147 176.667 152 162 152 c 256
 148 152 135 147 123 137 c 128
 111 127 103.667 115 101 101 c 256
 97.6667 87 100 75 108 65 c 128
 116 55 127 50 141 50 c 256
 155 50 168 55 180 65 c 128
 192 75 199.667 87 203 101 c 256
EndSplineSet
Substitution2: "<23,16000>  in Thai lookup 65 nested-substitutions 7 subtable" uni0E0D.alt1
Substitution2: "Single Substitution lookup 58 subtable" uni0E0D.alt1
EndChar

StartChar: uni0E0E
Encoding: 3598 3598 227
Width: 639
VWidth: 1504
Flags: HW
LayerCount: 2
Fore
SplineSet
423 -346 m 1
 328 -346 l 1
 326 -292.667 288.333 -250.667 215 -220 c 1
 189.667 -308 141.667 -352 71 -352 c 0
 37.6667 -352 11.6667 -341.5 -7 -320.5 c 128
 -25.6667 -299.5 -32 -273 -26 -241 c 1
 -10 -169.667 44.6667 -134 138 -134 c 0
 152 -134 163 -134.333 171 -135 c 1
 180.333 -115.667 189 -101.667 197 -93 c 0
 211 -77 229.667 -62.6667 253 -50 c 1
 308 -83 l 1
 272.667 -100.333 249.333 -122.667 238 -150 c 1
 291.333 -170 330.333 -195.333 355 -226 c 1
 487 399 l 2
 495 439 488.5 471.167 467.5 495.5 c 128
 446.5 519.833 416 532 376 532 c 0
 314.667 532 264.667 506.667 226 456 c 1
 267.334 448 295.667 425.333 311 388 c 1
 281 372.667 260.667 360 250 350 c 0
 234 334 223 312.667 217 286 c 0
 211.666 264 207.333 232.167 204 190.5 c 128
 200.667 148.833 197 119.333 193 102 c 0
 185.667 70 169 43 143 21 c 128
 117 -1 88.3333 -12 57 -12 c 0
 25 -12 0.5 -1 -16.5 21 c 128
 -33.5 43 -38.6667 70 -32 102 c 0
 -24.6667 133.333 -8 160 18 182 c 128
 44 204 72 215 102 215 c 0
 114 215 121 213.667 123 211 c 1
 134 304 l 1
 142 339.333 165 366.333 203 385 c 1
 179.667 402.333 150 408.333 114 403 c 1
 129.333 465 163.667 516.334 217 557 c 1
 268.333 594.333 326.333 612.667 391 612 c 0
 461 612 513.334 592.5 548 553.5 c 128
 582.667 514.5 593.667 462.333 581 397 c 2
 423 -346 l 1
150 -203 m 1
 140.667 -199.667 128.667 -198.333 114 -199 c 0
 72.6666 -199 49.3333 -211 44 -235 c 0
 36.6667 -267 49.6667 -283 83 -283 c 1
 102.333 -281 117 -273.5 127 -260.5 c 128
 137 -247.5 144.667 -228.333 150 -203 c 1
132 102 m 256
 135.333 116 133 128 125 138 c 128
 117 148 106 153 92 153 c 256
 78 153 65 148 53 138 c 128
 41 128 33.3333 116 30 102 c 256
 26.6667 88 29.1667 76 37.5 66 c 128
 45.8333 56 57 51 71 51 c 256
 85 51 97.8333 56 109.5 66 c 128
 121.167 76 128.667 88 132 102 c 256
EndSplineSet
Substitution2: "<23,16000>  in Thai lookup 75 nested-substitutions 0 subtable" uni0E0E.alt1
Substitution2: "Single Substitution lookup 58 subtable" uni0E0E.alt1
EndChar

StartChar: uni0E0F
Encoding: 3599 3599 228
Width: 639
VWidth: 1504
Flags: HW
LayerCount: 2
Fore
SplineSet
78 -206 m 1
 68.6667 -200.667 55.3333 -198.333 38 -199 c 0
 6.66667 -199 -11.6667 -212.333 -17 -239 c 1
 -23 -264.333 -13.3333 -277 12 -277 c 0
 46 -277 68 -253.333 78 -206 c 1
132 102 m 256
 135.333 116 133 128 125 138 c 128
 117 148 106 153 92 153 c 256
 78 153 65 148 53 138 c 128
 41 128 33.3333 116 30 102 c 256
 26.6667 88 29.1667 76 37.5 66 c 128
 45.8333 56 57 51 71 51 c 256
 85 51 97.8333 56 109.5 66 c 128
 121.167 76 128.667 88 132 102 c 256
421 -347 m 1
 337 -347 l 1
 281 -245 l 1
 185 -347 l 1
 137 -253 l 1
 127 -281 109 -304.667 83 -324 c 128
 57 -343.333 31 -353 5 -353 c 0
 -27 -353 -51.8333 -342.333 -69.5 -321 c 128
 -87.1667 -299.667 -93 -273 -87 -241 c 0
 -71 -167 -21 -129.667 63 -129 c 0
 82.3333 -129 96 -130.667 104 -134 c 1
 123.333 -96.6667 155.333 -67.6667 200 -47 c 1
 239 -110 l 1
 199.667 -120 174.667 -140.333 164 -171 c 1
 208 -244 l 1
 299 -152 l 1
 353 -233 l 1
 487 399 l 2
 495 439 488.5 471.167 467.5 495.5 c 128
 446.5 519.833 416 532 376 532 c 0
 314.667 532 264.667 506.667 226 456 c 1
 267.334 448 295.667 425.333 311 388 c 1
 281 372.667 260.667 360 250 350 c 0
 234 334 223 312.667 217 286 c 0
 211.666 264 207.333 232.167 204 190.5 c 128
 200.667 148.833 197 119.333 193 102 c 0
 185.667 70 169 43 143 21 c 128
 117 -1 88.3333 -12 57 -12 c 0
 25 -12 0.5 -1 -16.5 21 c 128
 -33.5 43 -38.6667 70 -32 102 c 0
 -24.6667 133.333 -8 160 18 182 c 128
 44 204 72 215 102 215 c 0
 114 215 121 213.667 123 211 c 1
 134 304 l 1
 142 339.333 165 366.333 203 385 c 1
 179.667 402.333 150 408.333 114 403 c 1
 129.333 465 163.667 516.334 217 557 c 1
 268.333 594.333 326.333 612.667 391 612 c 0
 461 612 513.334 592.5 548 553.5 c 128
 582.667 514.5 593.667 462.333 581 397 c 2
 421 -347 l 1
EndSplineSet
Substitution2: "<23,16000>  in Thai lookup 75 nested-substitutions 0 subtable" uni0E0F.alt1
Substitution2: "Single Substitution lookup 58 subtable" uni0E0F.alt1
EndChar

StartChar: uni0E10
Encoding: 3600 3600 229
Width: 559
VWidth: 1504
Flags: HW
LayerCount: 2
Fore
SplineSet
18 -206 m 1
 6 -200.667 -4.66667 -198.333 -14 -199 c 0
 -52 -199 -73.3333 -212 -78 -238 c 0
 -83.3333 -263.333 -73 -275.667 -47 -275 c 0
 -13 -275 8.66667 -252 18 -206 c 1
353 -245 m 2
 339 -312.333 298.667 -346 232 -346 c 2
 108 -346 l 1
 60 -256 l 1
 52.6667 -280 38 -300.5 16 -317.5 c 128
 -6 -334.5 -29 -343 -53 -343 c 0
 -86.3333 -343 -110.167 -333 -124.5 -313 c 128
 -138.833 -293 -143 -267.333 -137 -236 c 0
 -129.667 -204.667 -113.5 -179.333 -88.5 -160 c 128
 -63.5 -140.667 -34 -131 0 -131 c 0
 20 -131 33.6667 -133.333 41 -138 c 1
 51 -104.667 74.3333 -79.3333 111 -62 c 1
 152 -89 l 1
 118.667 -103 97.6666 -131 89 -173 c 1
 141 -272 l 1
 220 -272 l 2
 252 -272 270 -263.667 274 -247 c 1
 277 -227 l 1
 259 -227 l 2
 231.667 -227 210.5 -218.667 195.5 -202 c 128
 180.5 -185.333 176 -165 182 -141 c 1
 186 -117.667 199.333 -97.6667 222 -81 c 128
 244.667 -64.3333 269.333 -56 296 -56 c 0
 322 -56 342.833 -64.5 358.5 -81.5 c 128
 374.167 -98.5 380 -118.333 376 -141 c 2
 353 -245 l 2
432 125 m 2
 412.667 33.6667 355.333 -12 260 -12 c 0
 168 -12 131 31 149 117 c 2
 159 167 l 1
 151 165 144 164 138 164 c 0
 108.667 164 86.6667 173.833 72 193.5 c 128
 57.3333 213.167 53 237 59 265 c 0
 65 294.333 80.6667 318.5 106 337.5 c 128
 131.333 356.5 157.667 366 185 366 c 0
 215 366 238.833 356.667 256.5 338 c 128
 274.167 319.333 280 295.333 274 266 c 2
 244 120 l 2
 236 84 247.333 66 278 66 c 0
 310 66 330 84 338 120 c 2
 384 337 l 2
 389.333 358.333 346.666 379.333 256 400 c 0
 178.667 417.333 118.333 426 75 426 c 1
 94.3333 490 128 538.667 176 572 c 0
 216 599.333 261 612.667 311 612 c 0
 330.333 612 357.833 607 393.5 597 c 128
 429.167 587 457.333 582 478 582 c 0
 502 582 520.667 604.667 534 650 c 1
 606 630 l 1
 574 540 523.333 495 454 495 c 0
 434.667 495 408.333 501.167 375 513.5 c 128
 341.667 525.833 315 532 295 532 c 0
 279.667 532 261.333 528 240 520 c 128
 218.667 512 204 502.667 196 492 c 1
 307.333 472.667 388 450.667 438 426 c 0
 473.334 408 486.667 381.333 478 346 c 2
 432 125 l 2
203 265 m 0
 205 277 202.833 287.167 196.5 295.5 c 128
 190.167 303.833 180.667 308 168 308 c 256
 156 308 144.833 303.833 134.5 295.5 c 128
 124.167 287.167 118 277 116 265 c 0
 112.667 253 114.5 242.667 121.5 234 c 128
 128.5 225.333 138 221 150 221 c 256
 162 221 173 225.333 183 234 c 128
 193 242.667 199.667 253 203 265 c 0
310 -141 m 0
 311.333 -131.667 309.333 -124.167 304 -118.5 c 128
 298.667 -112.833 291 -110 281 -110 c 256
 271 -110 262.333 -113 255 -119 c 128
 247.666 -125 243.332 -132.333 242 -141 c 0
 240 -150.333 241.333 -158.166 246 -164.5 c 128
 250.667 -170.833 258 -174 268 -174 c 256
 278 -174 287 -170.833 295 -164.5 c 128
 303 -158.167 308 -150.333 310 -141 c 0
EndSplineSet
Substitution2: "<23,16000>  in Thai lookup 65 nested-substitutions 7 subtable" uni0E10.alt1
Substitution2: "Single Substitution lookup 58 subtable" uni0E10.alt1
EndChar

StartChar: uni0E11
Encoding: 3601 3601 230
Width: 740
VWidth: 1504
Flags: HW
LayerCount: 2
Fore
SplineSet
206 366 m 256
 209.333 379.333 207.5 390.333 200.5 399 c 128
 193.5 407.667 183.333 412 170 412 c 256
 156.667 412 144.5 407.5 133.5 398.5 c 128
 122.5 389.5 115.667 378.667 113 366 c 256
 109.667 352.667 111.833 341.5 119.5 332.5 c 128
 127.167 323.5 137.333 319 150 319 c 256
 163.333 319 175.167 323.5 185.5 332.5 c 128
 195.833 341.5 202.667 352.667 206 366 c 256
612 71 m 2
 600 13.6667 576.667 -23.6667 542 -41 c 1
 468 0 l 1
 497.333 17.3333 516.667 52.3333 526 105 c 1
 606 483 l 2
 611.333 510.333 606 523.667 590 523 c 0
 576 523 565 516 557 502 c 2
 275 0 l 1
 170 0 l 1
 203 161 l 2
 212.333 201 237.167 253.833 277.5 319.5 c 128
 317.834 385.167 341.667 435.667 349 471 c 0
 356.333 505 351.333 528.667 334 542 c 1
 266 483 l 1
 215 543 l 1
 203.667 537.667 190.5 527 175.5 511 c 128
 160.5 495 151 481 147 469 c 1
 154.333 472.333 165.667 474 181 474 c 0
 211 474 234.167 463.167 250.5 441.5 c 128
 266.833 419.833 272 394.666 266 366 c 0
 260 336 244.333 310.333 219 289 c 128
 193.667 267.667 165.667 257 135 257 c 0
 101.667 257 76.8333 271 60.5 299 c 128
 44.1667 327 40 361.333 48 402 c 0
 59.3333 454 83.5 501 120.5 543 c 128
 157.5 585 198.667 608 244 612 c 1
 283 561 l 1
 341 614 l 1
 412.334 598 439.667 549.667 423 469 c 0
 415.667 437 394.167 390.667 358.5 330 c 128
 322.833 269.333 301 219.667 293 181 c 1
 275 133 265 104.333 263 95 c 1
 502 522 l 2
 536 582 575.667 612 621 612 c 0
 691 612 717 570 699 486 c 2
 612 71 l 2
EndSplineSet
EndChar

StartChar: uni0E12
Encoding: 3602 3602 231
Width: 828
VWidth: 1504
Flags: HW
LayerCount: 2
Fore
SplineSet
686 0 m 1
 599 0 l 1
 583 43.3333 557.667 76 523 98 c 1
 517 66.6667 501.5 40.5 476.5 19.5 c 128
 451.5 -1.5 421.667 -12 387 -12 c 0
 355 -12 330.667 -0.666666 314 22 c 128
 297.333 44.6667 292.333 72.3333 299 105 c 0
 304.333 128.333 317 150 337 170 c 128
 357 190 378.667 203 402 209 c 1
 441 394 l 2
 456.333 462 451.333 507.667 426 531 c 1
 319 465 l 1
 250 531 l 1
 202 509 169.667 460 153 384 c 0
 149.671 368.667 149.838 335.667 153.5 285 c 128
 157.167 234.333 156.667 196.333 152 171 c 0
 148.667 155.667 143 141.667 135 129 c 1
 167 179 208.333 217.667 259 245 c 1
 233 247 214.167 257.5 202.5 276.5 c 128
 190.833 295.5 187.667 317 193 341 c 0
 198.333 368.333 212.333 391.333 235 410 c 128
 257.667 428.667 282.667 438 310 438 c 0
 336 438 356.833 428.5 372.5 409.5 c 128
 388.167 390.5 393.333 367.667 388 341 c 0
 376.667 291.667 334.167 233.833 260.5 167.5 c 128
 186.833 101.167 145.667 45.3333 137 0 c 1
 39 0 l 1
 45 28 52 60 60 96 c 0
 72 154 75.6667 198.333 71 229 c 0
 57.6667 299 54 350 60 382 c 0
 72 438 96.3334 487.167 133 529.5 c 128
 169.667 571.833 215.667 600 271 614 c 1
 337 546 l 1
 424 614 l 1
 525.333 598.666 562.333 526.333 535 397 c 1
 492 197 l 1
 511.333 191 534.667 179 562 161 c 128
 589.333 143 607.667 127.333 617 114 c 1
 707 542 l 2
 719 598 742.667 634.333 778 651 c 1
 860 617 l 1
 826.665 601.667 804.332 565 793 507 c 2
 686 0 l 1
337 341 m 256
 340.328 354.333 338.161 365.5 330.5 374.5 c 128
 322.833 383.5 312.333 388 299 388 c 256
 285.667 388 273.833 383.5 263.5 374.5 c 128
 253.167 365.5 246.667 354.333 244 341 c 256
 240.667 327.667 242.5 316.667 249.5 308 c 128
 256.5 299.333 266.667 295 280 295 c 256
 293.333 295 305.333 299.333 316 308 c 128
 326.667 316.667 333.667 327.667 337 341 c 256
459 101 m 256
 462.333 115 460.333 126.5 453 135.5 c 128
 445.667 144.5 435 149 421 149 c 256
 407 149 394.833 144.5 384.5 135.5 c 128
 374.167 126.5 367.333 115 364 101 c 256
 360.667 87 362.333 75.6667 369 67 c 128
 375.667 58.3333 386 54 400 54 c 256
 414 54 426.5 58.3333 437.5 67 c 128
 448.5 75.6667 455.667 87 459 101 c 256
EndSplineSet
EndChar

StartChar: uni0E13
Encoding: 3603 3603 232
Width: 866
VWidth: 1504
Flags: HW
LayerCount: 2
Fore
SplineSet
772 102 m 0
 764.667 70.6667 748.667 43.8333 724 21.5 c 128
 699.333 -0.833334 670.667 -12 638 -12 c 0
 608.667 -12 585 -2.66667 567 16 c 128
 549 34.6667 540.667 58 542 86 c 1
 510.667 68 474.333 39.3333 433 0 c 1
 338 0 l 1
 423 399 l 2
 431 438.334 425.5 470.167 406.5 494.5 c 128
 387.5 518.833 359.667 531 323 531 c 0
 261.667 531 212.667 506 176 456 c 1
 214 452.667 242 430 260 388 c 1
 202.667 360 169.667 324 161 280 c 2
 146 209 l 1
 154 213 164 215 176 215 c 0
 207.333 215 231.5 204.167 248.5 182.5 c 128
 265.5 160.833 270.333 134 263 102 c 256
 255.666 70 238.833 43 212.5 21 c 128
 186.167 -1 157 -12 125 -12 c 0
 91.6666 -12 66 -0.5 48 22.5 c 128
 30 45.5 24.6667 74.6667 32 110 c 2
 69 286 l 2
 78.3333 328 106 361 152 385 c 1
 130.667 402.333 101 408.333 63 403 c 1
 79 465 113 516.334 165 557 c 0
 214.333 594.333 271 612.667 335 612 c 0
 402.333 612 452.833 593.167 486.5 555.5 c 128
 520.167 517.833 530 465.667 516 399 c 2
 451 95 l 1
 470.334 113 502.667 137.333 548 168 c 0
 611.333 210 648.667 235.667 660 245 c 1
 678 263 690 286.667 696 316 c 2
 745 542 l 2
 757 598 780.333 634.333 815 651 c 1
 898 617 l 1
 864.667 601.667 842 565 830 507 c 2
 784 284 l 2
 774.667 244.666 758 217.333 734 202 c 1
 768.67 179.333 781.336 146 772 102 c 0
710 104 m 256
 713.333 118 710.833 130 702.5 140 c 128
 694.167 150 683 155 669 155 c 256
 655 155 642 150 630 140 c 128
 618 130 610.667 118 608 104 c 256
 604.667 90 607 78 615 68 c 128
 623 58 634 53 648 53 c 256
 662 53 675 58 687 68 c 128
 699 78 706.667 90 710 104 c 256
203 101 m 256
 206.333 115 204 127 196 137 c 128
 188 147 176.667 152 162 152 c 256
 148 152 135 147 123 137 c 128
 111 127 103.667 115 101 101 c 256
 97.6667 87 100 75 108 65 c 128
 116 55 127 50 141 50 c 256
 155 50 168 55 180 65 c 128
 192 75 199.667 87 203 101 c 256
EndSplineSet
EndChar

StartChar: uni0E14
Encoding: 3604 3604 233
Width: 609
VWidth: 1504
Flags: HW
LayerCount: 2
Fore
SplineSet
349 363 m 0
 351 376.335 348.667 387.168 342 395.5 c 128
 335.332 403.833 325.665 408 313 408 c 256
 299.667 408 287.833 403.667 277.5 395 c 128
 267.167 386.332 261 375.665 259 363 c 0
 255.667 349.667 257.333 338.667 264 330 c 128
 270.667 321.333 280.333 317 293 317 c 256
 306.334 317 318.167 321.333 328.5 330 c 128
 338.836 338.667 345.669 349.667 349 363 c 0
481 71 m 2
 469 13.6667 445.667 -23.6667 411 -41 c 1
 337 0 l 1
 366.333 17.3333 386 52.3333 396 105 c 2
 457 403 l 1
 466.332 441 459.165 472 435.5 496 c 128
 411.833 520 380.333 532 341 532 c 0
 299 532 259.5 517.833 222.5 489.5 c 128
 185.5 461.167 162.333 427 153 387 c 0
 147.667 361.667 148.334 326 155 280 c 128
 161.667 234 162.667 199.333 158 176 c 0
 156.667 168.667 153.667 159 149 147 c 1
 188.333 194.333 229.333 234 272 266 c 1
 244.666 268 225.333 279 214 299 c 1
 202 316.334 199 337.667 205 363 c 1
 210.333 389 224.833 411.667 248.5 431 c 128
 272.167 450.333 297.667 460 325 460 c 256
 352.334 460 373.167 450.333 387.5 431 c 128
 401.835 411.667 406.668 389 402 363 c 0
 392 317.667 358.667 267.333 302 212 c 0
 226 136.667 182 91.6667 170 77 c 0
 150 51 137.333 25.3333 132 0 c 1
 38 0 l 1
 46 37.3333 53.3333 71.3333 60 102 c 0
 71.3333 156 74.3333 197.667 69 227 c 0
 65 253 61.5 279.833 58.5 307.5 c 128
 55.5 335.167 56 359.667 60 381 c 0
 75.3334 449 111.333 504.5 168 547.5 c 128
 224.667 590.5 287 612 355 612 c 0
 424.333 612 477 594 513 558 c 0
 552.333 518.666 565 465 551 397 c 2
 481 71 l 2
EndSplineSet
EndChar

StartChar: uni0E15
Encoding: 3605 3605 234
Width: 609
VWidth: 1504
Flags: HW
LayerCount: 2
Fore
SplineSet
343 340 m 0
 345 353.334 342.667 364.167 336 372.5 c 128
 329.332 380.833 319.665 385 307 385 c 256
 293.667 385 281.833 380.833 271.5 372.5 c 128
 261.167 364.167 255 353.333 253 340 c 0
 249.67 326.667 251.337 315.833 258 307.5 c 128
 264.667 299.167 274.333 295 287 295 c 256
 300.335 295 312.168 299.167 322.5 307.5 c 128
 332.834 315.833 339.667 326.667 343 340 c 0
481 71 m 2
 469 13.6667 445.667 -23.6667 411 -41 c 1
 337 0 l 1
 366.333 17.3333 386 52.3333 396 105 c 1
 456 394 l 2
 470 458 462.333 504 433 532 c 1
 325 465 l 1
 248 532 l 1
 200.667 510.667 169.667 463.333 155 390 c 1
 149 366 148.167 330.333 152.5 283 c 128
 156.833 235.667 157 200.333 153 177 c 1
 149 161 142.667 144.667 134 128 c 1
 143.333 142 162 161.5 190 186.5 c 128
 218 211.5 244 230.667 268 244 c 1
 240.666 246 221.333 256.5 210 275.5 c 128
 198.665 294.5 195.332 315.333 200 338 c 0
 206 365.333 220.333 388.5 243 407.5 c 128
 265.667 426.5 290.333 436 317 436 c 256
 344.333 436 365.5 426.5 380.5 407.5 c 128
 395.5 388.5 400 365.333 394 338 c 0
 384.667 294.667 352.667 249.333 298 202 c 0
 224 138 179.667 96.3333 165 77 c 0
 143.667 47.6667 131.333 22 128 0 c 1
 33 0 l 1
 43 38 52 76.6667 60 116 c 0
 68 156 70 193 66 227 c 0
 56 299 55 353.333 63 390 c 0
 74.3333 445.333 98 493 134 533 c 128
 170 573 215 600 269 614 c 1
 341 549 l 1
 435 614 l 1
 539 598 577.667 525.667 551 397 c 2
 481 71 l 2
EndSplineSet
EndChar

StartChar: uni0E16
Encoding: 3606 3606 235
Width: 588
VWidth: 1504
Flags: HW
LayerCount: 2
Fore
SplineSet
203 101 m 256
 206.333 115 204 127 196 137 c 128
 188 147 176.667 152 162 152 c 256
 148 152 135 147 123 137 c 128
 111 127 103.667 115 101 101 c 256
 97.6667 87 100 75 108 65 c 128
 116 55 127 50 141 50 c 256
 155 50 168 55 180 65 c 128
 192 75 199.667 87 203 101 c 256
460 71 m 2
 448 13.6667 424.667 -23.6667 390 -41 c 1
 316 0 l 1
 345.333 17.3333 365 52.3333 375 105 c 1
 436 399 l 2
 445.333 440.333 440 472.833 420 496.5 c 128
 400 520.167 369.333 532 328 532 c 0
 268 532 216.667 506.667 174 456 c 1
 219.333 446.667 248 424 260 388 c 1
 202.667 358 169.667 322 161 280 c 2
 146 209 l 1
 154 213 164 215 176 215 c 0
 207.333 215 231.5 204.167 248.5 182.5 c 128
 265.5 160.833 270.333 134 263 102 c 256
 255.666 70 238.833 43 212.5 21 c 128
 186.167 -1 157 -12 125 -12 c 0
 91.6666 -12 66 -0.5 48 22.5 c 128
 30 45.5 24.6667 74.6667 32 110 c 2
 69 286 l 2
 78.3333 328 106 361 152 385 c 1
 130.667 402.333 101 408.333 63 403 c 1
 79 465 114 516.334 168 557 c 0
 218 594.333 275.667 612.667 341 612 c 0
 413 612 466 592.667 500 554 c 128
 534 515.333 543.667 463 529 397 c 2
 460 71 l 2
EndSplineSet
EndChar

StartChar: uni0E17
Encoding: 3607 3607 236
Width: 658
VWidth: 1504
Flags: HW
LayerCount: 2
Fore
SplineSet
531 71 m 2
 519 13.6667 495.333 -23.6667 460 -41 c 1
 387 0 l 1
 416.334 17.3333 435.667 52.3333 445 105 c 1
 525 486 l 2
 532.333 517.333 528.333 532.667 513 532 c 0
 499.667 532 489 524.667 481 510 c 2
 194 0 l 1
 89 0 l 1
 170 387 l 1
 160 385 151.333 384 144 384 c 0
 112 384 87.3333 395.167 70 417.5 c 128
 52.6667 439.833 47.3333 467 54 499 c 0
 61.3333 530.333 78.1667 557 104.5 579 c 128
 130.833 601 160.333 612 193 612 c 0
 227 612 252.667 600.5 270 577.5 c 128
 287.336 554.5 292.669 525.333 286 490 c 2
 238 266 l 2
 230.667 232 213.667 179 187 107 c 1
 207 151 231 200 259 254 c 2
 400 522 l 2
 432 583.333 476 613.333 532 612 c 0
 607.333 610.667 636 568 618 484 c 2
 531 71 l 2
220 498 m 256
 223.333 512 220.833 524 212.5 534 c 128
 204.167 544 193 549 179 549 c 256
 165 549 152 544 140 534 c 128
 128 524 120.333 512 117 498 c 256
 113.667 484 116.167 472 124.5 462 c 128
 132.833 452 144 447 158 447 c 256
 172 447 185 452 197 462 c 128
 209 472 216.667 484 220 498 c 256
EndSplineSet
EndChar

StartChar: uni0E18
Encoding: 3608 3608 237
Width: 538
VWidth: 1504
Flags: HW
LayerCount: 2
Fore
SplineSet
412 128 m 2
 392 34.6667 319.333 -12 194 -12 c 0
 69.3333 -12 17.3333 34.6667 38 128 c 2
 59 229 l 2
 71 285 94.3334 321.333 129 338 c 1
 212 304 l 1
 178.667 288.667 156 252 144 194 c 2
 129 122 l 2
 121 86 148.667 68 212 68 c 0
 274 68 309 86 317 122 c 2
 360 320 l 2
 365.333 343.333 330.5 363.833 255.5 381.5 c 128
 180.5 399.167 115.333 413.333 60 424 c 1
 80 488 105.667 534.667 137 564 c 1
 173 596 222 612 284 612 c 0
 306 612 335.167 607.333 371.5 598 c 128
 407.833 588.667 434 584 450 584 c 0
 472 584 491 606.333 507 651 c 1
 576 632 l 1
 550.665 576.667 528.831 541.5 510.5 526.5 c 128
 492.167 511.5 464.333 504 427 504 c 0
 409 504 383.5 509 350.5 519 c 128
 317.5 529 291 534 271 534 c 0
 217 534 184.333 517.333 173 484 c 1
 266.333 462.667 338.833 442.667 390.5 424 c 128
 442.167 405.333 463.333 372.666 454 326 c 2
 412 128 l 2
EndSplineSet
EndChar

StartChar: uni0E19
Encoding: 3609 3609 238
Width: 651
VWidth: 1504
Flags: HW
LayerCount: 2
Fore
SplineSet
557 101 m 0
 549.667 69 532.667 42.1667 506 20.5 c 128
 479.333 -1.16667 450.666 -12 420 -12 c 0
 390.667 -12 367.5 -2.66667 350.5 16 c 128
 333.5 34.6667 326 58 328 86 c 1
 292 70 266.333 58 251 50 c 0
 223 34.6667 200.667 18 184 0 c 1
 89 0 l 1
 170 387 l 1
 160 385 151.333 384 144 384 c 0
 112 384 87.3333 395.167 70 417.5 c 128
 52.6667 439.833 47.3333 467 54 499 c 0
 61.3333 530.333 78.1667 557 104.5 579 c 128
 130.833 601 160.333 612 193 612 c 0
 227 612 252.667 600.5 270 577.5 c 128
 287.336 554.5 292.669 525.333 286 490 c 2
 205 108 l 1
 223 120 262.333 137.667 323 161 c 0
 378.334 182.333 417.667 203.333 441 224 c 0
 458.333 239.333 470.333 263.333 477 296 c 2
 529 542 l 2
 541 598 564.667 634.333 600 651 c 1
 683 617 l 1
 649.667 601.667 627 565 615 507 c 2
 569 284 l 2
 559.667 244 543 216.667 519 202 c 1
 553.668 180 566.334 146.333 557 101 c 0
220 498 m 256
 223.333 512 220.833 524 212.5 534 c 128
 204.167 544 193 549 179 549 c 256
 165 549 152 544 140 534 c 128
 128 524 120.333 512 117 498 c 256
 113.667 484 116.167 472 124.5 462 c 128
 132.833 452 144 447 158 447 c 256
 172 447 185 452 197 462 c 128
 209 472 216.667 484 220 498 c 256
493 101 m 256
 496.333 115 494 127 486 137 c 128
 478 147 467 152 453 152 c 256
 439 152 426 147 414 137 c 128
 402 127 394.333 115 391 101 c 256
 387.667 87 390.167 75 398.5 65 c 128
 406.833 55 418 50 432 50 c 256
 446 50 458.833 55 470.5 65 c 128
 482.167 75 489.667 87 493 101 c 256
EndSplineSet
EndChar

StartChar: uni0E1A
Encoding: 3610 3610 239
Width: 669
VWidth: 1504
Flags: HW
LayerCount: 2
Fore
SplineSet
220 498 m 256
 223.333 512 220.833 524 212.5 534 c 128
 204.167 544 193 549 179 549 c 256
 165 549 152 544 140 534 c 128
 128 524 120.333 512 117 498 c 256
 113.667 484 116.167 472 124.5 462 c 128
 132.833 452 144 447 158 447 c 256
 172 447 185 452 197 462 c 128
 209 472 216.667 484 220 498 c 256
555 135 m 2
 533.666 37 450.333 -12 305 -12 c 0
 158.333 -12 95.6667 37 117 135 c 2
 170 387 l 1
 160 385 151.333 384 144 384 c 0
 112 384 87.3333 395.167 70 417.5 c 128
 52.6667 439.833 47.3333 467 54 499 c 0
 61.3333 530.333 78.1667 557 104.5 579 c 128
 130.833 601 160.333 612 193 612 c 0
 227 612 252.667 600.5 270 577.5 c 128
 287.336 554.5 292.669 525.333 286 490 c 2
 209 134 l 2
 205 114 215.333 98 240 86 c 128
 264.667 74 292 68 322 68 c 0
 351.334 68 380.667 74 410 86 c 128
 439.333 98 456 114 460 134 c 2
 548 542 l 2
 560 598 583.333 634.333 618 651 c 1
 701 617 l 1
 667.667 601.667 645 565 633 507 c 2
 555 135 l 2
EndSplineSet
EndChar

StartChar: uni0E1B
Encoding: 3611 3611 240
Width: 669
VWidth: 1504
Flags: HW
LayerCount: 2
Fore
SplineSet
555 135 m 2
 533.666 37 450.333 -12 305 -12 c 0
 158.333 -12 95.6667 37 117 135 c 2
 170 387 l 1
 160 385 151.333 384 144 384 c 0
 112 384 87.3333 395.167 70 417.5 c 128
 52.6667 439.833 47.3333 467 54 499 c 0
 61.3333 530.333 78.1667 557 104.5 579 c 128
 130.833 601 160.333 612 193 612 c 0
 227 612 252.667 600.5 270 577.5 c 128
 287.336 554.5 292.669 525.333 286 490 c 2
 209 134 l 2
 205 114 215.333 98 240 86 c 128
 264.667 74 292 68 322 68 c 0
 351.334 68 380.667 74 410 86 c 128
 439.333 98 456 114 460 134 c 2
 594 763 l 2
 606 819 629.667 855.333 665 872 c 1
 748 838 l 1
 714.667 822.667 692 786 680 728 c 2
 555 135 l 2
220 498 m 256
 223.333 512 220.833 524 212.5 534 c 128
 204.167 544 193 549 179 549 c 256
 165 549 152 544 140 534 c 128
 128 524 120.333 512 117 498 c 256
 113.667 484 116.167 472 124.5 462 c 128
 132.833 452 144 447 158 447 c 256
 172 447 185 452 197 462 c 128
 209 472 216.667 484 220 498 c 256
EndSplineSet
EndChar

StartChar: uni0E1C
Encoding: 3612 3612 241
Width: 622
VWidth: 1504
Flags: HW
LayerCount: 2
Fore
SplineSet
480 0 m 1
 387 0 l 1
 287 241 l 1
 86 0 l 1
 -6 0 l 1
 98 490 l 2
 105.333 525.333 123.167 554.5 151.5 577.5 c 128
 179.833 600.5 210.667 612 244 612 c 0
 276 612 300.5 600.833 317.5 578.5 c 128
 334.5 556.166 340 529.333 334 498 c 0
 326.667 466 309.833 439 283.5 417 c 128
 257.167 395 228 384 196 384 c 0
 182 384 172.667 384.333 168 385 c 1
 114 128 l 1
 272 313 l 1
 332 313 l 1
 412 126 l 1
 501 542 l 2
 513 598 536.667 634.333 572 651 c 1
 654 617 l 1
 620.666 601.667 598.333 565 587 507 c 2
 480 0 l 1
271 498 m 256
 274.333 512 271.833 524 263.5 534 c 128
 255.167 544 244 549 230 549 c 256
 216 549 203 544 191 534 c 128
 179 524 171.333 512 168 498 c 256
 164.667 484 167.167 472 175.5 462 c 128
 183.833 452 195 447 209 447 c 256
 223 447 236 452 248 462 c 128
 260 472 267.667 484 271 498 c 256
EndSplineSet
EndChar

StartChar: uni0E1D
Encoding: 3613 3613 242
Width: 622
VWidth: 1504
Flags: HW
LayerCount: 2
Fore
SplineSet
271 498 m 256
 274.333 512 271.833 524 263.5 534 c 128
 255.167 544 244 549 230 549 c 256
 216 549 203 544 191 534 c 128
 179 524 171.333 512 168 498 c 256
 164.667 484 167.167 472 175.5 462 c 128
 183.833 452 195 447 209 447 c 256
 223 447 236 452 248 462 c 128
 260 472 267.667 484 271 498 c 256
480 0 m 1
 387 0 l 1
 287 241 l 1
 86 0 l 1
 -6 0 l 1
 98 490 l 2
 105.333 525.333 123.167 554.5 151.5 577.5 c 128
 179.833 600.5 210.667 612 244 612 c 0
 276 612 300.5 600.833 317.5 578.5 c 128
 334.5 556.166 340 529.333 334 498 c 0
 326.667 466 309.833 439 283.5 417 c 128
 257.167 395 228 384 196 384 c 0
 182 384 172.667 384.333 168 385 c 1
 114 128 l 1
 272 313 l 1
 332 313 l 1
 412 126 l 1
 548 763 l 2
 560 819 583.333 855.333 618 872 c 1
 701 838 l 1
 667.667 822.667 645 786 633 728 c 2
 480 0 l 1
EndSplineSet
EndChar

StartChar: uni0E1E
Encoding: 3614 3614 243
Width: 725
VWidth: 1504
Flags: HW
LayerCount: 2
Fore
SplineSet
582 0 m 1
 477 0 l 1
 433 466 l 1
 190 0 l 1
 89 0 l 1
 170 387 l 1
 160 385 151.333 384 144 384 c 0
 112 384 87.3333 395.167 70 417.5 c 128
 52.6667 439.833 47.3333 467 54 499 c 0
 61.3333 530.333 78.1667 557 104.5 579 c 128
 130.833 601 160.333 612 193 612 c 0
 227 612 252.667 600.5 270 577.5 c 128
 287.336 554.5 292.669 525.333 286 490 c 2
 238 266 l 2
 232.667 240 215.667 187 187 107 c 1
 228.333 198.333 250.667 247.333 254 254 c 2
 429 575 l 1
 486 575 l 1
 522 254 l 2
 523.333 248 525.667 199 529 107 c 1
 534.333 187 539.667 240 545 266 c 2
 603 542 l 2
 615 598 638.667 634.333 674 651 c 1
 757 617 l 1
 723.667 601.667 701 565 689 507 c 2
 582 0 l 1
220 498 m 256
 223.333 512 220.833 524 212.5 534 c 128
 204.167 544 193 549 179 549 c 256
 165 549 152 544 140 534 c 128
 128 524 120.333 512 117 498 c 256
 113.667 484 116.167 472 124.5 462 c 128
 132.833 452 144 447 158 447 c 256
 172 447 185 452 197 462 c 128
 209 472 216.667 484 220 498 c 256
EndSplineSet
EndChar

StartChar: uni0E1F
Encoding: 3615 3615 244
Width: 725
VWidth: 1504
Flags: HW
LayerCount: 2
Fore
SplineSet
582 0 m 1
 477 0 l 1
 433 466 l 1
 190 0 l 1
 89 0 l 1
 170 387 l 1
 160 385 151.333 384 144 384 c 0
 112 384 87.3333 395.167 70 417.5 c 128
 52.6667 439.833 47.3333 467 54 499 c 0
 61.3333 530.333 78.1667 557 104.5 579 c 128
 130.833 601 160.333 612 193 612 c 0
 227 612 252.667 600.5 270 577.5 c 128
 287.336 554.5 292.669 525.333 286 490 c 2
 238 266 l 2
 232.667 240 215.667 187 187 107 c 1
 228.333 198.333 250.667 247.333 254 254 c 2
 429 575 l 1
 486 575 l 1
 522 254 l 2
 523.333 248 525.667 199 529 107 c 1
 534.333 187 539.667 240 545 266 c 2
 650 763 l 2
 662 819 685.667 855.333 721 872 c 1
 803 838 l 1
 769.664 822.667 747.33 786 736 728 c 2
 582 0 l 1
220 498 m 256
 223.333 512 220.833 524 212.5 534 c 128
 204.167 544 193 549 179 549 c 256
 165 549 152 544 140 534 c 128
 128 524 120.333 512 117 498 c 256
 113.667 484 116.167 472 124.5 462 c 128
 132.833 452 144 447 158 447 c 256
 172 447 185 452 197 462 c 128
 209 472 216.667 484 220 498 c 256
EndSplineSet
EndChar

StartChar: uni0E20
Encoding: 3616 3616 245
Width: 639
VWidth: 1504
Flags: HW
LayerCount: 2
Fore
SplineSet
132 102 m 256
 135.333 116 133 128 125 138 c 128
 117 148 106 153 92 153 c 256
 78 153 65 148 53 138 c 128
 41 128 33.3333 116 30 102 c 256
 26.6667 88 29.1667 76 37.5 66 c 128
 45.8333 56 57 51 71 51 c 256
 85 51 97.8333 56 109.5 66 c 128
 121.167 76 128.667 88 132 102 c 256
511 71 m 2
 499 13.6667 475.667 -23.6667 441 -41 c 1
 367 0 l 1
 396.333 17.3333 416 52.3333 426 105 c 1
 487 399 l 2
 495 439 488.5 471.167 467.5 495.5 c 128
 446.5 519.833 416 532 376 532 c 0
 314.667 532 264.667 506.667 226 456 c 1
 273.333 446 301.667 423.333 311 388 c 1
 281 372.667 260.667 360 250 350 c 0
 234 334 223 312.667 217 286 c 0
 211.666 264 207.333 232.167 204 190.5 c 128
 200.667 148.833 197 119.333 193 102 c 0
 185.667 70 169 43 143 21 c 128
 117 -1 88.3333 -12 57 -12 c 0
 25 -12 0.5 -1 -16.5 21 c 128
 -33.5 43 -38.6667 70 -32 102 c 0
 -24.6667 133.333 -8 160 18 182 c 128
 44 204 72 215 102 215 c 0
 114 215 121 213.667 123 211 c 1
 134 304 l 1
 142 339.333 165 366.333 203 385 c 1
 179.667 402.333 150 408.333 114 403 c 1
 129.333 465 163.667 516.334 217 557 c 1
 268.333 594.333 326.333 612.667 391 612 c 0
 461 612 513.334 592.5 548 553.5 c 128
 582.667 514.5 593.667 462.333 581 397 c 2
 511 71 l 2
EndSplineSet
EndChar

StartChar: uni0E21
Encoding: 3617 3617 246
Width: 627
VWidth: 1504
Flags: HW
LayerCount: 2
Fore
SplineSet
236 498 m 256
 239.333 512 237 524 229 534 c 128
 221 544 210 549 196 549 c 256
 182 549 168.833 544 156.5 534 c 128
 144.167 524 136.667 512 134 498 c 256
 130.667 484 133 472 141 462 c 128
 149 452 160 447 174 447 c 256
 188 447 201 452 213 462 c 128
 225 472 232.667 484 236 498 c 256
168 110 m 256
 171.333 124 169 136 161 146 c 128
 153 156 142 161 128 161 c 256
 114 161 101 156 89 146 c 128
 77 136 69.3333 124 66 110 c 256
 62.6668 96 65.1668 84 73.5 74 c 128
 81.8333 64 93 59 107 59 c 256
 121 59 133.833 64 145.5 74 c 128
 157.167 84 164.667 96 168 110 c 256
484 0 m 1
 391 0 l 1
 343.667 52 292.667 88.6667 238 110 c 1
 236 102 l 2
 228.667 70 210.5 43 181.5 21 c 128
 152.5 -1 122.667 -12 92 -12 c 0
 58.6667 -12 32.6667 0 14 24 c 128
 -4.66667 48 -10.3333 76.6667 -3 110 c 0
 3 143.333 20.5 171.667 49.5 195 c 128
 78.5 218.333 109.667 230 143 230 c 2
 153 230 l 1
 187 387 l 1
 177 385 168.333 384 161 384 c 0
 129 384 104.167 395.167 86.5 417.5 c 128
 68.8333 439.833 63.6667 467 71 499 c 0
 78.3334 530.333 95.1667 557 121.5 579 c 128
 147.833 601 177 612 209 612 c 0
 243 612 268.833 600.5 286.5 577.5 c 128
 304.167 554.5 309.333 525.333 302 490 c 2
 241 205 l 1
 315 177.667 371.667 142 411 98 c 1
 505 542 l 2
 517 598 540.667 634.333 576 651 c 1
 659 617 l 1
 625.667 601.667 603 565 591 507 c 2
 484 0 l 1
EndSplineSet
EndChar

StartChar: uni0E22
Encoding: 3618 3618 247
Width: 580
VWidth: 1504
Flags: HW
LayerCount: 2
Fore
SplineSet
286 510 m 256
 289.329 524 287.162 535.5 279.5 544.5 c 128
 271.833 553.5 261 558 247 558 c 256
 233 558 220.667 553.5 210 544.5 c 128
 199.333 535.5 192.667 524 190 510 c 256
 186.667 496 188.5 484.5 195.5 475.5 c 128
 202.5 466.5 213 462 227 462 c 256
 241 462 253.5 466.5 264.5 475.5 c 128
 275.5 484.5 282.667 496 286 510 c 256
469 152 m 2
 445.667 42.6667 360 -12 212 -12 c 0
 65.3333 -12 3.33333 42.6667 26 152 c 1
 41 221 l 2
 51 269 78.3333 303 123 323 c 1
 83.6666 354.333 70.6666 400 84 460 c 0
 93.3333 504 113.333 540.333 144 569 c 128
 174.667 597.667 211.333 612 254 612 c 0
 284 612 307.5 602.833 324.5 584.5 c 128
 341.5 566.167 347 541.667 341 511 c 0
 335 483.667 320.5 460.167 297.5 440.5 c 128
 274.5 420.833 247.667 411 217 411 c 0
 201 411 187.333 413.333 176 418 c 1
 176 380 190 361 218 361 c 2
 325 361 l 1
 308 287 l 1
 202 287 l 2
 186 287 171.333 280 158 266 c 128
 144.667 252 136 236 132 218 c 2
 119 149 l 1
 107 95 143.667 68 229 68 c 0
 315 68 364 95 376 149 c 2
 459 542 l 2
 471 598 494.333 634.333 529 651 c 1
 612 617 l 1
 578.664 601.667 556.331 565 545 507 c 2
 469 152 l 2
EndSplineSet
EndChar

StartChar: uni0E23
Encoding: 3619 3619 248
Width: 494
VWidth: 1504
Flags: HW
LayerCount: 2
Fore
SplineSet
363 101 m 2
 355.667 69 338.5 42.1667 311.5 20.5 c 128
 284.5 -1.16667 255 -12 223 -12 c 256
 191 -12 165.833 -1 147.5 21 c 128
 129.166 43 123.666 70 131 102 c 256
 138.333 134 155.5 161.167 182.5 183.5 c 128
 209.5 205.833 239 217 271 217 c 0
 283 217 290.333 216.333 293 215 c 1
 320 344 l 2
 324 360 294.167 375.833 230.5 391.5 c 128
 166.833 407.167 109 419.667 57 429 c 1
 71 484.333 95.1667 528.667 129.5 562 c 128
 163.833 595.333 206.333 612 257 612 c 0
 278.333 612 306.333 607.333 341 598 c 128
 375.667 588.667 401 584 417 584 c 0
 439 584 454 606.333 462 651 c 1
 531 632 l 1
 505.667 548 463 505.667 403 505 c 0
 385 505 360.167 509.5 328.5 518.5 c 128
 296.833 527.5 272.667 532 256 532 c 0
 212 532 183.333 515 170 481 c 1
 243.333 465 304.333 448 353 430 c 128
 401.667 412 421.333 381 412 337 c 2
 363 101 l 2
298 102 m 256
 301.333 116 298.833 128 290.5 138 c 128
 282.167 148 271 153 257 153 c 256
 243 153 230 148 218 138 c 128
 206 128 198.667 116 196 102 c 256
 192.667 88 195 76 203 66 c 128
 211 56 222 51 236 51 c 256
 250 51 263 56 275 66 c 128
 287 76 294.667 88 298 102 c 256
EndSplineSet
EndChar

StartChar: uni0E24
Encoding: 3620 3620 249
Width: 588
VWidth: 1504
Flags: HW
LayerCount: 2
Fore
SplineSet
411 -161 m 2
 399 -218.333 375.333 -255.333 340 -272 c 1
 266 -232 l 1
 295.333 -214.667 315 -179.333 325 -126 c 1
 436 399 l 2
 445.333 440.333 440 472.833 420 496.5 c 128
 400 520.167 369.333 532 328 532 c 0
 268 532 216.667 506.667 174 456 c 1
 219.333 446.667 248 424 260 388 c 1
 202.667 358 169.667 322 161 280 c 2
 146 209 l 1
 154 213 164 215 176 215 c 0
 207.333 215 231.5 204.167 248.5 182.5 c 128
 265.5 160.833 270.333 134 263 102 c 256
 255.666 70 238.833 43 212.5 21 c 128
 186.167 -1 157 -12 125 -12 c 0
 91.6666 -12 66 -0.5 48 22.5 c 128
 30 45.5 24.6667 74.6667 32 110 c 2
 69 286 l 2
 78.3333 328 106 361 152 385 c 1
 130.667 402.333 101 408.333 63 403 c 1
 79 465 114 516.334 168 557 c 0
 218 594.333 275.667 612.667 341 612 c 0
 413 612 466 592.667 500 554 c 128
 534 515.333 543.667 463 529 397 c 2
 411 -161 l 2
203 101 m 256
 206.333 115 204 127 196 137 c 128
 188 147 176.667 152 162 152 c 256
 148 152 135 147 123 137 c 128
 111 127 103.667 115 101 101 c 256
 97.6667 87 100 75 108 65 c 128
 116 55 127 50 141 50 c 256
 155 50 168 55 180 65 c 128
 192 75 199.667 87 203 101 c 256
EndSplineSet
EndChar

StartChar: uni0E25
Encoding: 3621 3621 250
Width: 600
VWidth: 1504
Flags: HW
LayerCount: 2
Fore
SplineSet
548 430 m 2
 478 101 l 2
 462.667 27 443.333 -16.6667 420 -30 c 1
 347 3 l 1
 369 30.3333 380.333 67.3333 381 114 c 0
 381 158 370.167 204.333 348.5 253 c 128
 326.833 301.667 303 334.667 277 352 c 1
 247 348.667 218.333 332 191 302 c 0
 167.667 276.667 151.667 248.667 143 218 c 1
 177 218 l 2
 204.333 218 227.333 208.667 246 190 c 128
 264.667 171.333 274 149 274 123 c 0
 274 83.6667 258.667 51.5 228 26.5 c 128
 197.333 1.5 164 -11 128 -11 c 0
 98.6667 -11 75 -2.66667 57 14 c 128
 39 30.6667 30 52.6667 30 80 c 0
 30 194 62.6667 283 128 347 c 0
 179.333 398.333 235.333 424 296 424 c 1
 347.333 392 384 351 406 301 c 1
 415.333 267.667 424.333 234.667 433 202 c 1
 429.667 260 430.667 303 436 331 c 2
 457 441 l 2
 457 443 457.667 445.333 459 448 c 0
 459 453 459 453 459 454 c 0
 459 478 446.167 497 420.5 511 c 128
 394.833 525 364 532 328 532 c 0
 286.667 532 249.667 522.333 217 503 c 128
 184.333 483.667 161.667 457.333 149 424 c 1
 59 424 l 1
 75 482 109 527.834 161 561.5 c 128
 213 595.167 275 612 347 612 c 0
 402.333 612 449 600.667 487 578 c 0
 530.333 550.666 552 513.332 552 466 c 0
 552.665 456 551.331 444 548 430 c 2
205 104 m 256
 208.333 118 205.833 130 197.5 140 c 128
 189.167 150 178 155 164 155 c 256
 150 155 137 150 125 140 c 128
 113 130 105.333 118 102 104 c 256
 98.6667 90 101.167 78 109.5 68 c 128
 117.833 58 129 53 143 53 c 256
 157 53 170 58 182 68 c 128
 194 78 201.667 90 205 104 c 256
EndSplineSet
EndChar

StartChar: uni0E26
Encoding: 3622 3622 251
Width: 639
VWidth: 1504
Flags: HW
LayerCount: 2
Fore
SplineSet
132 102 m 256
 135.333 116 133 128 125 138 c 128
 117 148 106 153 92 153 c 256
 78 153 65 148 53 138 c 128
 41 128 33.3333 116 30 102 c 256
 26.6667 88 29.1667 76 37.5 66 c 128
 45.8333 56 57 51 71 51 c 256
 85 51 97.8333 56 109.5 66 c 128
 121.167 76 128.667 88 132 102 c 256
462 -161 m 2
 450 -218.333 426.333 -255.333 391 -272 c 1
 317 -232 l 1
 346.333 -214.667 366 -179.333 376 -126 c 1
 487 399 l 2
 495 439 488.5 471.167 467.5 495.5 c 128
 446.5 519.833 416 532 376 532 c 0
 314.667 532 264.667 506.667 226 456 c 1
 273.333 446 301.667 423.333 311 388 c 1
 281 372.667 260.667 360 250 350 c 0
 234 334 223 312.667 217 286 c 0
 211.666 264 207.333 232.167 204 190.5 c 128
 200.667 148.833 197 119.333 193 102 c 0
 185.667 70 169 43 143 21 c 128
 117 -1 88.3333 -12 57 -12 c 0
 25 -12 0.5 -1 -16.5 21 c 128
 -33.5 43 -38.6667 70 -32 102 c 0
 -24.6667 133.333 -8 160 18 182 c 128
 44 204 72 215 102 215 c 0
 114 215 121 213.667 123 211 c 1
 134 304 l 1
 142 339.333 165 366.333 203 385 c 1
 179 397 149.333 402.667 114 402 c 1
 129.333 465.333 163.667 517 217 557 c 1
 268.333 594.333 326.333 612.667 391 612 c 0
 461 612 513.334 592.5 548 553.5 c 128
 582.667 514.5 593.667 462.333 581 397 c 2
 462 -161 l 2
EndSplineSet
EndChar

StartChar: uni0E27
Encoding: 3623 3623 252
Width: 570
VWidth: 1504
Flags: HW
LayerCount: 2
Fore
SplineSet
450 110 m 2
 442.667 74.6666 425 45.6666 397 23 c 128
 369 0.333334 338 -11 304 -11 c 0
 272 -11 247.167 0.166666 229.5 22.5 c 128
 211.833 44.8333 206.667 71.3333 214 102 c 0
 221.333 134 238.167 161.167 264.5 183.5 c 128
 290.833 205.833 320 217 352 217 c 0
 363.333 217 372.333 216.333 379 215 c 1
 426 436 l 2
 440 500 400.667 532 308 532 c 0
 270 532 235.167 520.333 203.5 497 c 128
 171.833 473.667 151.667 442.333 143 403 c 1
 53 403 l 1
 70.3333 469 103.167 520.334 151.5 557 c 128
 199.833 593.667 257.667 612 325 612 c 0
 391 612 441 599 475 573 c 0
 517 541.666 531 494 517 430 c 2
 450 110 l 2
379 104 m 256
 382.333 118 380 130 372 140 c 128
 364 150 352.667 155 338 155 c 256
 324 155 311 150 299 140 c 128
 287 130 279.667 118 277 104 c 256
 273.667 90 276 78 284 68 c 128
 292 58 303 53 317 53 c 256
 331 53 344 58 356 68 c 128
 368 78 375.667 90 379 104 c 256
EndSplineSet
EndChar

StartChar: uni0E28
Encoding: 3624 3624 253
Width: 606
VWidth: 1504
Flags: HW
LayerCount: 2
Fore
SplineSet
478 71 m 2
 466 13.6667 442.667 -23.6667 408 -41 c 1
 334 0 l 1
 362 17.3333 381.667 52.3333 393 105 c 2
 457 411 l 2
 459 420.334 460 427.667 460 433 c 0
 460 464.333 446 489.333 418 508 c 0
 394 524 366.333 532 335 532 c 0
 291.667 532 253 517 219 487 c 128
 185 457 163 421.667 153 381 c 0
 151 369.667 149.5 351.167 148.5 325.5 c 128
 147.5 299.833 145 277.667 141 259 c 2
 132 220 l 1
 161 296 l 1
 214.333 402 271.333 455.333 332 456 c 0
 355.333 456 374.833 448.5 390.5 433.5 c 128
 406.167 418.5 414 400 414 378 c 0
 414 346 400.667 318.333 374 295 c 128
 347.333 271.667 319.333 260 290 260 c 0
 266 260 245.667 269 229 287 c 1
 179.667 195.667 144.333 100 123 0 c 1
 30 0 l 1
 50 96 l 2
 57.3333 130 60.6667 162.667 60 194 c 0
 60 209.333 59 229.667 57 255 c 128
 55 280.334 54 298.667 54 310 c 0
 54 395.333 83.6667 467 143 525 c 128
 202.333 583 274.667 612 360 612 c 0
 399.334 612 433.667 605 463 591 c 1
 503 632.333 540.333 659.333 575 672 c 1
 642 627 l 1
 602 609.667 563.333 581.667 526 543 c 1
 544 517.666 553.333 487.666 554 453 c 0
 554 437 552.333 422 549 408 c 2
 478 71 l 2
358 369 m 0
 358 393 345.333 405 320 405 c 0
 304.667 405 291.333 399 280 387 c 128
 268.667 375 263 361.667 263 347 c 0
 263 323.667 275.667 312.333 301 313 c 0
 316.335 313 329.668 318.833 341 330.5 c 128
 352.333 342.167 358 355 358 369 c 0
EndSplineSet
EndChar

StartChar: uni0E29
Encoding: 3625 3625 254
Width: 693
VWidth: 1504
Flags: HW
LayerCount: 2
Fore
SplineSet
220 498 m 256
 223.333 512 220.833 524 212.5 534 c 128
 204.167 544 193 549 179 549 c 256
 165 549 152 544 140 534 c 128
 128 524 120.333 512 117 498 c 256
 113.667 484 116.167 472 124.5 462 c 128
 132.833 452 144 447 158 447 c 256
 172 447 185 452 197 462 c 128
 209 472 216.667 484 220 498 c 256
429 352 m 256
 432.32 365.333 430.654 376.5 424 385.5 c 128
 417.333 394.5 407.333 399 394 399 c 256
 380.667 399 368.833 394.5 358.5 385.5 c 128
 348.167 376.5 341.333 365.333 338 352 c 256
 334.667 338.667 336.667 327.5 344 318.5 c 128
 351.335 309.5 361.668 305 375 305 c 256
 388.333 305 399.833 309.5 409.5 318.5 c 128
 419.167 327.5 425.667 338.667 429 352 c 256
713 356 m 1
 687 324 652 295 608 269 c 1
 579 135 l 2
 557.666 37 470.333 -12 317 -12 c 0
 162.333 -12 95.6667 37 117 135 c 2
 170 387 l 1
 160 385 151.333 384 144 384 c 0
 112 384 87.3333 395.167 70 417.5 c 128
 52.6667 439.833 47.3333 467 54 499 c 0
 61.3333 530.333 78.1667 557 104.5 579 c 128
 130.833 601 160.333 612 193 612 c 0
 227 612 252.667 600.5 270 577.5 c 128
 287.336 554.5 292.669 525.333 286 490 c 2
 211 140 l 2
 207 120 215.167 103 235.5 89 c 128
 255.833 75 288 68 332 68 c 0
 377.333 68 413.333 75 440 89 c 128
 466.667 103 482 120 486 140 c 2
 505 230 l 1
 481 224.665 459.667 222.332 441 223 c 0
 318.333 223 266 264.333 284 347 c 0
 290 375 304.333 398.833 327 418.5 c 128
 349.667 438.167 376.667 448 408 448 c 0
 437.333 448 458.833 438.833 472.5 420.5 c 128
 486.167 402.167 490 379.667 484 353 c 1
 478 321 462.667 297.667 438 283 c 1
 466 285 493.333 290 520 298 c 1
 572 542 l 2
 584 598 607.333 634.333 642 651 c 1
 725 617 l 1
 691.667 601.667 669 565 657 507 c 2
 624 350 l 1
 643.333 365.333 660 384 674 406 c 1
 713 356 l 1
EndSplineSet
EndChar

StartChar: uni0E2A
Encoding: 3626 3626 255
Width: 600
VWidth: 1504
Flags: HW
LayerCount: 2
Fore
SplineSet
548 430 m 2
 478 101 l 2
 462.667 27 443.333 -16.6667 420 -30 c 1
 347 3 l 1
 369 30.3333 380.333 67.3333 381 114 c 0
 381 158 370.167 204.333 348.5 253 c 128
 326.833 301.667 303 334.667 277 352 c 1
 247 348.667 218.333 332 191 302 c 0
 167.667 276.667 151.667 248.667 143 218 c 1
 177 218 l 2
 204.333 218 227.333 208.667 246 190 c 128
 264.667 171.333 274 149 274 123 c 0
 274 83.6667 258.667 51.5 228 26.5 c 128
 197.333 1.5 164 -11 128 -11 c 0
 98.6667 -11 75 -2.66667 57 14 c 128
 39 30.6667 30 52.6667 30 80 c 0
 30 194 62.6667 283 128 347 c 0
 179.333 398.333 235.333 424 296 424 c 1
 347.333 392 384 351 406 301 c 1
 415.333 267.667 424.333 234.667 433 202 c 1
 429.667 260 430.667 303 436 331 c 2
 457 441 l 2
 458.333 446.337 459 450.67 459 454 c 0
 459 478 446.167 497 420.5 511 c 128
 394.833 525 364 532 328 532 c 0
 286.667 532 249.667 522.333 217 503 c 128
 184.333 483.667 161.667 457.333 149 424 c 1
 59 424 l 1
 75 482 109 527.834 161 561.5 c 128
 213 595.167 275 612 347 612 c 0
 389 612 427.333 604.667 462 590 c 1
 505.333 635.333 543 662.667 575 672 c 1
 642 627 l 1
 600 609.667 561.333 581.667 526 543 c 1
 543.333 521 552 495.333 552 466 c 0
 552.665 456 551.331 444 548 430 c 2
205 104 m 256
 208.333 118 205.833 130 197.5 140 c 128
 189.167 150 178 155 164 155 c 256
 150 155 137 150 125 140 c 128
 113 130 105.333 118 102 104 c 256
 98.6667 90 101.167 78 109.5 68 c 128
 117.833 58 129 53 143 53 c 256
 157 53 170 58 182 68 c 128
 194 78 201.667 90 205 104 c 256
EndSplineSet
EndChar

StartChar: uni0E2B
Encoding: 3627 3627 256
Width: 658
VWidth: 1504
Flags: HW
LayerCount: 2
Fore
SplineSet
531 71 m 2
 519 13.6667 495.333 -23.6667 460 -41 c 1
 387 0 l 1
 416.334 17.3333 435.667 52.3333 445 105 c 1
 493 334 l 2
 498.333 361.333 495.333 375 484 375 c 0
 476 375 462 362.333 442 337 c 2
 176 0 l 1
 89 0 l 1
 170 387 l 1
 160 385 151.333 384 144 384 c 0
 112 384 87.3333 395.167 70 417.5 c 128
 52.6667 439.833 47.3333 467 54 499 c 0
 61.3333 530.333 78.1667 557 104.5 579 c 128
 130.833 601 160.333 612 193 612 c 0
 227 612 252.667 600.5 270 577.5 c 128
 287.336 554.5 292.669 525.333 286 490 c 2
 238 266 l 2
 232.667 240 215.667 187 187 107 c 1
 206.333 150.333 229.333 190 256 226 c 1
 370 369 l 2
 394 399 413.667 416 429 420 c 1
 413.667 445.333 409 471.333 415 498 c 0
 422.334 530 439.167 557 465.5 579 c 128
 491.834 601 521.334 612 554 612 c 256
 586 612 610.667 601 628 579 c 128
 645.333 557 650.667 530 644 498 c 0
 636.667 464.667 616.667 435.667 584 411 c 1
 591.333 385.667 591.667 358.333 585 329 c 2
 531 71 l 2
220 498 m 256
 223.333 512 220.833 524 212.5 534 c 128
 204.167 544 193 549 179 549 c 256
 165 549 152 544 140 534 c 128
 128 524 120.333 512 117 498 c 256
 113.667 484 116.167 472 124.5 462 c 128
 132.833 452 144 447 158 447 c 256
 172 447 185 452 197 462 c 128
 209 472 216.667 484 220 498 c 256
581 498 m 256
 584.333 512 581.833 524 573.5 534 c 128
 565.167 544 554 549 540 549 c 256
 526 549 513 544 501 534 c 128
 489 524 481.333 512 478 498 c 256
 474.667 484 477.167 472 485.5 462 c 128
 493.833 452 505 447 519 447 c 256
 533 447 546 452 558 462 c 128
 570 472 577.667 484 581 498 c 256
EndSplineSet
EndChar

StartChar: uni0E2C
Encoding: 3628 3628 257
Width: 703
VWidth: 1504
Flags: HW
LayerCount: 2
Fore
SplineSet
561 0 m 1
 466 0 l 1
 381 268 l 1
 185 0 l 1
 89 0 l 1
 170 387 l 1
 160 385 151.333 384 144 384 c 0
 112 384 87.3333 395.167 70 417.5 c 128
 52.6667 439.833 47.3333 467 54 499 c 0
 61.3333 530.333 78.1667 557 104.5 579 c 128
 130.833 601 160.333 612 193 612 c 0
 227 612 252.667 600.5 270 577.5 c 128
 287.336 554.5 292.669 525.333 286 490 c 2
 235 250 l 2
 227.667 218.667 211 169.333 185 102 c 1
 199 126 215 150 233 174 c 1
 361 332 l 1
 427 332 l 1
 489 174 l 1
 497 150 503 126 507 102 c 1
 509.004 169.333 513.337 218.667 520 250 c 2
 549 387 l 1
 539 385 530.333 384 523 384 c 0
 491 384 466.333 395.167 449 417.5 c 128
 431.667 439.833 426.333 467 433 499 c 0
 440.334 530.333 457.168 557 483.5 579 c 128
 509.833 601 539.333 612 572 612 c 0
 590 612 606 608 620 600 c 1
 652 633.333 686 657.333 722 672 c 1
 790 627 l 1
 732 601.666 689.667 574.332 663 545 c 1
 668.333 529 669 510.667 665 490 c 2
 561 0 l 1
599 498 m 256
 602.333 512 599.833 524 591.5 534 c 128
 583.167 544 572 549 558 549 c 256
 544 549 531 544 519 534 c 128
 507 524 499.333 512 496 498 c 256
 492.667 484 495.167 472 503.5 462 c 128
 511.833 452 523 447 537 447 c 256
 551 447 564 452 576 462 c 128
 588 472 595.667 484 599 498 c 256
220 498 m 256
 223.333 512 220.833 524 212.5 534 c 128
 204.167 544 193 549 179 549 c 256
 165 549 152 544 140 534 c 128
 128 524 120.333 512 117 498 c 256
 113.667 484 116.167 472 124.5 462 c 128
 132.833 452 144 447 158 447 c 256
 172 447 185 452 197 462 c 128
 209 472 216.667 484 220 498 c 256
EndSplineSet
Substitution2: "<23,16000>  in Thai lookup 77 nested-substitutions 0 subtable" uni0E2C.alt1
Substitution2: "Single Substitution lookup 58 subtable" uni0E2C.alt1
EndChar

StartChar: uni0E2D
Encoding: 3629 3629 258
Width: 592
VWidth: 1504
Flags: HW
LayerCount: 2
Fore
SplineSet
478 135 m 2
 466.667 83 434.667 44.6667 382 20 c 1
 340 -1.33333 289 -12 229 -12 c 256
 169 -12 122.333 -1.33333 89 20 c 0
 49.6667 45.3333 35.6667 83.6667 47 135 c 2
 78 287 l 2
 86 323 102.5 353.333 127.5 378 c 128
 152.5 402.667 183.667 415 221 415 c 0
 253 415 277.833 404.167 295.5 382.5 c 128
 313.167 360.833 318.333 334 311 302 c 0
 305 270.667 288.5 244.167 261.5 222.5 c 128
 234.5 200.833 205 190 173 190 c 0
 163.667 190 156.667 191 152 193 c 1
 141 146 l 2
 129.667 94 165 68 247 68 c 256
 329 68 375.667 94.3334 387 147 c 2
 448 436 l 2
 455.333 469.333 445.333 494.333 418 511 c 0
 394.667 525 364 532 326 532 c 0
 230.667 532 173.667 507.667 155 459 c 1
 65 459 l 1
 100.333 560.333 190.333 611.333 335 612 c 0
 402.333 612 455 599.667 493 575 c 1
 538.333 543 554 494.667 540 430 c 2
 478 135 l 2
248 302 m 256
 251.333 316 249 328 241 338 c 128
 233 348 222 353 208 353 c 256
 194 353 180.833 348 168.5 338 c 128
 156.167 328 148.667 316 146 302 c 256
 142.667 288 145 276 153 266 c 128
 161 256 172.333 251 187 251 c 256
 201 251 213.833 256 225.5 266 c 128
 237.167 276 244.667 288 248 302 c 256
EndSplineSet
EndChar

StartChar: uni0E2E
Encoding: 3630 3630 259
Width: 579
VWidth: 1504
Flags: HW
LayerCount: 2
Fore
SplineSet
465 135 m 2
 453.667 83 421.667 44.6667 369 20 c 1
 327 -1.33333 275.667 -12 215 -12 c 256
 155 -12 108.333 -1.33333 75 20 c 0
 35.6667 45.3333 21.6667 83.6667 33 135 c 2
 59 259 l 2
 67 295 83.5 325.333 108.5 350 c 128
 133.5 374.667 164.667 387 202 387 c 0
 234 387 258.667 376.167 276 354.5 c 128
 293.334 332.833 298.667 306 292 274 c 0
 286 242.667 269.5 216 242.5 194 c 128
 215.5 172 185.667 161 153 161 c 0
 143.667 161 136.667 162 132 164 c 1
 128 146 l 1
 116.667 94 151.667 68 233 68 c 0
 315 68 361.667 94.3334 373 147 c 2
 444 477 l 1
 402.667 441 342.333 423 263 423 c 0
 135.667 423 77.6667 449.333 89 502 c 0
 105 576 186.667 613.333 334 614 c 0
 378 614 415.667 606.333 447 591 c 1
 481 627 518 654 558 672 c 1
 626 627 l 1
 572.667 603.667 534 575.667 510 543 c 1
 529.333 513.666 534.667 474.666 526 426 c 1
 465 135 l 2
412 534 m 1
 380.667 542 345.667 546 307 546 c 0
 227 546 183.667 533.333 177 508 c 0
 173.667 492 209.333 484 284 484 c 0
 344 484 386.667 500.667 412 534 c 1
229 274 m 256
 232.333 288 229.833 300 221.5 310 c 128
 213.167 320 202 325 188 325 c 256
 174 325 161 320 149 310 c 128
 137 300 129.333 288 126 274 c 256
 122.667 260 125.167 248 133.5 238 c 128
 141.833 228 153 223 167 223 c 256
 181 223 194 228 206 238 c 128
 218 248 225.667 260 229 274 c 256
EndSplineSet
EndChar

StartChar: uni0E2F
Encoding: 3631 3631 260
Width: 571
VWidth: 1504
Flags: HW
LayerCount: 2
Fore
SplineSet
241 496 m 256
 244.333 510 241.833 522.167 233.5 532.5 c 128
 225.167 542.833 214 548 200 548 c 256
 186 548 173 542.833 161 532.5 c 128
 149 522.167 141.333 510 138 496 c 256
 134.668 482 136.834 470 144.5 460 c 128
 152.167 450 163 445 177 445 c 256
 191 445 204.333 450 217 460 c 128
 229.667 470 237.667 482 241 496 c 256
442 71 m 2
 430 13.6667 406.667 -23.6667 372 -41 c 1
 298 0 l 1
 327.334 17.3333 346.667 52.3333 356 105 c 1
 433 474 l 2
 441 510 440 529 430 531 c 1
 416 483.667 385 445.833 337 417.5 c 128
 289 389.167 240.333 375 191 375 c 0
 151.667 375 121.667 385 101 405 c 1
 75 427 66.3333 457.333 75 496 c 1
 81 528 97.5 555.333 124.5 578 c 128
 151.5 600.667 181.333 612 214 612 c 256
 246 612 270.667 600.833 288 578.5 c 128
 305.333 556.167 311 528.667 305 496 c 0
 303.667 490.667 300.667 483.333 296 474 c 1
 335.334 499.333 364.667 541.333 384 600 c 1
 451 600 l 2
 519 600 545.667 564 531 492 c 2
 442 71 l 2
EndSplineSet
EndChar

StartChar: uni0E30
Encoding: 3632 3632 261
Width: 511
VWidth: 1504
Flags: HW
LayerCount: 2
Fore
SplineSet
514 597 m 1
 474.667 437.666 383 358 239 358 c 0
 179 358 135.667 370.333 109 395 c 128
 82.3333 419.667 73 451 81 489 c 0
 87 518.333 102 543 126 563 c 128
 150 583 176.667 593 206 593 c 0
 237.333 593 260.667 582.667 276 562 c 128
 291.333 541.333 296 517 290 489 c 0
 284 461.667 272 441.667 254 429 c 1
 348 433 406.667 489 430 597 c 1
 514 597 l 1
230 489 m 0
 232 502.335 229.5 513.335 222.5 522 c 128
 215.5 530.667 205.667 535 193 535 c 256
 179.667 535 167.667 530.5 157 521.5 c 128
 146.333 512.5 140 501.667 138 489 c 0
 134.669 475.667 136.335 464.833 143 456.5 c 128
 149.667 448.167 159.667 444 173 444 c 256
 186.333 444 198.333 448.167 209 456.5 c 128
 219.667 464.835 226.667 475.668 230 489 c 0
442 256 m 1
 402.667 96.6667 311 17 167 17 c 0
 107 17 63.6667 29.1667 37 53.5 c 128
 10.3333 77.8333 0.666668 109 8 147 c 0
 14 176.333 29.1667 201 53.5 221 c 128
 77.8334 241 104.667 251 134 251 c 0
 165.333 251 188.5 240.833 203.5 220.5 c 128
 218.5 200.167 223 175.667 217 147 c 0
 211.667 119.667 200 99.6667 182 87 c 1
 276 91 334.667 147.333 358 256 c 1
 442 256 l 1
156 147 m 0
 159.333 160.333 157.5 171.5 150.5 180.5 c 128
 143.5 189.5 133.333 194 120 194 c 256
 106.667 194 94.8333 189.5 84.5 180.5 c 128
 74.1667 171.5 67.6667 160.333 65 147 c 0
 63 133.667 65.1667 122.833 71.5 114.5 c 128
 77.8334 106.167 87.6667 102 101 102 c 256
 114.333 102 126.333 106.167 137 114.5 c 128
 147.667 122.833 154 133.667 156 147 c 0
EndSplineSet
EndChar

StartChar: uni0E31
Encoding: 3633 3633 262
Width: 0
VWidth: 1504
Flags: HW
LayerCount: 2
Fore
SplineSet
214 967 m 1
 152.667 800.333 45.3333 717.333 -108 718 c 0
 -168 718 -211.667 730.167 -239 754.5 c 128
 -266.333 778.833 -276 810 -268 848 c 0
 -260.667 877.333 -245 902 -221 922 c 128
 -197 942 -170.333 952 -141 952 c 0
 -109.667 952 -86.6667 941.667 -72 921 c 128
 -57.3333 900.333 -53 876 -59 848 c 0
 -64.3333 820.667 -75.6667 800.667 -93 788 c 1
 11 792 83.6667 851.667 125 967 c 1
 214 967 l 1
-119 848 m 0
 -115.667 861.333 -117.5 872.5 -124.5 881.5 c 128
 -131.5 890.5 -141.667 895 -155 895 c 256
 -168.333 895 -180.167 890.5 -190.5 881.5 c 128
 -200.833 872.5 -207.666 861.333 -211 848 c 0
 -213 834.66 -210.667 823.827 -204 815.5 c 128
 -197.333 807.167 -187.333 803 -174 803 c 256
 -160.667 803 -148.667 807.167 -138 815.5 c 128
 -127.333 823.833 -121 834.667 -119 848 c 0
EndSplineSet
Substitution2: "<23,16000>  in Thai lookup 65 nested-substitutions 2 subtable" uni0E31.alt1
Substitution2: "Single Substitution lookup 58 subtable" uni0E31.alt1
EndChar

StartChar: uni0E32
Encoding: 3634 3634 263
Width: 515
VWidth: 1504
Flags: HW
LayerCount: 2
Fore
SplineSet
388 71 m 2
 376 13.6667 352.333 -23.6667 317 -41 c 1
 244 0 l 1
 273.334 17.3333 292.667 52.3333 302 105 c 1
 372 438 l 2
 378 466 373.333 488.667 358 506 c 128
 342.667 523.333 318.667 532 286 532 c 256
 252.667 532 223 521 197 499 c 128
 171 477 154 449 146 415 c 1
 56 415 l 1
 72 475 102 522.834 146 558.5 c 128
 190 594.167 242 612 302 612 c 0
 358 612 402.333 597.667 435 569 c 128
 467.667 540.333 478 497 466 439 c 2
 388 71 l 2
EndSplineSet
Substitution2: "<23,16000>  in Thai lookup 65 nested-substitutions 8 subtable" uni0E45
EndChar

StartChar: uni0E33
Encoding: 3635 3635 264
Width: 515
VWidth: 1504
Flags: HW
LayerCount: 2
Fore
SplineSet
388 71 m 2
 376 13.6667 352.333 -23.6667 317 -41 c 1
 244 0 l 1
 273.334 17.3333 292.667 52.3333 302 105 c 1
 372 438 l 2
 378 466 373.333 488.667 358 506 c 128
 342.667 523.333 318.667 532 286 532 c 256
 252.667 532 223 521 197 499 c 128
 171 477 154 449 146 415 c 1
 56 415 l 1
 72 475 102 522.834 146 558.5 c 128
 190 594.167 242 612 302 612 c 0
 358 612 402.333 597.667 435 569 c 128
 467.667 540.333 478 497 466 439 c 2
 388 71 l 2
92 826 m 0
 84.6667 790.667 66.1667 760.667 36.5 736 c 128
 6.83333 711.333 -25.3333 699 -60 699 c 0
 -96 699 -123.5 711.333 -142.5 736 c 128
 -161.5 760.667 -167.667 790.667 -161 826 c 0
 -153 861.333 -134 891.5 -104 916.5 c 128
 -74 941.5 -41.3333 954 -6 954 c 0
 28 954 54.8333 941.667 74.5 917 c 128
 94.1667 892.333 100 862 92 826 c 0
26 826 m 0
 30 843.333 27.5 857.833 18.5 869.5 c 128
 9.5 881.167 -3.33333 887 -20 887 c 0
 -37.3333 887 -53.1667 881 -67.5 869 c 128
 -81.8333 857 -91 842.667 -95 826 c 0
 -98.3333 808.664 -95.1667 794.33 -85.5 783 c 128
 -75.8333 771.667 -62.3333 766 -45 766 c 256
 -27.6667 766 -12.3333 771.667 1 783 c 128
 14.3333 794.333 22.6667 808.667 26 826 c 0
EndSplineSet
Substitution2: "<23,16000>  in Thai lookup 65 nested-substitutions 2 subtable" uni0E33.alt1
Substitution2: "Single Substitution lookup 58 subtable" uni0E33.alt1
EndChar

StartChar: uni0E34
Encoding: 3636 3636 265
Width: 0
VWidth: 1504
Flags: HW
LayerCount: 2
Fore
SplineSet
3 677 m 1
 -111 717 -219.667 737 -323 737 c 0
 -370.333 737 -419 734 -469 728 c 1
 -427.667 862.667 -340 930 -206 930 c 0
 -128.667 930 -72.6667 906.667 -38 860 c 128
 -3.33333 813.333 10.3333 752.333 3 677 c 1
-72 766 m 1
 -73.3333 791.333 -86.6667 814.833 -112 836.5 c 128
 -137.333 858.167 -169.333 869 -208 869 c 0
 -244 869 -276.5 861.833 -305.5 847.5 c 128
 -334.5 833.167 -355 814 -367 790 c 1
 -349 794 -322 796 -286 796 c 0
 -211.333 796 -140 786 -72 766 c 1
EndSplineSet
Substitution2: "<23,16000>  in Thai lookup 65 nested-substitutions 2 subtable" uni0E34.alt1
Substitution2: "Single Substitution lookup 58 subtable" uni0E34.alt1
EndChar

StartChar: uni0E35
Encoding: 3637 3637 266
Width: 0
VWidth: 1504
Flags: HW
LayerCount: 2
Fore
SplineSet
3 677 m 1
 -111 717 -219.667 737 -323 737 c 0
 -370.333 737 -419 734 -469 728 c 1
 -427.667 862.667 -340 930 -206 930 c 0
 -134.667 930 -81.6667 910.333 -47 871 c 1
 -26 975 l 1
 63 975 l 1
 5 698 l 1
 5 691.333 4.33333 684.333 3 677 c 1
-72 766 m 1
 -73.3333 791.333 -86.6667 814.833 -112 836.5 c 128
 -137.333 858.167 -169.333 869 -208 869 c 0
 -244 869 -276.5 861.833 -305.5 847.5 c 128
 -334.5 833.167 -355 814 -367 790 c 1
 -349 794 -322 796 -286 796 c 0
 -211.333 796 -140 786 -72 766 c 1
EndSplineSet
Substitution2: "<23,16000>  in Thai lookup 65 nested-substitutions 2 subtable" uni0E35.alt1
Substitution2: "Single Substitution lookup 58 subtable" uni0E35.alt1
EndChar

StartChar: uni0E36
Encoding: 3638 3638 267
Width: 0
VWidth: 1504
Flags: HW
LayerCount: 2
Fore
SplineSet
-72 766 m 1
 -73.3333 791.333 -86.6667 814.833 -112 836.5 c 128
 -137.333 858.167 -169.333 869 -208 869 c 0
 -244 869 -276.5 861.833 -305.5 847.5 c 128
 -334.5 833.167 -355 814 -367 790 c 1
 -349 794 -322 796 -286 796 c 0
 -211.333 796 -140 786 -72 766 c 1
21 900 m 0
 23 912 20.8333 922.167 14.5 930.5 c 128
 8.16667 938.833 -0.333333 943 -11 943 c 0
 -22.3333 943 -33.3333 938.833 -44 930.5 c 128
 -54.6667 922.167 -61 912 -63 900 c 0
 -66.3333 888 -64.1667 877.833 -56.5 869.5 c 128
 -48.8334 861.167 -39.6667 857 -29 857 c 256
 -17.6667 857 -7.33333 861.167 2 869.5 c 128
 11.3333 877.833 17.6667 888 21 900 c 0
68 900 m 0
 62.6666 880 52.8333 861.833 38.5 845.5 c 128
 24.1667 829.167 7.33333 818.667 -12 814 c 1
 3.33333 774.667 8.33333 729 3 677 c 1
 -111 717 -219.667 737 -323 737 c 0
 -370.333 737 -419 734 -469 728 c 1
 -427.667 862.667 -340 930 -206 930 c 0
 -166.667 930 -133 924 -105 912 c 1
 -97 934 -83.5 952.5 -64.5 967.5 c 128
 -45.5 982.5 -24.6667 990 -2 990 c 0
 22 990 41 981.333 55 964 c 128
 69 946.663 73.3333 925.33 68 900 c 0
EndSplineSet
Substitution2: "<23,16000>  in Thai lookup 65 nested-substitutions 2 subtable" uni0E36.alt1
Substitution2: "Single Substitution lookup 58 subtable" uni0E36.alt1
EndChar

StartChar: uni0E37
Encoding: 3639 3639 268
Width: 0
VWidth: 1504
Flags: HW
LayerCount: 2
Fore
SplineSet
3 677 m 1
 -111 717 -219.667 737 -323 737 c 0
 -370.333 737 -419 734 -469 728 c 1
 -427.667 862.667 -340 930 -206 930 c 0
 -190.667 930 -177 929 -165 927 c 1
 -155 975 l 1
 -87 975 l 1
 -101 912 l 1
 -81 902.667 -63 889 -47 871 c 1
 -26 975 l 1
 63 975 l 1
 5 698 l 1
 3 677 l 1
-72 766 m 1
 -73.3333 791.333 -86.6667 814.833 -112 836.5 c 128
 -137.333 858.167 -169.333 869 -208 869 c 0
 -244 869 -276.5 861.833 -305.5 847.5 c 128
 -334.5 833.167 -355 814 -367 790 c 1
 -349 794 -322 796 -286 796 c 0
 -211.333 796 -140 786 -72 766 c 1
EndSplineSet
Substitution2: "<23,16000>  in Thai lookup 65 nested-substitutions 2 subtable" uni0E37.alt1
Substitution2: "Single Substitution lookup 58 subtable" uni0E37.alt1
EndChar

StartChar: uni0E38
Encoding: 3640 3640 269
Width: 0
VWidth: 1504
Flags: HW
LayerCount: 2
Fore
SplineSet
-226 -146 m 256
 -224 -134.667 -226 -125 -232 -117 c 128
 -238 -109 -246.333 -105 -257 -105 c 256
 -268.333 -105 -279.167 -109 -289.5 -117 c 128
 -299.833 -125 -306 -134.667 -308 -146 c 256
 -310 -157.333 -307.833 -167.166 -301.5 -175.5 c 128
 -295.168 -183.833 -286.334 -188 -275 -188 c 256
 -263.667 -188 -253.167 -183.833 -243.5 -175.5 c 128
 -233.833 -167.167 -228 -157.333 -226 -146 c 256
-205 -296 m 2
 -217 -353.333 -240.333 -390.667 -275 -408 c 1
 -341 -370 l 1
 -315.667 -352.667 -297.667 -326 -287 -290 c 1
 -275 -238 l 1
 -289 -239 l 1
 -314.333 -239 -334 -230.333 -348 -213 c 128
 -362 -195.667 -366.333 -174.667 -361 -150 c 0
 -355 -124.667 -341.5 -103.167 -320.5 -85.5 c 128
 -299.5 -67.8333 -276 -59 -250 -59 c 0
 -224.667 -59 -204.167 -67 -188.5 -83 c 128
 -172.833 -99 -168 -121 -174 -149 c 2
 -205 -296 l 2
EndSplineSet
Substitution2: "<23,16000>  in Thai lookup 65 nested-substitutions 6 subtable" uni0E38.alt1
Substitution2: "Single Substitution lookup 59 subtable" a
Substitution2: "Single Substitution lookup 58 subtable" uni0E38.alt1
EndChar

StartChar: uni0E39
Encoding: 3641 3641 270
Width: 0
VWidth: 1504
Flags: HW
LayerCount: 2
Fore
SplineSet
-200 -274 m 2
 -207.333 -307.333 -227 -332.333 -259 -349 c 0
 -286.333 -364.333 -319.333 -372 -358 -372 c 0
 -392 -372 -420 -364.667 -442 -350 c 0
 -467.333 -334 -477 -312 -471 -284 c 2
 -460 -239 l 1
 -469 -239 l 2
 -494.333 -239 -514 -230.333 -528 -213 c 128
 -542 -195.667 -546.667 -174.667 -542 -150 c 0
 -536 -124.667 -522.333 -103.167 -501 -85.5 c 128
 -479.667 -67.8333 -456 -59 -430 -59 c 0
 -404.667 -59 -384.334 -67 -369 -83 c 128
 -353.667 -99 -349 -121 -355 -149 c 2
 -384 -284 l 2
 -387.333 -299.333 -373.667 -307 -343 -307 c 0
 -311 -307 -293.333 -299.333 -290 -284 c 2
 -265 -164 l 2
 -253 -106.667 -229.333 -69.6667 -194 -53 c 1
 -128 -90 l 1
 -153.333 -107.333 -170.333 -134 -179 -170 c 1
 -200 -274 l 2
-406 -146 m 256
 -404 -134.667 -406 -125 -412 -117 c 128
 -418 -109 -426.667 -105 -438 -105 c 256
 -449.333 -105 -460.167 -109 -470.5 -117 c 128
 -480.833 -125 -487 -134.667 -489 -146 c 256
 -491 -157.333 -488.667 -167.166 -482 -175.5 c 128
 -475.333 -183.833 -466.667 -188 -456 -188 c 256
 -444.667 -188 -434 -183.833 -424 -175.5 c 128
 -414 -167.167 -408 -157.333 -406 -146 c 256
EndSplineSet
Substitution2: "<23,16000>  in Thai lookup 65 nested-substitutions 6 subtable" uni0E39.alt1
Substitution2: "Single Substitution lookup 59 subtable" b
Substitution2: "Single Substitution lookup 58 subtable" uni0E39.alt1
EndChar

StartChar: uni0E3A
Encoding: 3642 3642 271
Width: 0
VWidth: 1504
Flags: HW
LayerCount: 2
Fore
SplineSet
-146 -114 m 256
 -149.333 -128 -157.166 -140.333 -169.5 -151 c 128
 -181.833 -161.667 -195 -167 -209 -167 c 256
 -223 -167 -234.333 -161.667 -243 -151 c 128
 -251.667 -140.333 -254.333 -128 -251 -114 c 256
 -247.667 -100 -239.667 -87.8333 -227 -77.5 c 128
 -214.333 -67.1667 -201 -62 -187 -62 c 256
 -173 -62 -161.833 -67.1667 -153.5 -77.5 c 128
 -145.167 -87.8333 -142.667 -100 -146 -114 c 256
EndSplineSet
Substitution2: "<23,16000>  in Thai lookup 65 nested-substitutions 6 subtable" uni0E3A.alt1
Substitution2: "Single Substitution lookup 59 subtable" c
Substitution2: "Single Substitution lookup 58 subtable" uni0E3A.alt1
EndChar

StartChar: uni0E3F
Encoding: 3647 3647 272
Width: 585
VWidth: 1504
Flags: HW
LayerCount: 2
Fore
SplineSet
486 227 m 0
 462.667 119.667 387.333 56.6667 260 38 c 1
 235 -84 l 1
 152 -84 l 1
 176 32 l 1
 140.667 32 95 37 39 47 c 1
 170 665 l 1
 231.333 678.333 279.333 685.333 314 686 c 1
 335 785 l 1
 418 785 l 1
 397 681 l 1
 500.333 663.667 542 608 522 514 c 0
 510.667 458.667 477.667 413.667 423 379 c 1
 478.333 341.667 499.333 291 486 227 c 0
399 226 m 0
 415 299.334 367.667 335.667 257 335 c 2
 190 335 l 1
 143 116 l 1
 159 112.667 177.667 111 199 111 c 0
 246.333 111 287.667 119.667 323 137 c 0
 365.667 157 391 186.667 399 226 c 0
433 513 m 0
 446.333 575 403.666 606 305 606 c 0
 299 606 279 603.667 245 599 c 1
 208 418 l 1
 290 418 l 2
 328 418 359.833 427 385.5 445 c 128
 411.167 463 427 485.667 433 513 c 0
EndSplineSet
EndChar

StartChar: uni0E40
Encoding: 3648 3648 273
Width: 312
VWidth: 1504
Flags: HW
LayerCount: 2
Fore
SplineSet
262 102 m 256
 254.667 70 237.5 43 210.5 21 c 128
 183.5 -1 154.333 -12 123 -12 c 0
 89 -12 63 -0.5 45 22.5 c 128
 27 45.5 21.6667 74.6667 29 110 c 2
 120 542 l 2
 132 598 155.667 634.333 191 651 c 1
 274 617 l 1
 240.667 601.667 218 565 206 507 c 2
 144 214 l 1
 149.333 216 158.333 217 171 217 c 0
 202.333 217 227.167 205.833 245.5 183.5 c 128
 263.833 161.167 269.333 134 262 102 c 256
199 102 m 256
 202.333 116 199.833 128 191.5 138 c 128
 183.167 148 172 153 158 153 c 256
 144 153 131 148 119 138 c 128
 107 128 99.3333 116 96 102 c 256
 92.6667 88 95.1667 76 103.5 66 c 128
 111.833 56 123 51 137 51 c 256
 151 51 164 56 176 66 c 128
 188 76 195.667 88 199 102 c 256
EndSplineSet
EndChar

StartChar: uni0E41
Encoding: 3649 3649 274
Width: 594
VWidth: 1504
Flags: HW
LayerCount: 2
Fore
SplineSet
262 102 m 256
 254.667 70 237.5 43 210.5 21 c 128
 183.5 -1 154.333 -12 123 -12 c 0
 89 -12 63 -0.5 45 22.5 c 128
 27 45.5 21.6667 74.6667 29 110 c 2
 120 542 l 2
 132 598 155.667 634.333 191 651 c 1
 274 617 l 1
 240.667 601.667 218 565 206 507 c 2
 144 214 l 1
 149.333 216 158.333 217 171 217 c 0
 202.333 217 227.167 205.833 245.5 183.5 c 128
 263.833 161.167 269.333 134 262 102 c 256
543 102 m 256
 535.667 70 518.5 43 491.5 21 c 128
 464.5 -1 435.667 -12 405 -12 c 0
 371 -12 344.833 -0.5 326.5 22.5 c 128
 308.167 45.5 302.667 74.6667 310 110 c 2
 402 542 l 2
 414 598 437.333 634.333 472 651 c 1
 555 617 l 1
 521.666 601.667 498.999 565 487 507 c 2
 426 214 l 1
 431.333 216 440.333 217 453 217 c 0
 484.333 217 509 205.833 527 183.5 c 128
 545 161.167 550.333 134 543 102 c 256
199 102 m 256
 202.333 116 199.833 128 191.5 138 c 128
 183.167 148 172 153 158 153 c 256
 144 153 131 148 119 138 c 128
 107 128 99.3333 116 96 102 c 256
 92.6667 88 95.1667 76 103.5 66 c 128
 111.833 56 123 51 137 51 c 256
 151 51 164 56 176 66 c 128
 188 76 195.667 88 199 102 c 256
480 102 m 256
 483.333 116 480.833 128 472.5 138 c 128
 464.167 148 453 153 439 153 c 256
 425 153 412 148 400 138 c 128
 388 128 380.667 116 378 102 c 256
 374.667 88 377 76 385 66 c 128
 393 56 404 51 418 51 c 256
 432 51 445 56 457 66 c 128
 469 76 476.667 88 480 102 c 256
EndSplineSet
EndChar

StartChar: uni0E42
Encoding: 3650 3650 275
Width: 379
VWidth: 1504
Flags: HW
LayerCount: 2
Fore
SplineSet
328 102 m 256
 320.667 70 303.5 43 276.5 21 c 128
 249.5 -1 220.667 -12 190 -12 c 0
 156 -12 129.833 -0.5 111.5 22.5 c 128
 93.1667 45.5 87.6667 74.6667 95 110 c 2
 221 707 l 1
 224.333 741 205.333 768.667 164 790 c 0
 130.667 807.333 95 815.667 57 815 c 1
 86.3334 929 149.667 986.333 247 987 c 0
 273 987 300.5 978.667 329.5 962 c 128
 358.5 945.333 379.667 937 393 937 c 0
 418.333 937 440.333 956.667 459 996 c 1
 525 978 l 1
 489 900.667 443.333 862 388 862 c 0
 368.667 862 343.333 870.333 312 887 c 128
 280.667 903.667 253.333 912 230 912 c 0
 194.667 912 169 899.333 153 874 c 1
 277.667 840 331 781.667 313 699 c 2
 211 214 l 1
 216.333 216 225.333 217 238 217 c 0
 269.333 217 294 205.833 312 183.5 c 128
 330 161.167 335.333 134 328 102 c 256
265 102 m 256
 268.333 116 265.833 128 257.5 138 c 128
 249.167 148 238 153 224 153 c 256
 210 153 197 148 185 138 c 128
 173 128 165.333 116 162 102 c 256
 158.667 88 161.167 76 169.5 66 c 128
 177.833 56 189 51 203 51 c 256
 217 51 230 56 242 66 c 128
 254 76 261.667 88 265 102 c 256
EndSplineSet
EndChar

StartChar: uni0E43
Encoding: 3651 3651 276
Width: 404
VWidth: 1504
Flags: HW
LayerCount: 2
Fore
SplineSet
353 102 m 256
 345.667 70 328.667 43 302 21 c 128
 275.333 -1 246.333 -12 215 -12 c 0
 181 -12 155 -0.5 137 22.5 c 128
 119 45.5 113.333 74.6667 120 110 c 2
 241 677 l 2
 246.333 700.333 261.667 730.667 287 768 c 128
 312.333 805.333 327 833.667 331 853 c 0
 336.333 875 332.333 892.5 319 905.5 c 128
 305.667 918.5 288 925 266 925 c 0
 232 925 206 919 188 907 c 1
 213.333 907 232.333 897.333 245 878 c 1
 255 860.667 257.667 840.667 253 818 c 0
 247 790.664 232.333 767.33 209 748 c 128
 185.667 728.667 160 719 132 719 c 0
 102.667 719 81.3333 729.5 68 750.5 c 128
 54.6667 771.5 51 796 57 824 c 0
 68.3334 878 95.3334 920.333 138 951 c 0
 177.333 978.333 224 991.667 278 991 c 0
 322 991 358.333 979.667 387 957 c 0
 418.333 931 429.333 897.333 420 856 c 1
 416 832.667 401.333 800.167 376 758.5 c 128
 350.667 716.833 335.667 685.667 331 665 c 2
 236 214 l 1
 241.333 216 250.333 217 263 217 c 0
 294.333 217 319 205.833 337 183.5 c 128
 355 161.167 360.333 134 353 102 c 256
290 102 m 256
 293.333 116 291 128 283 138 c 128
 275 148 264 153 250 153 c 256
 236 153 223 148 211 138 c 128
 199 128 191.333 116 188 102 c 256
 184.667 88 187.167 76 195.5 66 c 128
 203.833 56 215 51 229 51 c 256
 243 51 255.833 56 267.5 66 c 128
 279.167 76 286.667 88 290 102 c 256
200 817 m 256
 203.333 830.333 201.5 841.333 194.5 850 c 128
 187.5 858.667 177.333 863 164 863 c 256
 150.667 863 138.5 858.5 127.5 849.5 c 128
 116.5 840.5 109.667 829.667 107 817 c 256
 103.667 803.667 105.5 792.5 112.5 783.5 c 128
 119.5 774.5 129.667 770 143 770 c 256
 156.333 770 168.333 774.5 179 783.5 c 128
 189.667 792.5 196.667 803.667 200 817 c 256
EndSplineSet
EndChar

StartChar: uni0E44
Encoding: 3652 3652 277
Width: 379
VWidth: 1504
Flags: HW
LayerCount: 2
Fore
SplineSet
328 102 m 256
 320.667 70 303.5 43 276.5 21 c 128
 249.5 -1 220.667 -12 190 -12 c 0
 156 -12 129.833 -0.5 111.5 22.5 c 128
 93.1667 45.5 87.6667 74.6667 95 110 c 2
 253 853 l 1
 134 721 l 1
 78 739 l 1
 94 833 98.6667 920.667 92 1002 c 1
 173 1002 l 1
 167.667 922.667 161.667 863 155 823 c 1
 296 990 l 1
 316 986.667 332.333 977 345 961 c 128
 357.667 945 361.333 926 356 904 c 2
 211 214 l 1
 216.333 216 225.333 217 238 217 c 0
 269.333 217 294 205.833 312 183.5 c 128
 330 161.167 335.333 134 328 102 c 256
265 102 m 256
 268.333 116 265.833 128 257.5 138 c 128
 249.167 148 238 153 224 153 c 256
 210 153 197 148 185 138 c 128
 173 128 165.333 116 162 102 c 256
 158.667 88 161.167 76 169.5 66 c 128
 177.833 56 189 51 203 51 c 256
 217 51 230 56 242 66 c 128
 254 76 261.667 88 265 102 c 256
EndSplineSet
EndChar

StartChar: uni0E45
Encoding: 3653 3653 278
Width: 314
VWidth: 1504
Flags: HW
LayerCount: 2
Fore
SplineSet
137 -161 m 2
 125 -218.333 101.333 -255.333 66 -272 c 1
 -8 -232 l 1
 21.3333 -214.667 41 -179.333 51 -126 c 1
 170 438 l 2
 176 466 171.5 488.667 156.5 506 c 128
 141.5 523.333 117.333 532 84 532 c 256
 50.6667 532 21.3333 521 -4 499 c 128
 -29.3333 477 -46 449 -54 415 c 1
 -144 415 l 1
 -128 475 -98.1667 522.834 -54.5 558.5 c 128
 -10.8333 594.167 41 612 101 612 c 0
 157 612 201.333 597.667 234 569 c 128
 266.667 540.333 277 497 265 439 c 2
 137 -161 l 2
EndSplineSet
EndChar

StartChar: uni0E46
Encoding: 3654 3654 279
Width: 657
VWidth: 1504
Flags: HW
LayerCount: 2
Fore
SplineSet
475 -147 m 2
 463 -204.333 439.667 -241.667 405 -259 c 1
 331 -218 l 1
 360.333 -200.667 380 -165.667 390 -113 c 1
 505 435 l 2
 514.333 476.333 502 509.333 468 534 c 1
 387 480 l 1
 310 535 l 1
 290.667 523.667 275.667 508.333 265 489 c 1
 275 489 l 2
 307 489 331.833 477.667 349.5 455 c 128
 367.167 432.333 372.667 405 366 373 c 256
 358.667 341 341.5 313.667 314.5 291 c 128
 287.5 268.333 258 257 226 257 c 0
 186 257 157.667 272.5 141 303.5 c 128
 124.333 334.5 120.333 370.667 129 412 c 0
 139 462 164.167 506.333 204.5 545 c 128
 244.833 583.667 290.333 609 341 621 c 1
 402 564 l 1
 478 621 l 1
 524 609 558.167 586.667 580.5 554 c 128
 602.833 521.333 609 482 599 436 c 2
 475 -147 l 2
302 373 m 256
 305.333 388.333 302.666 401.5 294 412.5 c 128
 285.333 423.5 273.666 429 259 429 c 256
 243.666 429 229.333 423.5 216 412.5 c 128
 202.666 401.5 194.333 388.333 191 373 c 256
 187.668 357.667 190.335 344.5 199 333.5 c 128
 207.667 322.5 219.667 317 235 317 c 256
 250.333 317 264.5 322.5 277.5 333.5 c 128
 290.5 344.5 298.667 357.667 302 373 c 256
EndSplineSet
EndChar

StartChar: uni0E47
Encoding: 3655 3655 280
Width: 0
VWidth: 1504
Flags: HW
LayerCount: 2
Fore
SplineSet
5 784 m 1
 1.66667 762.667 -9.33333 744.167 -28 728.5 c 128
 -46.6667 712.833 -67 705 -89 705 c 0
 -138.333 705 -190 726.333 -244 769 c 1
 -258 765 -274.167 755.167 -292.5 739.5 c 128
 -310.833 723.833 -322.667 710 -328 698 c 1
 -373.333 733.333 -391 776 -381 826 c 0
 -373 865.333 -350.667 896 -314 918 c 0
 -282.667 938 -245.667 948 -203 948 c 2
 -101 948 l 2
 -51.6667 948 -22 970 -12 1014 c 2
 -5 1048 l 1
 66 1048 l 1
 59 1015 l 2
 49.6667 973.667 29.5 942 -1.5 920 c 128
 -32.5 898 -69 887 -111 887 c 2
 -221 887 l 2
 -237 887 -252.833 881.833 -268.5 871.5 c 128
 -284.166 861.163 -293.332 847.33 -296 830 c 1
 -300 814 -300 801 -296 791 c 1
 -276 814.333 -250.667 827 -220 829 c 1
 -200.667 813.667 -176 800.667 -146 790 c 1
 -142 810 -130.667 827 -112 841 c 128
 -93.3333 855 -74.6667 862 -56 862 c 0
 -34 862 -17 854.333 -5 839 c 128
 7 823.664 10.3333 805.33 5 784 c 1
-39 784 m 256
 -37 793.333 -38.5 801.167 -43.5 807.5 c 128
 -48.5 813.833 -55.6667 817 -65 817 c 256
 -74.3333 817 -82.8333 813.667 -90.5 807 c 128
 -98.1667 800.333 -103 792.667 -105 784 c 256
 -107 774.661 -105.333 766.827 -100 760.5 c 128
 -94.6668 754.167 -87.3334 751 -78 751 c 256
 -68.6667 751 -60.3333 754.167 -53 760.5 c 128
 -45.6667 766.833 -41 774.667 -39 784 c 256
EndSplineSet
Substitution2: "<23,16000>  in Thai lookup 65 nested-substitutions 2 subtable" uni0E47.alt1
Substitution2: "Single Substitution lookup 58 subtable" uni0E47.alt1
EndChar

StartChar: uni0E48
Encoding: 3656 3656 281
Width: 0
VWidth: 1504
Flags: HW
LayerCount: 2
Fore
SplineSet
72 1018 m 1
 -17 1018 l 1
 20 1190 l 1
 110 1190 l 1
 72 1018 l 1
EndSplineSet
Substitution2: "<23,16000>  in Thai lookup 65 nested-substitutions 5 subtable" uni0E48.alt3
Substitution2: "<23,16000>  in Thai lookup 65 nested-substitutions 3 subtable" uni0E48.alt1
Substitution2: "<23,16000>  in Thai lookup 65 nested-substitutions 2 subtable" uni0E48.alt3
Substitution2: "<23,16000>  in Thai lookup 65 nested-substitutions 0 subtable" uni0E48.alt2
Substitution2: "Single Substitution lookup 58 subtable" uni0E48.alt2
EndChar

StartChar: uni0E49
Encoding: 3657 3657 282
Width: 0
VWidth: 1504
Flags: HW
LayerCount: 2
Fore
SplineSet
233 1256 m 1
 195 1160.67 147.667 1094.67 91 1058 c 128
 34.3333 1021.33 -40 1003 -132 1003 c 2
 -174 1003 l 1
 -164 1053 l 1
 -122.667 1056.33 -95 1071 -81 1097 c 1
 -129 1110.34 -148 1139.67 -138 1185 c 0
 -132.667 1209 -119.833 1229.17 -99.5 1245.5 c 128
 -79.1667 1261.83 -57 1270 -33 1270 c 0
 -7 1270 12 1261.67 24 1245 c 128
 36 1228.33 39 1207 33 1181 c 0
 25 1141.67 -5 1100 -57 1056 c 1
 -7 1066 37.3333 1089.33 76 1126 c 128
 114.667 1162.67 141 1206 155 1256 c 1
 233 1256 l 1
-14 1182 m 0
 -12 1193.35 -14 1202.68 -20 1210 c 128
 -26 1217.33 -34.3333 1221 -45 1221 c 256
 -56.3333 1221 -66.5 1217.33 -75.5 1210 c 128
 -84.5 1202.67 -90 1193.33 -92 1182 c 0
 -95.3333 1170.67 -93.8333 1161.33 -87.5 1154 c 128
 -81.1667 1146.67 -72.6667 1143 -62 1143 c 256
 -50.6667 1143 -40.6667 1146.67 -32 1154 c 128
 -23.3333 1161.35 -17.3333 1170.68 -14 1182 c 0
EndSplineSet
Substitution2: "<23,16000>  in Thai lookup 65 nested-substitutions 5 subtable" uni0E49.alt3
Substitution2: "<23,16000>  in Thai lookup 65 nested-substitutions 3 subtable" uni0E49.alt1
Substitution2: "<23,16000>  in Thai lookup 65 nested-substitutions 2 subtable" uni0E49.alt3
Substitution2: "<23,16000>  in Thai lookup 65 nested-substitutions 0 subtable" uni0E49.alt2
Substitution2: "Single Substitution lookup 58 subtable" uni0E49.alt2
EndChar

StartChar: uni0E4A
Encoding: 3658 3658 283
Width: 0
VWidth: 1504
Flags: HW
LayerCount: 2
Fore
SplineSet
289 1247 m 1
 251 1089.67 158.333 1011 11 1011 c 1
 21 1054 l 1
 64.3333 1073.33 90 1103.67 98 1145 c 0
 103.333 1174.34 92.6666 1192.67 66 1200 c 1
 9 1152 l 1
 -27 1203 l 1
 -45 1199 -62.6667 1188 -80 1170 c 1
 -56 1170 -37.5 1162 -24.5 1146 c 128
 -11.5 1130 -7.33333 1110 -12 1086 c 0
 -17.3333 1064 -29.6667 1045 -49 1029 c 128
 -68.3333 1013 -89.6667 1005 -113 1005 c 0
 -137 1005 -155.333 1012.67 -168 1028 c 128
 -180.667 1043.34 -183.667 1064.67 -177 1092 c 0
 -173 1110 -166.333 1128 -157 1146 c 128
 -147.667 1164 -135.5 1181 -120.5 1197 c 128
 -105.5 1213 -88 1226.33 -68 1237 c 128
 -48 1247.67 -26 1254.67 -2 1258 c 1
 26 1218 l 1
 68 1258 l 1
 98 1256.67 121 1246 137 1226 c 128
 153 1206 158 1180.33 152 1149 c 0
 146 1121 134.333 1096 117 1074 c 1
 170.333 1103.33 206.667 1161 226 1247 c 1
 289 1247 l 1
-59 1086 m 256
 -57 1097.35 -58.6667 1106.68 -64 1114 c 128
 -69.3333 1121.33 -77.6667 1125 -89 1125 c 256
 -100.333 1125 -110.333 1121.33 -119 1114 c 128
 -127.667 1106.67 -133 1097.33 -135 1086 c 256
 -137 1074.67 -135 1065.5 -129 1058.5 c 128
 -123 1051.5 -114.667 1048 -104 1048 c 256
 -92.6667 1048 -82.8334 1051.5 -74.5 1058.5 c 128
 -66.1667 1065.5 -61.0001 1074.67 -59 1086 c 256
EndSplineSet
Substitution2: "<23,16000>  in Thai lookup 65 nested-substitutions 5 subtable" uni0E4A.alt3
Substitution2: "<23,16000>  in Thai lookup 65 nested-substitutions 3 subtable" uni0E4A.alt1
Substitution2: "<23,16000>  in Thai lookup 65 nested-substitutions 2 subtable" uni0E4A.alt3
Substitution2: "<23,16000>  in Thai lookup 65 nested-substitutions 0 subtable" uni0E4A.alt2
Substitution2: "Single Substitution lookup 58 subtable" uni0E4A.alt2
EndChar

StartChar: uni0E4B
Encoding: 3659 3659 284
Width: 0
VWidth: 1504
Flags: HW
LayerCount: 2
Fore
SplineSet
162 1085 m 1
 84 1085 l 1
 69 1018 l 1
 -12 1018 l 1
 2 1085 l 1
 -69 1085 l 1
 -57 1146 l 1
 14 1146 l 1
 27 1209 l 1
 110 1209 l 1
 96 1146 l 1
 174 1146 l 1
 162 1085 l 1
EndSplineSet
Substitution2: "<23,16000>  in Thai lookup 65 nested-substitutions 5 subtable" uni0E4B.alt3
Substitution2: "<23,16000>  in Thai lookup 65 nested-substitutions 3 subtable" uni0E4B.alt1
Substitution2: "<23,16000>  in Thai lookup 65 nested-substitutions 2 subtable" uni0E4B.alt3
Substitution2: "<23,16000>  in Thai lookup 65 nested-substitutions 0 subtable" uni0E4B.alt2
Substitution2: "Single Substitution lookup 58 subtable" uni0E4B.alt2
EndChar

StartChar: uni0E4C
Encoding: 3660 3660 285
Width: 0
VWidth: 1504
Flags: HW
LayerCount: 2
Fore
SplineSet
185 1256 m 1
 173.667 1218.67 155 1190.67 129 1172 c 1
 109 1156 77.6667 1142.33 35 1131 c 1
 65 1115 76 1088.33 68 1051 c 0
 62.6667 1025.67 49.5 1004.33 28.5 987 c 128
 7.5 969.667 -15.6667 961 -41 961 c 256
 -66.3333 961 -85.6667 970 -99 988 c 128
 -112.333 1006 -116.333 1027.67 -111 1053 c 0
 -97 1116.33 -54.3333 1159 17 1181 c 0
 50.3333 1191 72.3333 1199 83 1205 c 0
 105 1217 118.333 1234 123 1256 c 1
 185 1256 l 1
17 1051 m 256
 19 1062.33 17.5 1071.83 12.5 1079.5 c 128
 7.5 1087.17 -0.333333 1091 -11 1091 c 0
 -22.3333 1091 -32.6667 1087.17 -42 1079.5 c 128
 -51.3333 1071.83 -57 1062.33 -59 1051 c 256
 -61 1039.67 -59 1030.67 -53 1024 c 128
 -47 1017.33 -38.3333 1014 -27 1014 c 256
 -15.6667 1014 -6 1017.33 2 1024 c 128
 10 1030.67 15 1039.67 17 1051 c 256
EndSplineSet
Substitution2: "<23,16000>  in Thai lookup 65 nested-substitutions 5 subtable" uni0E4C.alt3
Substitution2: "<23,16000>  in Thai lookup 65 nested-substitutions 3 subtable" uni0E4C.alt1
Substitution2: "<23,16000>  in Thai lookup 65 nested-substitutions 2 subtable" uni0E4C.alt3
Substitution2: "<23,16000>  in Thai lookup 65 nested-substitutions 0 subtable" uni0E4C.alt2
Substitution2: "Single Substitution lookup 58 subtable" uni0E4C.alt2
EndChar

StartChar: uni0E4D
Encoding: 3661 3661 286
Width: 0
VWidth: 1504
Flags: HW
LayerCount: 2
Fore
SplineSet
92 826 m 0
 84.6667 790.667 66.1667 760.667 36.5 736 c 128
 6.83333 711.333 -25.3333 699 -60 699 c 0
 -96 699 -123.5 711.333 -142.5 736 c 128
 -161.5 760.667 -167.667 790.667 -161 826 c 0
 -153 861.333 -134 891.5 -104 916.5 c 128
 -74 941.5 -41.3333 954 -6 954 c 0
 28 954 54.8333 941.667 74.5 917 c 128
 94.1667 892.333 100 862 92 826 c 0
26 826 m 0
 30 843.333 27.5 857.833 18.5 869.5 c 128
 9.5 881.167 -3.33333 887 -20 887 c 0
 -37.3333 887 -53.1667 881 -67.5 869 c 128
 -81.8333 857 -91 842.667 -95 826 c 0
 -98.3333 808.664 -95.1667 794.33 -85.5 783 c 128
 -75.8333 771.667 -62.3333 766 -45 766 c 256
 -27.6667 766 -12.3333 771.667 1 783 c 128
 14.3333 794.333 22.6667 808.667 26 826 c 0
EndSplineSet
Substitution2: "<23,16000>  in Thai lookup 65 nested-substitutions 2 subtable" uni0E4D.alt1
Substitution2: "Single Substitution lookup 58 subtable" uni0E4D.alt1
EndChar

StartChar: uni0E4E
Encoding: 3662 3662 287
Width: 0
VWidth: 1504
Flags: HW
LayerCount: 2
Fore
SplineSet
-71 698 m 1
 -93 688.667 -119 684 -149 684 c 0
 -176.333 684 -198.166 692.333 -214.5 709 c 128
 -230.833 725.667 -236 747 -230 773 c 0
 -224.667 797 -212.5 817.833 -193.5 835.5 c 128
 -174.5 853.167 -153 864 -129 868 c 1
 -136.333 883.333 -138 899 -134 915 c 0
 -126.667 948.333 -108.667 973.333 -80 990 c 1
 -54 1004 -24.6667 1011 8 1011 c 0
 36 1011 62 1006 86 996 c 1
 51 940 l 1
 33 947.333 14.3333 951 -5 951 c 0
 -42.3333 951 -63.3333 939 -68 915 c 0
 -74 887.663 -51.3333 871.33 0 866 c 1
 -36 809 l 1
 -54 816.333 -69.6667 820 -83 820 c 0
 -133 820 -161 804 -167 772 c 1
 -172.333 752 -155.667 742 -117 742 c 0
 -101.667 742 -82.3334 746.333 -59 755 c 1
 -71 698 l 1
EndSplineSet
Substitution2: "<23,16000>  in Thai lookup 65 nested-substitutions 2 subtable" uni0E4E.alt1
Substitution2: "Single Substitution lookup 58 subtable" uni0E4E.alt1
EndChar

StartChar: uni0E4F
Encoding: 3663 3663 288
Width: 676
VWidth: 1504
Flags: HW
LayerCount: 2
Fore
SplineSet
420 245 m 0
 426 271 421.667 293.5 407 312.5 c 128
 392.333 331.5 371.333 341 344 341 c 256
 316.667 341 291.833 331.5 269.5 312.5 c 128
 247.167 293.5 233 271 227 245 c 0
 221 217.667 225.5 194.833 240.5 176.5 c 128
 255.5 158.167 276.667 149 304 149 c 256
 331.333 149 356 158.167 378 176.5 c 128
 400 194.833 414 217.667 420 245 c 0
472 245 m 256
 462.667 203.667 440.5 168.333 405.5 139 c 128
 370.5 109.667 332.667 95 292 95 c 256
 250.667 95 218.5 109.833 195.5 139.5 c 128
 172.5 169.167 165.333 204.333 174 245 c 256
 183.333 286.333 205.5 321.5 240.5 350.5 c 128
 275.5 379.5 313.667 394 355 394 c 256
 396.333 394 428.5 379.5 451.5 350.5 c 128
 474.5 321.5 481.333 286.333 472 245 c 256
525 245 m 0
 537 301 527.667 348.667 497 388 c 128
 466.333 427.333 423 447 367 447 c 0
 311.667 447 260 427.333 212 388 c 128
 164 348.667 134 301 122 245 c 256
 110 189 119.5 141.167 150.5 101.5 c 128
 181.5 61.8333 224.667 42 280 42 c 256
 335.333 42 387 62 435 102 c 128
 483 142 513 189.667 525 245 c 0
578 245 m 0
 562.667 175 525 115.167 465 65.5 c 128
 405 15.8333 339.667 -9 269 -9 c 256
 199 -9 144.5 15.8333 105.5 65.5 c 128
 66.5 115.167 54.3333 175 69 245 c 256
 84.3333 315 122 374.833 182 424.5 c 128
 242 474.167 307.333 499 378 499 c 0
 446 499 500.167 473.667 540.5 423 c 128
 580.833 372.333 593.333 313 578 245 c 0
EndSplineSet
EndChar

StartChar: uni0E50
Encoding: 3664 3664 289
Width: 685
VWidth: 1504
Flags: HW
LayerCount: 2
Fore
SplineSet
489 220 m 0
 498.331 266 489.665 302.5 463 329.5 c 128
 436.333 356.5 400.333 370 355 370 c 256
 309.667 370 267.667 356.5 229 329.5 c 128
 190.333 302.5 166.667 266 158 220 c 0
 148 174 156.333 137.333 183 110 c 128
 209.667 82.6667 245.333 69 290 69 c 256
 335.333 69 377.333 82.6667 416 110 c 128
 454.667 137.333 479 174 489 220 c 0
588 220 m 0
 572.667 150.667 531.667 93.3333 465 48 c 0
 405 6.66667 341.333 -14 274 -14 c 0
 206 -14 149.667 6.66667 105 48 c 0
 57.6667 93.3334 41.6667 150.667 57 220 c 0
 71 289.333 111.667 346.333 179 391 c 0
 239 432.333 303.333 453 372 453 c 0
 439.333 453 495 432.333 539 391 c 0
 585.667 346.333 602 289.333 588 220 c 0
EndSplineSet
EndChar

StartChar: uni0E51
Encoding: 3665 3665 290
Width: 685
VWidth: 1504
Flags: HW
LayerCount: 2
Fore
SplineSet
585 179 m 0
 567.667 99 526 29.3333 460 -30 c 1
 349 -30 l 1
 431 35.3333 480 105 496 179 c 0
 508 236.333 501 282.333 475 317 c 128
 449 351.667 407.333 369 350 369 c 0
 300.667 369 255.5 353.667 214.5 323 c 128
 173.5 292.333 148 254.333 138 209 c 0
 130 169 134 135.167 150 107.5 c 128
 166 79.8333 192.667 66 230 66 c 0
 245.333 66 261 68.6667 277 74 c 1
 241.667 74 216 86 200 110 c 0
 184.666 131.333 180.333 156 187 184 c 0
 194.333 215.333 211.667 241.667 239 263 c 128
 266.333 284.333 295 295 325 295 c 0
 362.333 295 389.5 282.5 406.5 257.5 c 128
 423.5 232.5 428 201.333 420 164 c 0
 408.667 112.667 382.167 70.6667 340.5 38 c 128
 298.833 5.33333 251.667 -11 199 -11 c 0
 141 -11 98.1667 10.3333 70.5 53 c 128
 42.8333 95.6667 35.3333 146.667 48 206 c 0
 63.3333 277.333 102.833 336 166.5 382 c 128
 230.167 428 298 451 370 451 c 0
 450 451 509.833 424.5 549.5 371.5 c 128
 589.167 318.5 601 254.333 585 179 c 0
353 184 m 256
 356.328 198 354.161 210 346.5 220 c 128
 338.833 230 328 235 314 235 c 256
 300 235 286.833 230 274.5 220 c 128
 262.167 210 254.333 198 251 184 c 256
 247.667 170 250.167 157.833 258.5 147.5 c 128
 266.833 137.167 278 132 292 132 c 256
 306 132 318.833 137.167 330.5 147.5 c 128
 342.167 157.833 349.667 170 353 184 c 256
EndSplineSet
EndChar

StartChar: uni0E52
Encoding: 3666 3666 291
Width: 685
VWidth: 1504
Flags: HW
LayerCount: 2
Fore
SplineSet
588 105 m 1
 574 35 533.333 0 466 0 c 2
 77 0 l 2
 21 -3.8147e-06 -0.666667 32.6667 12 98 c 2
 102 523 l 2
 105.333 536.333 102.333 545 93 549 c 0
 91.6667 549 83.3333 550 68 552 c 1
 83 629 l 1
 127 629 158 622.333 176 609 c 0
 197.333 593 203.333 564 194 522 c 2
 110 126 l 2
 104 94 115 78 143 78 c 2
 453 78 l 2
 479 78 494.333 90 499 114 c 2
 542 317 l 2
 550 353 542.667 371.333 520 372 c 0
 488 372 466 342.667 454 284 c 1
 394 284 l 1
 395.333 344 377.666 374.333 341 375 c 0
 325.667 375 312.167 368.333 300.5 355 c 128
 288.833 341.667 280.333 327 275 311 c 1
 287 311 l 2
 316.333 311 338.833 301.333 354.5 282 c 128
 370.167 262.667 375 239 369 211 c 0
 363 181.667 348.167 157.167 324.5 137.5 c 128
 300.833 117.833 274.333 108 245 108 c 0
 167 108 137.333 153.333 156 244 c 0
 168 303.333 191.333 352 226 390 c 0
 263.333 433.334 308 454.668 360 454 c 0
 409.334 454 436.667 434.667 442 396 c 1
 468 435.334 502.333 454.668 545 454 c 0
 582.333 454 608.333 440.5 623 413.5 c 128
 637.667 386.5 641.667 355.333 635 320 c 2
 588 105 l 1
311 209 m 256
 314.333 222.333 312.5 233.167 305.5 241.5 c 128
 298.5 249.833 288.333 254 275 254 c 256
 261.667 254 250.333 249.833 241 241.5 c 128
 231.667 233.166 225.667 222.333 223 209 c 256
 219.67 195.667 221.337 185 228 177 c 128
 234.667 169 244.333 165 257 165 c 256
 270.333 165 281.833 169 291.5 177 c 128
 301.167 185 307.667 195.667 311 209 c 256
EndSplineSet
EndChar

StartChar: uni0E53
Encoding: 3667 3667 292
Width: 685
VWidth: 1504
Flags: HW
LayerCount: 2
Fore
SplineSet
560 0 m 1
 472 0 l 1
 532 286 l 2
 544 343.333 530 372 490 372 c 0
 470 372 451 362.333 433 343 c 128
 415 323.667 403.667 303 399 281 c 2
 340 0 l 1
 251 0 l 1
 310 281 l 2
 323.333 340.333 297.666 370 233 370 c 0
 197 370 166 348.333 140 305 c 0
 120.667 273.667 106.667 237.667 98 197 c 1
 116 206.333 134.333 211 153 211 c 0
 184.333 211 209 200.667 227 180 c 128
 245 159.333 250.667 133 244 101 c 0
 236.667 71 221 46 197 26 c 0
 171 2.66667 140.333 -9.66667 105 -11 c 0
 57 -12.3333 26 11 12 59 c 1
 2.66667 96.3333 3.33334 141.333 14 194 c 0
 28 262 55 320.333 95 369 c 1
 140.333 425 193.333 453 254 453 c 0
 313.334 453 353.667 430.333 375 385 c 1
 413 431 458 453.667 510 453 c 0
 556 453 588.333 437.167 607 405.5 c 128
 625.667 373.833 630 334.333 620 287 c 2
 560 0 l 1
179 96 m 256
 182.333 110 180.167 121.833 172.5 131.5 c 128
 164.833 141.167 154 146 140 146 c 256
 126 146 113.5 141.167 102.5 131.5 c 128
 91.5 121.833 84.3333 110 81 96 c 256
 77.6667 82 79.6667 70.5 87 61.5 c 128
 94.3333 52.5 105 48 119 48 c 256
 133 48 145.667 52.5 157 61.5 c 128
 168.333 70.5 175.667 82 179 96 c 256
EndSplineSet
EndChar

